<mxfile host="app.diagrams.net" modified="2024-05-03T16:01:23.227Z" agent="Mozilla/5.0 (Windows NT 10.0; Win64; x64; rv:125.0) Gecko/20100101 Firefox/125.0" etag="Yjpu8sF4prtDKUdayree" version="23.1.5" type="github">
  <diagram name="Page-1" id="cuVLBi8SLXYpPmIPFrnp">
    <mxGraphModel dx="413" dy="1284" grid="1" gridSize="10" guides="1" tooltips="1" connect="1" arrows="1" fold="1" page="1" pageScale="1" pageWidth="850" pageHeight="1100" math="0" shadow="0">
      <root>
        <mxCell id="0" />
        <mxCell id="1" parent="0" />
        <mxCell id="O65TXnctTbFCrL6ZVX1L-7" style="edgeStyle=orthogonalEdgeStyle;rounded=0;orthogonalLoop=1;jettySize=auto;html=1;entryX=0;entryY=0.5;entryDx=0;entryDy=0;" edge="1" parent="1" source="O65TXnctTbFCrL6ZVX1L-1" target="O65TXnctTbFCrL6ZVX1L-2">
          <mxGeometry relative="1" as="geometry" />
        </mxCell>
        <mxCell id="O65TXnctTbFCrL6ZVX1L-11" style="edgeStyle=orthogonalEdgeStyle;rounded=0;orthogonalLoop=1;jettySize=auto;html=1;entryX=0;entryY=0.5;entryDx=0;entryDy=0;" edge="1" parent="1" source="O65TXnctTbFCrL6ZVX1L-1" target="O65TXnctTbFCrL6ZVX1L-6">
          <mxGeometry relative="1" as="geometry" />
        </mxCell>
        <mxCell id="O65TXnctTbFCrL6ZVX1L-17" style="edgeStyle=orthogonalEdgeStyle;rounded=0;orthogonalLoop=1;jettySize=auto;html=1;entryX=0;entryY=0.5;entryDx=0;entryDy=0;" edge="1" parent="1" source="O65TXnctTbFCrL6ZVX1L-1" target="O65TXnctTbFCrL6ZVX1L-3">
          <mxGeometry relative="1" as="geometry">
            <Array as="points">
              <mxPoint x="210" y="12" />
            </Array>
          </mxGeometry>
        </mxCell>
        <mxCell id="O65TXnctTbFCrL6ZVX1L-1" value="Users" style="whiteSpace=wrap;html=1;aspect=fixed;" vertex="1" parent="1">
          <mxGeometry x="170" y="50" width="80" height="80" as="geometry" />
        </mxCell>
        <mxCell id="O65TXnctTbFCrL6ZVX1L-9" style="edgeStyle=orthogonalEdgeStyle;rounded=0;orthogonalLoop=1;jettySize=auto;html=1;" edge="1" parent="1" source="O65TXnctTbFCrL6ZVX1L-2">
          <mxGeometry relative="1" as="geometry">
            <mxPoint x="250" y="90" as="targetPoint" />
          </mxGeometry>
        </mxCell>
        <mxCell id="O65TXnctTbFCrL6ZVX1L-18" style="edgeStyle=orthogonalEdgeStyle;rounded=0;orthogonalLoop=1;jettySize=auto;html=1;entryX=0.5;entryY=0;entryDx=0;entryDy=0;exitX=1;exitY=0.5;exitDx=0;exitDy=0;" edge="1" parent="1" source="O65TXnctTbFCrL6ZVX1L-3" target="O65TXnctTbFCrL6ZVX1L-2">
          <mxGeometry relative="1" as="geometry" />
        </mxCell>
        <mxCell id="O65TXnctTbFCrL6ZVX1L-19" style="edgeStyle=orthogonalEdgeStyle;rounded=0;orthogonalLoop=1;jettySize=auto;html=1;entryX=1;entryY=0.5;entryDx=0;entryDy=0;exitX=0.5;exitY=0;exitDx=0;exitDy=0;" edge="1" parent="1" source="O65TXnctTbFCrL6ZVX1L-2" target="O65TXnctTbFCrL6ZVX1L-3">
          <mxGeometry relative="1" as="geometry" />
        </mxCell>
        <mxCell id="O65TXnctTbFCrL6ZVX1L-2" value="Posts" style="whiteSpace=wrap;html=1;aspect=fixed;" vertex="1" parent="1">
          <mxGeometry x="349" y="50" width="80" height="80" as="geometry" />
        </mxCell>
        <mxCell id="O65TXnctTbFCrL6ZVX1L-23" style="edgeStyle=orthogonalEdgeStyle;rounded=0;orthogonalLoop=1;jettySize=auto;html=1;entryX=0.5;entryY=0;entryDx=0;entryDy=0;" edge="1" parent="1" source="O65TXnctTbFCrL6ZVX1L-3" target="O65TXnctTbFCrL6ZVX1L-1">
          <mxGeometry relative="1" as="geometry" />
        </mxCell>
        <mxCell id="O65TXnctTbFCrL6ZVX1L-3" value="Saves" style="whiteSpace=wrap;html=1;aspect=fixed;" vertex="1" parent="1">
          <mxGeometry x="274.31" y="-8" width="40" height="40" as="geometry" />
        </mxCell>
        <mxCell id="O65TXnctTbFCrL6ZVX1L-10" style="edgeStyle=orthogonalEdgeStyle;rounded=0;orthogonalLoop=1;jettySize=auto;html=1;entryX=1;entryY=0.5;entryDx=0;entryDy=0;" edge="1" parent="1" source="O65TXnctTbFCrL6ZVX1L-6" target="O65TXnctTbFCrL6ZVX1L-1">
          <mxGeometry relative="1" as="geometry" />
        </mxCell>
        <mxCell id="O65TXnctTbFCrL6ZVX1L-6" value="Posts" style="whiteSpace=wrap;html=1;aspect=fixed;" vertex="1" parent="1">
          <mxGeometry x="349" y="160" width="80" height="80" as="geometry" />
        </mxCell>
        <mxCell id="O65TXnctTbFCrL6ZVX1L-13" value="&lt;font style=&quot;font-size: 10px;&quot;&gt;&lt;font style=&quot;font-size: 8px;&quot;&gt;Attributes:&lt;br&gt;- Posts&lt;/font&gt;&lt;br&gt;&lt;/font&gt;" style="text;html=1;align=center;verticalAlign=middle;resizable=0;points=[];autosize=1;strokeColor=none;fillColor=none;" vertex="1" parent="1">
          <mxGeometry x="170" y="140" width="60" height="40" as="geometry" />
        </mxCell>
        <mxCell id="O65TXnctTbFCrL6ZVX1L-14" value="" style="shape=image;verticalLabelPosition=bottom;labelBackgroundColor=default;verticalAlign=top;aspect=fixed;imageAspect=0;image=data:image/png,iVBORw0KGgoAAAANSUhEUgAAAnwAAAI3CAYAAAABcob5AAAgAElEQVR4XuzdCVgU5eMH8C9x7iKXgK5leKKmlJaZpfXLMo80y/LKzNAytfLOK4+8yzNNM48OQy3L2zLPv2WaWllaZmrekiYKCILcS/zfd3YXl0uYZdEZ+G6Pz2OyM/PO5x1mv/te4xIYGJwFvihAAQpQgAIUoAAFSq2ACwNfqa1bnhgFKEABClCAAhRQBBj4eCFQgAIUoAAFKECBUi7AwFfKK5inRwEKUIACFKAABRj4eA1QgAIUoAAFKECBUi6gy8CXdYNpJi4upbzGeHoUoAAFKEABClBApYBmA1/uUMcgp7Jm+XYKUIACFKAABShgFdBE4LMPdwx2vDYpQAEKUIACFKCAcwVuWeCzhTwGPOdWKPdGAQpQgAIUoAAFcgvc1MDHkMcLkAIUoAAFKEABCtx8gRIPfAx5N79SeUQKUIACFKAABShgL1BigU8GPXbX8mKjAAUoQAEKUIACt17A6YGPQe/WVypLQAEKUIACFKAABUqkhY9BjxcWBShAAQpQgAIU0KZAsVv4HB2j5+rqCg8PL3h6esDd3R233eYq/tymTSWWigIUoAAFKEABCuhYoFiBz5FWPU9PL3h7G0XY80BSUirMZjOysv4ThLdxzJ+OLyQWnQIUoAAFKEAB7Qo4HPjUhj03N3f4+voICVekpKRoV4QlowAFKEABClCAAqVMQHXgc6QL12Dwhr+/P65evSpa80qZIE+HAhSgAAUoQAEKaFxAVeBT26onz93Hx1eM0fNEcnKS6LLlGD2NXw8sHgUoQAEKUIACpVCgyIHP0bAnu3JTUtI4Pq8UXjw8JQpQgAIUoAAF9CFQpMDnSNiT3bgGg1G07KUw7OnjWmApKUABClCAAhQopQKFBj5Hwp5s1QsOroC4uDh245bSC4enRQEKUIACFKCAfgRuGPgcCXvy1MuXL4/U1HRO0NDPdcCSUoACFKAABShQigUKDHyOhj3LOns+XHqlFF80PDUKUIACFKAABfQl4PTAJ1v3UlLS9aXA0lKAAhSgAAUoQIFSLJBv4HO0dU8+Li04OFist3etFJPx1ChAAQpQgAIUoIC+BPIEPkfDnjxtOTNXTtiQj0vjiwIUoAAFKEABClBAGwI5Al9xwp48HX//AKSlZWjjzFgKClCAAhSgAAUoQAFFwKmBTy7Fkph4jUux8OKiAAUoQAEKUIACGhLIDnzFbd2T51SxYiUxfi+RCy1rqIJZFApQgAIUoAAFKFDowstqiCpVugPx8VfVbML3UoACFKAABShAAQqUsIAS+JzRuifLycBXwrXF3VOAAhSgAAUoQAEHBNjC5wAaN6EABShAAQpQgAJ6EnApXz44y8XFOUVmC59zHLkXClCAAhSgAAUo4EwBtvA5U5P7ogAFKEABClCAAhoUYODTYKWwSBSgAAUoQAEKUMCZApoLfG1HLkL7Gqew/tXp+FaeqaEaOg0dipaV47Br9hgsOyb+7Z6emN7/QQTkkojb9wGGf/qn+NcQdJkwCk9UOIdv3n4XX0db32j4HwZM64a703/FwqEf4TdnSnJfFKAABcqkQBuM/OgZ1Mj33G33chX35LbD8VH763szX43C8UNbsHLpPlywHaPQz4AyWRE8aQrcUEBzge/ZCZ+jc60TWNl1PNahMp6dMEH8P3B85TiMW3fecjL3vY75w5qiXMwZnIpOzT7BhD9WYM6GU8r/Gxr1w8whD8H9t0UYOHMXUsS/1XllJsY+EYDjK97ChK8v89KgAAUoQIFiCzRBj7cfF1+zxcu3Mu66wweJF47ifIL8h3+wY2IE9qi5Jz87His6h2bvwz2gCqqbjEj7cyneeGerci8vymdAsU+LO6BAKRPQcOCbivNvTMOgh8sj9se5GDF/v+UX3e6XHT/OxBvzDxZQJV5oNWo+etSLw/9NGopPYttjwsxOqHnxWwwf+cX1b4qlrEJ5OhSgAAVumYA1rB1f2U18Qc9diiLek/PsowK6TZ2Np+78Gyu6TcTXRf4MuGUKPDAFNCmg2cC3eSXQTHzLw/FVGDtufc6AZm3hu3HgE953dMDkd57DnWfX4qvEFujeMAM/zuiP+Qc0WRcsFAUoQAF9C9ww8BXxnpzPPlqNWoIed5+z9vxcb+Er9DNA35osPQWcKqDRwPcf/vvvNtx2WxIOfjQA07+73m1r38JXPhdFft8qLd24FQGxv6SD17t3narInVGAAhSgAFBY4BNGhd6Trfs4s2kcPt0HBIV1wAud7kHgxa14e+hSKIN2rF/6i/IZwGqhAAUsAhoNfEDK8d/xz50NUAt/4rM3pmJrdn/u9V9219+WYOb6s9l1mXL5JC4o40bsXmKixtD3+6ChpxgXOFSMC7RN4OAVQAEKUIACzhUoQuBDYfdk6z6uF+w/pMcewlfvzsAm26wNa+Ar0meAc8+Qe6OAbgU0GvhOYe3Lb2PjA0Pwft+GcMvdrVvULl1rtSgTQYL2YMYbH4K9ubq9VllwClBA6wJFCXziHG54Ty7KPlR+BmidjeWjwM0Q0Gjgs83S9UKjATMw5CFjvrN0PU/uxLY/47Odkk//gI2/5p19y8B3My4lHoMCFCjzAkUJa04MfEX9DCjz9UIACggBjQc+UUJDI7wxbQAe9juDtaPexirZpF/A+I0rBczaZeDjtU4BClDgJgjc5MCXewxfQZ8BN+HMeQgKaF5Ac4FP82IsIAUoQAEKUIACFNCZAAOfziqMxaUABShAAQpQgAJqBRj41Irx/RSgAAUoQAEKUEBnAgx8OqswFpcCFKAABShAAQqoFWDgUyvG91OAAhSgAAUoQAGdCTDw6azCWFwKUIACFKAABSigVoCBT60Y308BClCAAhSgAAV0JsDAp7MKY3EpQAEKUIACFKCAWoFiB76sLLF6s4vlsJUq3YH4+Ktqy8D3U4ACFKAABShAAQqUoECxA5992Rj4SrCmuGsKUIACFKAABSjgoAADn4Nw3IwCFKAABShAAQroRYCBTy81xXJSgAIUoAAFKEABBwUY+ByE42YUoAAFKEABClBALwLFCnz2EzbkCXMMn16qneWkAAUoQAEKUKAsCTDwlaXa5rlSgAIUoAAFKFAmBYoV+HKLsYWvTF5DPGkKUIACFKAABTQuwMCn8Qpi8ShAAQpQgAIUoEBxBRj4iivI7SlAAQpQgAIUoIDGBRj4NF5BLB4FKEABClCAAhQorgADX3EFuT0FKEABClCAAhTQuIDTA5/Gz5fFowAFKEABClCAAmVOwOmBLz7+aplD5AlTgAIUoAAFKEABLQsw8Gm5dlg2ClCAAhSgAAUo4AQBBj4nIHIXFKAABShAAQpQQMsCDHxarh2WjQIUoAAFKEABCjhBgIHPCYjcBQUoQAEKUIACFNCyAAOflmuHZaMABShAAQpQgAJOEGDgcwIid0EBClCAAhSgAAW0LMDAp+XaYdkoQAEKUIACFKCAEwQY+JyAyF1QgAIUoAAFKEABLQs4HPiysgAXl5ynVqnSHeDCy1qubpaNAhSgAAUoQIGyKMDAVxZrnedMAQpQgAIUoECZEmDgK1PVzZOlAAUoQAEKUKAsCjDwlcVa5zlTgAIUoAAFKFCmBBj4ylR182QpQAEKUIACFCiLAgx8ZbHWec4UoAAFKEABCpQpAQa+MlXdPFkKUIACFKAABcqiAANfWax1njMFKEABClCAAmVKgIGvTFU3T5YCFKAABShAgbIowMBXFmud50wBClCAAhSgQJkS0HXg8/DwgI+PLwwGL8i/u7q6iad/WB7/kSUeBZKZaUZ6ejpSUlKRmJig/J0vClCAAhSgAAUoUNYEdBn4fH194e/vD09PL6SlpSIjI138MYuAlymC3n9KHbq43CYCoCvc3d3EH4/s98bHxyMhIaGs1TPPlwIUoAAFKECBMiygq8Dn5WVAhQrBcHNzE612yeJPiqqqMxgMojXQCLPZjMuXo5Gaqm57VQfjmylAAQpQgAIUoIBGBHQT+AIDgxAYGIhr1xKRnJxULD6j0RvlyvkgNjZW/Ikp1r64MQUoQAEKUIACFNC6gC4Cn8lkgtFoVLpizeYMp5i6ublDdg0nJycjKirKKfvkTihAAQpQgAIUoIAWBTQf+GTYk12xcuydbXyesyDlOD85FlB2DTP0OUuV+6EABShAAQpQQGsCmg58shvXz88XcXFxTg97toqQoS8gIABXryawe1drVyfLQwEKUIACFKCAUwQ0G/jkBI2QkBBcuRLrtG7cgsRk92758oGIjIzkRA6nXFbcCQUoQAEKUIACWhLQbOCTYU/Opi3uBI2iYsuJHHL2rwx9fFGAAhSgAAUoQIHSJKDJwCcnUwQFBSmtezfzJVv5YmJiuE7fzUTnsShAAQpQgAIUKHEBTQY+2bonF1NWu85ecbXk5BC5SDNb+Yorye0pQAEKUIACFNCSgOYCn3xEWpUqVREdfemWOAUHV8S5c2f5GLZbos+DUoACFKAABShQEgKaC3xyZq63t1xz72oxzvduvDiqHTI3vYcVv6eq2o+vrx+SkpKdOmPXP6QO6jdsjPJXfsZvfxxDZLyqIvHNFKAABbQt4H8n6pi87cpoRlzkSVxKLnqxjRVrIsQnEZEnL0HFZtcPYGyAzuGhOB6xCr87tIOilxXwQ0idSkBUwffzkEd7oLn391iy6ZyaHTv0XmODTgivdQIRK38vwK7w8hZ8YAMq1qyHBvfXg/EiP8McqiCNbKS5wFe5cmXxTFxzMbtzK6HNsGFoVy0ZvyyejCUqQp/s1nV1dcP58+eLX0XGphgwZwjaVDPALEKk2c0Ib7cUnBFBdNDcPY7d1IpYKlOTjmjtexSfbfmriFvwbRSgAAUcFOg2G9t71M25cWYaLuxdgLcnbkZRpsI9OPJzTKp/CGO7TsNPRShGnnvcU5OxYWAYDr/fHqM3FmEHxXrLC5izPRz4rBUGfZ7fjmrj9U9m42l8g0GvLMCxYh2r8I2fmrIeA8MO4/1nxkCeet77f2Hlzf8YxtDOGD0pHA8Eul1/Q+Y1nNk6D8Nn70SJtl2YmqBT61Dg+Fas2suHIxR+FRT+Ds0FvurVqzv0RI3AZuEIv6+8csaG8rcjwNsDRi93uGRdwb4FY7D0z8Ix5DtsT+A4ffp00TYo8F1V0G3O++gedBDzJ0zHNyfkc3sNCG03HOPeuBfRS/pi8FcldxErN0/Tt2gx6Itingc3pwAFKFCIgBL4RP5pMRi2/OPfqB+mjmuJ1BW9RSgq/F6nNvDd2nucYwHqZl1HeW0cKK/xGUxb8TruM2Yi7vgP+H5/FFIMIWjS6iFUE425578Zjp5zD5fcKT04AismPQ7seBtdp/5ccscpQ3vWXOALDa0lZspGq15o2T7wKfV3mx/uqFEBxtTT+Gb6TGy6WLRalQsxBwUF48SJ40XboKB3yW+b/QLxbe/XsDjX19uwwZ9hdoPfMTh8Dg7X6YKxrwbh52UJeKjvE6h/5Ws8N2qN2KsfGvUciJcevgsVcBlHflyO95fsv/6Nyr8Reg7sjMY1q8E76Rj++m415lqb8x/vNwMdHqqNWp6XcUiMR9z/0WR8qXzFvNE+H0O/WU0Rs/Y3VHq2Ax70+wNdXp1XPANuTQEKlA2BfAKfPPEuszehJyLQevBXioMx9Cn06dkW99UxIunYQXy7ZJH1yzCQJ/CpvcdB3ktDcSL7fnfj49V5fgxeDdqD90/Xx4AOjXEn/sHBrV9k30ct5X0c4S90QpP6/ki/cBS7PpmBiN/ll3drgFo+Ager9sET8uenf8aauXOwyXq/l/fhttiENz/4HnmPlc893e5KCW43BCPvOoUZ0zfAEpXl/bkNjLtnYfp6y7+Y2g/DsLpnMP+d1fCQ5xJ6Ah9N+gq353v/L7y8uS9U5XOqTSVc3TsTL43bfr1HKuRVLFzcETWu/Yh3Ok7CRXnsRsB++dnR5Xk8YvgVU8Rnx292nzd3eMTjj72r8EXEdziR3d0uGkCah+OF9vej7h3uiDt2BLvWLcQX+8VwrsffwKwOD6J2rQrA5RP4O+oovn1zPr6ThVSuixfxcN074BGX87PP5lTtzHYsS/wf+repg0urOmLU6rLxa1jYWWou8NWqVRuXLxf+bfDGJ2bt0r09DrsiZqgex1ehggnHj/9dmN0Nf9509AqMN23CM/2X3bjrVvkWcz/cLybj74Pil+Hor6IbNhZdZs5Hj5Cz2LbpEOKUb1UPwv/AHPSYKH7xrN+86sT8iC0b/0SUqRE6PFMvu9UwrHU4WrVtJ7p0j+Dz7w/h+JbV2BtlyrlPBKB+m5aofiECfcTNOEq5gT2HynHpuHTgB+w/9Sc+W7W3WAbcmAIUKCMC+QY+g+jlWIOuaYvw1IgNItENxtJxjyJj32bsjkxFQFgrtKx3Bav79MMnIiTlCHyO3OOqynvpPfhjbDdMlX3CuY5nCGmK1k288OP4lzBD/NxyvEycSTyBg3tFAeTPH6mAY/O7YsR6EeqUMvRBtdPbsGL9ARgefRFdGiZhZX/RihlpCVDVkv7F6R924o84L4Q88iQeMe7L7pLuNmcreoiwK3tZbMe66BKNg1ss9/RHWj8Ez31T0HtqPsN75OfCeBM2PieOJQNSy3FYN6wJDH9F4Dmxv2TRWyRtO16djWdFGLO3u5bv/b/w8ua8UmtjwJK5aFf5Ar7p/zLm5uiTlmP6qiDALUkMYfwHdaRjc0/xtCojynmlIjVmL6b2WIUaooerRz0PpEWfw/nM21HF5AVErscw0cUt2wXDBnyKme3uQFbCPzj5L3B7zTvh63IJ22T9VJ6MtS/eA6O3J5CWhOT0I/jiuTFYHSLOY1446nmmIe7CZaQFV4LJ4IJLO2yOlvOsJ56cddXPCI9EM46veQZD8+12LyO/m3anWUoCnxcCxRiD2Nhr1lOTkzZaI3nNPKz9W92kDbkDZwQ++cv+VFQRmqKVwNcIp2Z3x5hN8puj/E0YhIiZtbHHvnVQ+bea2NVD3BwTKqL+I/Xgsvu77MHJLSesxhDfVdnfpPM06SvHuQu/DO6B2bZWeOWbWkv8O60TJn5v+UUpt7Y3ei0o+UHGZe9XjWdMgVIskCvwKRPVHu6OV1+qhwsLZYACOkz/Cl1T5tm1Fhks/3btPXScuDNX4HP0HmcLfNawmf4xOg9fa/3SbUDLCUsxJHgzerz+KarKoNL4NGZ3G4tNSqtT7oAq75l3YMszAxCh/NyEBk0q4uLvf4jJKPncL03ifrqsGc5aA2eewNcsAavs7ulGEeKWDgnGZnlPz9PG0Qxvrx6O8us6iO7wFMVmoOkyUDMVXz31FtZDhNGN3ZE6tyPGbcvbOlpQl26O+3uu8ua8Opti9Mq30SzgSI5u+vyuYOVYzYMQs+tdvDbJOq6v/bvY+MZ9SNw5Ea9MkYHWgPuGLcC0luVxYP7T4nowoUmn59Hi3hT83+RF2CN8jeFzseHF2ri0bRRenPGbOKm8Xbrtp30NsVscW94f/SPE55QYJz/6E1HOoIvYpHy2WQNf2t/4YvAILFGGUvFlE9Bc4FPfpVsJD7/2Bl64+wrWv/4exLVfrJezunTlL/sz0RPRWVzsN3wpF7Xdt1J5W+m9AMuaJ2Ld5r/sWgdr4LFudXF2huUXXJkldn9jNAmrhqq1aqKGmEVV9d/l2WP2cv/CK/v83ymMfHGmaGq3vSzf4u49OECMxWhYyCDkYrFyYwpQoDQL5DtpIx6HV7yL0RFy5mgLTFg3ALf/thp77ObDBTYUPRHuW9G970eWAJZj0oa6e5wlINjupfJ4g+H7ZRsxVtoOXgaRXsDHIjRF5TNJJMd909rKeE/KUfwgWvH2bd+H/dkziPMbEyf/rS2iCgp8YQdz3X9lGfvDK0IGoLwXh/wSP8BrmWgdPSbu01MQuOIDZPbuB1fRnTpO/LdugBcilPBX9MCXc5JJzvLmLEFjjFwxEc2Dihr4bsPO8V1h+7izhEA/xJ46igtJ1j17mZQu2sTsMXmipbD+I3jsXstnWNXqdVFDNNzE2H6eJ/DlX6aGw5ZiasuK+EuZQGMNfMeWF967Vpp/Hws4N80FPnWTNqxh7x5fXNz1KZb/ZFnKJSX6DKJsjX0qK9VZkzaUi7DGbuVGlufLm7KEgZzR/w/i8wl8yraN08X4u7g8pT/z7TB8cPIFzJ77Iupk/ouTZ6Nw4eSfiA1pj86GbwoMfMo+Q7bn+iUwIHzeerS+IFsiazDwqbxW+HYKUMAqkKuFzyiC1Yq+FbFjqOgOVHoUumD2lm6ocOpvROXudIn/VRl75m8fwETXndp7XM7AJ4/XHjGTrocQpaRN38LK8RWwQUwuOVVY4JPvF+PFnu35JB4PuwtVbi8P9+jtmNx3pmiRciDwVd2Z6/PAEmBMGwuY6SvDaXgq5r51BV1n3o4NItwlixDYNXY0Fhnfxpjya7JbL3OPfyzapI0bBT5bl24Mdti6yLMvdtk61wq1vKPw62dbUU4Jd2Juhd37LIHPB5fF0Kjc9R2//2NM+jIV3Wa/h+5h5ZCVkoiYf8/gZGowHq5XSXXgUxozOlXHqVXh6Lv4cUuXruj65oTFvHcnzQU+VcuyPDEI8zrUgt2E8ewzjN03D2OWHlV9P3basizWIHd4fC/xrce+WTlnt0JUPoEPXWZhy/MJeO/ZCfm2WNYRYx/mNTxkmfRhPUP5bXCY39oCAx/svtle/zJp/y3YgVlcqnW5AQUoUCoF8ozhq4LeCxfg6dTl6CXGnEWhIYYtfwc1dskP5fzHaNuHlnhH7nE57qX2vRfXx2Pb93S4FyHwGY0G8Tx36/3b+CQmfz4Id3xfUI9IIS18jY9jhv09XelSfUQETzFm7Xq3i93lIbttOyP1twQ09tttGbsn7+Ot4/Gj56Mw/Z+lu1e+nB/4gDqvL8acZ6sgTYSn/uLYtrmHRhGaPxnfDEH/blY+g/ILfMpnVDsTTnz5sliexlrf9g0ddfpjybynUPncOrzSa6Gyb1uXbsEtfCZxTUWgUw1b9608c8uwgL73wtpVbG3hY+DL9zajucCnauFlrxC06z8IbaqbcWzdEnx94vpXR0db+Zy38LIBTUcuwtiHUrEzYg4Wrj2CeP+6eK7vIIQ388K+SX0wVQbB/AKfUQSxpYNR4+B09Jsix0SI2Uzh72Bmp/+wIvxNfN16NtY+ew1ze4mxJ2IhJGODVzFzQkeEnrn+rUa5AdTch9cHfGCZFZVnn35oNnoeRj5wAQu7im6BfL+xlsqPJp4UBSjgbIF8Jm0oY9SGheGvGS+JYSgpCBEtMYvbpmLF0FGIkGOr/Jth9AfDUPfQZHSbvi9HaDkk9qf6HpfrXpr7eMbQ7nhnZlf47bAsJ5LfMjD2LWOBogzLOwNfWstrDO2JabM7IXOFDFrP5tMjUkjgax6ASzut93RjKMLfmYGufjswtOe87C/uOavFMqawex3g7NqXLUHZKI6xRvTuuJzGKruxf/kGPvv7v21WcY51A2/Uwic/M5pi5OLRaF7RFebY0zhyQXSbeQShRujt8HZNEQHLMrnF0pqXs4UPJtHCuuhlhOEcdn+1HCsv3I7OL4kZvCEymInttgm/taIlLu4XLJj1OY54P4Q+b3RCWIDr9Ra+hkOxfGoLVLx6BJs2bsF20ZoYIxpDFvUKg2fcYWxd+wsuVnkEXZ8Iheel7Rgvhiv9ZD1PtvDl/wuuucCn+tFqttBX7TzWOWEMn3MfrVYFbUaOwCuP1oCvtRnSnHAKP3wyDVNtq6/nF/jk71qD7pg48nnU989EWpYn3DKj8duS0Ri9xjJQ1bKgsxfSxX3T479j2HnYhObl7Nbds3aJhHmbrd987PcJmGW7aNIRrJs0CovtlxkocCFRZ39CcH8UoECpEch3lq5JBJbF6O633Rpq5P1wFHo3qwpPcxpcPF2RdGoL3hsyTxm0n3OWrgP3uKjc46Htjpcl7ngumTkWgi4s8AFV0GHKu+j1gB8ykjLh4e2K+F8+wfDRa0WLlANduvVPY0dUXTSr4w6ziydc4/fj4+FjsOYGq1IbZfDt4YdN2TNlra1cWJ2jezjPueS5/xde3nyvRfH0kvCJQ9EpLBiiupRX7s+wfAOfkhf7i7ptjRrXP/xwavMcDFEeOiAaRAbMwbA2VUV4lDuNxS/bTqF6mwfs1t0Ta9nOnIkX6/uKTyvbbGG53SwMedL2mSo+H6MPYMlImyNb+G50T9Fc4JOFDQkJQUZGuoqnbZRD9Vrl8e/xSKifk3udR3bnurt7IDKyKOvCq7lVW6ax+ySew8lL6mYNydluJo+4fB835OijiJR94iKORRbn8XVqzp/vpQAFKGAVMFZEzZAApN/gsWQ2K0fvcTmsleP5IFHlo96y96F0RXqqflScfRnsA9kh+Qg5z2id3X8dfzTbjT7DUJS6Ee+p6HEJl3I81sNSHo849Z+pZfn3UJOBz9fXVyx+HIQrV2Jvat2ULx8oFn2OUZ70wRcFKEABClDAGQJqnyLijGNyHxTILaDJwGdr5TObzWLArG1Od8lWntHoLR6r5lYCrXslW27unQIUoAAFtC3QcMAijL77sPUJFNouK0tXegU0G/i8vAxK165s5TObM0q0BuRSLLJ1T3blpqaq63It0YJx5xSgAAUoQAEKUMAJApoNfPLc5IxdPz9fxMXFqX62blFt5ELLAQEB4rEwCeJJHTFF3YzvowAFKEABClCAAroR0HTgk4omkwlyMkV8fLzTQ58Me/7+/srkkKio4j6/Vzd1zoJSgAIUoAAFKFDGBDQf+Gyhz2g0KpMpnNW9a3uiRnJyMsNeGbvoeboUoAAFKECBsiagi8AnK0V27wYGBuLatcRiT+SQEzTKlfMRXbix7MYta1c8z5cCFKAABShQBgV0E/hk3ciJHBUqBCuzaVNSklWs02epWdk1bDAYRSuhGZcvR3OCRhm84HnKFKAABShAgbIooKvAZ6sguU6fHHvn6emFtLRUZZHmjAwzMqxzO6EAACAASURBVDMzs8f5yfF5rq6uYiFlN2UxZdt75VhArrNXFi91njMFKEABClCg7AroMvDZqks+hs3Hx1e02nlB/t3V1Q0uLi7Kj7OyskQANCM9XT6xIxWJiQnK3/miAAUoQAEKUIACZU1A14GvrFUWz5cCFKAABShAAQo4IsDA54gat6EABShAAQpQgAI6EmDg01FlsagUoAAFKEABClDAEQEGPkfUuA0FKEABClCAAhTQkQADn44qi0WlAAUoQAEKUIACjggw8Dmixm0oQAEKUIACFKCAjgQY+HRUWSwqBShAAQpQgAIUcESAgc8RNW5DAQpQgAIUoAAFdCTAwKejymJRKUABClCAAhSggCMCDHyOqHEbClCAAhSgAAUooCMBBj4dVRaLSgEKUIACFKAABRwRYOBzRI3bUIACFKAABShAAR0JMPDpqLJYVApQgAIUoAAFKOCIAAOfI2rchgIUoAAFKEABCuhIgIFPR5XFolKAAhSgAAUoQAFHBBj4HFHjNhSgAAUoQAEKUEBHAgx8OqosFpUCFKAABShAAQo4IsDA54gat6EABShAAQpQgAI6EmDg01FlsagUoAAFKEABClDAEQGnBz5HCsFtKEABClCAAhSgAAVKTsDpgS8+/mrJlZZ7pgAFKEABClCAAhRQLcDAp5qMG1CAAhSgAAUoQAF9CTDw6au+WFoKUIACFKAABSigWoCBTzUZN6AABShAAQpQgAL6EmDg01d9sbQUoAAFKEABClBAtQADn2oybkABClCAAhSgAAX0JcDAp6/6YmkpQAEKUIACFKCAagEGPtVk3IACFKAABShAAQroS4CBT1/1xdJSgAIUoAAFKEAB1QIMfKrJuAEFKEABClCAAhTQlwADn77qi6WlAAUoQAEKUIACqgUY+FSTcQMKUIACFKAABSigLwEGPn3VF0tLAQpQgAIUoAAFVAsw8Kkm4wYUoAAFKEABClBAXwIMfPqqL5aWAhSgAAUoQAEKqBZg4FNNxg0oQAEKUIACFKCAvgQY+PRVXywtBShAAQpQgAIUUC3AwKeajBtQgAIUoAAFKEABfQkw8OmrvlhaClCAAhSgAAUooFpA14HPw8MDPj6+MBi8IP/u6uoGFxcXBSErKwuZmWakp6cjJSUViYkJyt/5ogAFKEABClCAAmVNQJeBz9fXF/7+/vD09EJaWioyMtLFH7MIeJki6P2n1KGLy20iALrC3d1N/PHIfm98fDwSEhLKWj3zfClAAQpQgAIUKMMCugp8Xl4GVKgQDDc3N9Fqlyz+pKiqOoPBIFoDjTCbzbh8ORqpqeq2V3UwvpkCFKAABShAAQpoREA3gS8wMAiBgYG4di0RyclJxeIzGr1RrpwPYmNjxZ+YYu2LG1OAAhSgAAUoQAGtC+gi8JlMJhiNRqUr1mzOcIqpm5s7ZNdwcnIyoqKinLJP7oQCFKAABShAAQpoUUDzgU+GPdkVK8fe2cbnOQtSjvOTYwFl1zBDn7NUuR8KUIACFKAABbQmoOnAJ7tx/fx8ERcX5/SwZ6sIGfoCAgJw9WoCu3e1dnWyPBSgAAUoQAEKOEVAs4FPTtAICQnBlSuxTuvGLUhMdu+WLx+IyMhITuRwymXFnVCAAhSgAAUooCUBzQY+GfbkbNriTtAoKracyCFn/8rQxxcFKEABClCAAhQoTQKaDHxyMkVQUJDSunczX7KVLyYmhuv03Ux0HosCFKAABShAgRIX0GTgk617cjFltevsFVdLTg6RizSzla+4ktyeAhSgAAUoQAEtCWgu8MlHpFWpUhXR0ZduiVNwcEWcO3eWj2G7Jfo8KAUoQAEKUIACJSGgucAnZ+Z6e8s1964W43zvxouj2iFz03tY8Xuqqv34+vohKSm5+DN2/e9EHRMQdewfxOdTAmODTgivdQIRK39HsrEiaob4IDHyJC4lqyou30wBClDg1gso9ztvu3KYEafyfmasWBMhPomIPHkJDt0GjQ3QOTwUxyNW4XeHdqCG0Q8hdSrJGzwi87vBi12FPNoDzb2/x5JN59Ts2KH35vg8yXcPhZc392b+IXVgMhZQj8am6DumPUIi12Pywj3Wz7AAIO4cTl7iE6wcqsSbsJHmAl/lypXFM3HNxezOrYQ2w4ahXbVk/LJ4MpaoCH2yW9fV1Q3nz58vHn+32djeA/isxWB8ns+enpqyHgPDDuP9Z8Zg44MjsGLSPfhjbDdM/al4h+XWFKAABW66gHK/q5vzsJlpuLB3Ad6euBlFmQr34MjPMan+IYztOg1FuQ2amnREa9+j+GzLX5bjPjUZGwaG4fD77TF6Y0kLvIA528PFDb4VBuV3g0dtvP7JbDyNbzDolQU4VsLFyfF5Io6VxwaFlTdvAbvN2Yoe9WKwI7/PpYZDsXxqC1S8tB0jX5yJ35TPsMeBHW+j69SfS/hsuXtHBTQX+KpXr+7QEzUCm4Uj/L7yioOh/O0I8PaA0csdLllXsG/BGCz9s2hEtidwnD59umgbFPSuQgJfjs0Y+Ipnza0pQIFbK5DP/c6/UT9MHdcSqSt6i1BU+NOM1AY+5f2mb9Fi0Be34NzVB6ibWci8NurLe8PABwMq1qwCn0Rrix4D382sXoePpbnAFxpaS8yUjVa90LJ94FM0bvPDHTUqwJh6Gt9Mn4lNF4tmJBdiDgoKxokTx4u2gYOBr87zY/Bq6Al8NOkrHMsT+KqgzeBX0czzABZPXYuT4pcrtF0f9Gx7L+p4J+PYgW+xZNFGnMjutvBDoxf6okvzBqjuES9+/jUWzi7at+rinSS3pgAFKCAECviC22X2JvREBFoP/kphMoY+hT492+K+OkYkHTuIb5cswjcnLF2AeQKffyP0HNgZjWtWg3fSMfz13WrMlUNgxHsf7zcDHR6qjVqel3FIjLne/9FkfIkuGPtqKE7Iv1ub1G50POUeHLQH75+ujwEdGuNO/IODW7/IPoalvI8j/IVOaFLfH+kXjmLXJzMQ8bssrzVALR+Bg1X74An589M/Y83cOdhkbc6UZWyLTXjzg++R91iXceTH5Xh/yf58h/wEtxuCkXedwozpG2CJyo+h36w2MO6ehenrLf9iaj8Mw+qewfx3VsPD7vPk9vxsjhVe3tzX8Y0Dn6U81c5Yzg95Al8VdHirH5oEXcPfa+Zj8V7xzHqlPl/Ew3XvgEfcIexdtQIRO05kd99b6qoFwmrIn4v63rUBC7/I34e/c44JaC7w1apVG5cvF/5t8Mana+3SvT0OuyJmqB7HV6GCCceP/+2YqG2rQlr4ctzccgQ+PzQbPQ8j7jqKaf3exU4xPuTBIZ9h3KPp2LdlDyJTAhDWugXqXVmDPq9/qnSVhA34FDObm7F3/Wr88G91tH+lHYIPvIMXp+4p3jlwawpQgAJFEcj3fmdAtzlr0DVtEZ4asUHcyAZj6bhHkbFvM3ZHpiIgrBVa1ruC1X364RNxI8txTzQ+g2krXkedmB+xZeOfiDI1Qodn6iF6SV8M/ipK3APD0aptO9GlewSff38Ix7esxt6quYbG5DqeIaQpWjfxwo/jX8IM0WdsOV4mziSewMG9ogDy549UwLH5XTFivQh1Shn6oNrpbVix/gAMj76ILg2TsLK/GKYTaQlQ1ZL+xekfduKPOC+EPPIkHjHuy+6SVgKTCLuyBdJ2rIsu0Ti45RDiDCF4pPVD8Nw3Bb3FfTrPkEP5mTDehI3PiWPJH7Ych3XDmsDwVwSeE/tLFo0A0rbj1dl4dtz2HHbX8rOJKry86gKfZX/1RHmUFtYcgS8KHaZNx6v3+SBmh/X8QsT754n3e6Yh+uwFZN4eApMBiFw3Aq98eFjYv4qFizuiRlaCGMN5FhnBdVEj0AXnvxmOnnPFz/lyikApCXxeCAx0ExMtrllR5KSN1kheMw9r/1Y3aUPu4NYFvtfxU3MZ9k5h3qgJlm+KxucwfWVXpMx9CeO2WQfDWv/t2qxOmCi+XMkbyzPRE9F5ijXghTXCownH8UNkcSa+OOX64k4oQIGyIJAr8MkB//Uf7o5XX6qHCwtlgAI6TP8KXVPm4SURUCwBx2D5t2vvoePEnbkCX0XUf6QeXHZ/lz0Bo+WE1Rjiuyq7tTBPt2WOL87WsJn+MToPX5t9vJYTlmJI8Gb0EF+Wq8rA1/g0Zncbi01KgXIHVBkg78CWZwYgQvm5CQ2aVMTF3/8Qk+ssgafc2t7otcA6KcMkQsuyZjhrHfOWJ/A1S8Cq3q9hsbUF0ChC3NIhwdjcQwTePG0czfD26uEov66D6A5PUWwGmi4DNVPx1VNvYT1EGN3YHalzO4rPhbytowV16d6ovM4JfBPxAfpgbPOKSBNhsL8Ig/J020/7Gm/cl4id43thyh4Zpu/FsAVT0TLwAObL87GOAY2xjQGUk0IGNELq8T34Zu1+3NwVeUvvL6zmAp/6Lt1KePi1N/DC3Vew/vX3IK79Yr1uVpdu3ha+Boj5KwOhtRLwVd9+WGIb5Sy/2Q28Hb+t2ovr00jKo+EzreG+ORx9F4tvu7KFr40fLv22G5t3/Yi9P/9a4MyxYuFwYwpQgAL5CeQ7aSMeh1e8i9ERshu2BSasG4Dbf1uNPXbz4QIbilY6963o3vcjSwDLMWlDzCy9vzGahFVD1Vo1UaNmPVT9d3n2mL0bBz55vMHw/bKNaBG0K3D7d7GxF/CxCBlR+UwSybFPayvjPSlH8YNoxdu3fR/2Z88gzm9MnPy3togqKPCFHbRMcMgujixjf3hFPK0E4twvGXAHeC0TraPHMGDJFASu+ACZvfvBVbSEjRP/rRvghQgl/BU98OWcZJKzvM4IfD5x8cgM8Ifx3Dq80muhdbJOY4xcMRHN/WJx6ugFJFkP5GUSXfIVEi2TQiAmgYwXk0AgWwAP4dAfv2Lft9+z0cLJdxvNBT51kzasYe8eX1zc9SmW/2Rp0UqJPoMoW2OfSrCbNWkjb+B7HMbIo4gJqpWzmb/LLGzpXgGn/o5C7rbK+P0fY9KXsutZjPFr3gUdmjdGPTE+ItgrA0eXDcHgz0t+OQCVvHw7BShQGgVytfAZRbBa0bcidgx9GZYeuS6YvaUbKpz6G1F5bmS/KmOZ/e0DmOgCnD33RdTJ/Bcnz0bhwsk/ERvSHp0N3xQx8MnjtUfMpK6iRckOvOlbWDm+AjaI1RNOFRb45GZi3NmzPZ/E42F3ocrt5eEevR2T+87EHmsL340CVJ4Wvqo7lWB7vTHPEoRMGwuY6SvDaXgq5r51BV1n3o4NItwlixDYNXY0Fhnfxpjya7JbL3OPfyzapA3nB74gmMUjUd3g5nIJOyb1wVTZmgdr4PO5jON5PseuWsZfijGX/o16YuArzVD/9iD4GNzEdmZc3PYO+s7Ip8u7NP4O3YRz0lzgU7UsyxODMK9DLchLI/crdt88jFl6VDXhzVqWpaAxfHNdR2Dx2IcQs2ygaMoXgU2Z/l4Du7qLroAChzYaYDSmiOcOW0435LXF+KRtLFqIGwRfFKAABUpcIM8YvirovXABnk5djl6iWy8KDTFs+TuoscvSK5Hfy/6eGC96LeY1PITB4XNgG8ElW7yG+a0tYuCrLVrF5uLegwPEGLDr47FNvRdg2f9OKS1t7kUIfEajQdxXbUNpnsTkzwfhju/lPhvmsyxLIS18jY9jxrMTrvdCKV3Aj4jgKcYUXm/2s6OR3badkfpbAhr77baM3ZMhsHU8fvR8FKb/s3T3ypdWAp/Xz3PQc9cD+FiMN/S7uhczXhLnm2ypi3aVTuBLu+5rZZ0/XMQxOfRIWcfRM3vtRmNoT0yb/TzquB3Gx63fhH0jbYlfy6X4AJoLfKoWXvYKQbv+g9CmuhnH1i3B1yeuf3V0tJXPaQsvOzxpQ/zyDluK8Q/HYpkyONhy42ybugJDRy1TZub6N3sLH4yoi0MTu2P6vofw1pdjUe/P6eg3ZaeY8SUmfYz9EKPrHkILsZ4VXxSgAAVKXCCf+50yRm1YGP6aYRl/HCLC1uK2qVgxdBQi5Mxc/2YY/cEw1D00Gd2m78sRWg6J/a199hrm9hLj68TENWODVzFzQkeEnrFOErCFnJr78PqADywrFuRa7SD38Yyh3fHOzK7w22GZCJDfMjD2LWOBogzLOwNfWstrCSGdkLlCBq1n1Qe+5gG4tNN6nzaGIvydGejqtwNDe87LDrU568kyprB7HeDs2pctQdkoQuUa0fLpchqr7MJTvoHP3ibfdfiK0sKXhstiAmOOVlllZm6lG0zaOISmIxdZxvEd/hR9ZJ+66Kla1CtMzNL4EV8tXYULd3TCS10eRgjEGL6ub+FYj8WY82wVpJ1Yh/fm7gTu64m+PRsg6N/NOUJ/iV/HpfwAmgt8qh+tZgt91c5jnRPG8Dnt0Wr5jWmRF5N1VlPBs3Tlm6qIX/T30T3oZ0yVM3V9n8TIMb3QrJoXzGku8HRNwqnNczBkrqWp29i0P+YMexIhbqlId/WGR9pZbJoxCHOV5nS+KEABCpSwQL5fcE3iPrYY3f22W0ONWG5q5Cj0blYVnuY0uHi6IunUFrw3ZJ7oIs09S7cpBswZgjbinpcubmMe/x3DzsMmNC9nt+6etds3zNuMA/PFOLio3AvY2x0vyyy6GTNzLARdWOCT9+EOU95Frwf8kJGUCQ9vV8T/8gmGj14rxqY5MIav/mnsiKqLZnXcYXbxhGv8fnw8fAzW3GBVaqMMvj38sKm/6BpXlpoxiQaACHTC6hzdw3nOJbfN+sLLm/sKsSzLks91o3yG4QaBTyy8LCZdjFw8Gs0rpuOvz2Rv1WU0HTALQ56sAV9rl5w54RQ2v/em9XNKWk9Bz4bB4vNNHjMTadGHsWr6OOsyOCV8/ZaR3Wsu8En3kJAQZGSkq3jaRjlUr1Ue/x6PzDPOTU09yu5cd3cPREYWZV14NXt2znuVRw8FpBXwuDbLQpgB6dYmcuccknuhAAUo4FwB5VGSAUi/wWPJbAcs9uPW5I6K++jKXN2NjmDYB7JD8j7uGW3pyixzL8sj3jwKegSb9drgI9pK5sLQZODz9fUVix8H4cqVmzsZu3z5QLHoc4zypA++KEABClCAAs4QUPsUEWcck/ugQG4BTQY+Wyuf2WwWA2Ztk7hLtvKMRm+4ublptnWvZM+ee6cABShAgZISaDhgEUbffRhTXp1ntyxLSR2N+6VA/gKaDXxeXgala1e28pnNGSVaf3IpFtm6J7tyU1M57q1EsblzClCAAhSgAAVuuoBmA5+UkDN2/fx8ERcXp/rZukWVlAstBwQE4OrVBPGkDvG8P74oQAEKUIACFKBAKRPQdOCT1iaTCXIyRXx8vNNDnwx7/v7+yuSQqKjiPr+3lF0ZPB0KUIACFKAABUqNgOYDny30GY1GZTKFs7p3bU/USBarFTPslZrrmSdCAQpQgAIUoEA+AroIfLLcsns3MDAQ164lFnsih5ygUa6cj+jCjWU3Ln8tKEABClCAAhQo9QK6CXyyJuREjgoVgpXZtCkpySrW6bPUo+waNhiMopXQjMuXozlBo9Rf3jxBClCAAhSgAAWkgK4Cn63K5Dp9cuydp6cX0tJSlUWaMzLMyMzMzB7nJ8fnubq6ioWU3ZTFlG3vlWMBuc4eL34KUIACFKAABcqSgC4Dn62C5GPYfHx8RaudF+TfXV3d4OLiovw4KytLBEAz0tPlEztSkZiYoPydLwpQgAIUoAAFKFDWBHQd+MpaZfF8KUABClCAAhSggCMCDHyOqHEbClCAAhSgAAUooCMBBj4dVRaLSgEKUIACFKAABRwRYOBzRI3bUIACFKAABShAAR0JMPDpqLJYVApQgAIUoAAFKOCIAAOfI2rchgIUoAAFKEABCuhIgIFPR5XFolKAAhSgAAUoQAFHBBj4HFHjNhSgAAUoQAEKUEBHAgx8OqosFpUCFKAABShAAQo4IsDA54gat6EABShAAQpQgAI6EmDg01FlsagUoAAFKEABClDAEQEGPkfUuA0FKEABClCAAhTQkQADn44qi0WlAAUoQAEKUIACjggw8Dmixm0oQAEKUIACFKCAjgQY+HRUWSwqBShAAQpQgAIUcESAgc8RNW5DAQpQgAIUoAAFdCTAwKejymJRKUABClCAAhSggCMCDHyOqHEbClCAAhSgAAUooCMBBj4dVRaLSgEKUIACFKAABRwRcHrgc6QQ3IYCFKAABShAAQpQoOQEnB744uOvllxpuWcKUIACFKAABShAAdUCDHyqybgBBShAAQpQgAIU0JcAA5++6oulpQAFKEABClCAAqoFGPhUk3EDClCAAhSgAAUooC8BBj591RdLSwEKUIACFKAABVQLMPCpJuMGFKAABShAAQpQQF8CDHz6qi+WlgIUoAAFKEABCqgWYOBTTcYNKEABClCAAhSggL4EGPj0VV8sLQUoQAEKUIACFFAtwMCnmowbUIACFKAABShAAX0JMPDpq75YWgpQgAIUoAAFKKBagIFPNRk3oAAFKEABClCAAvoSYODTV32xtBSgAAUoQAEKUEC1AAOfajJuQAEKUIACFKAABfQlwMCnr/piaSlAAQpQgAIUoIBqAQY+1WTcgAIUoAAFKEABCuhLgIFPX/XF0lKAAhSgAAUoQAHVAgx8qsm4AQUoQAEKUIACFNCXAAOfvuqLpaUABShAAQpQgAKqBXQd+Dw8PODj4wuDwQvy766ubnBxcVEQsrKykJlpRnp6OlJSUpGYmKD8nS8KUIACFKAABShQ1gR0Gfh8fX3h7+8PT08vpKWlIiMjXfwxi4CXKYLef0odurjcJgKgK9zd3cQfj+z3xsfHIyEhoazVM8+XAhSgAAUoQIEyLKCrwOflZUCFCsFwc3MTrXbJ4k+KqqozGAyiNdAIs9mMy5ejkZqqbntVB+ObKUABClCAAhSggEYEdBP4AgODEBgYiGvXEpGcnFQsPqPRG+XK+SA2Nlb8iSnWvrgxBShAAQpQgAIU0LqALgKfyWSC0WhUumLN5gynmLq5uUN2DScnJyMqKsop++ROKEABClCAAhSggBYFNB/4ZNiTXbFy7J1tfJ6zIOU4PzkWUHYNM/Q5S5X7oQAFKEABClBAawKaDnyyG9fPzxdxcXFOD3u2ipChLyAgAFevJrB7V2tXJ8tDAQpQgAIUoIBTBDQb+OQEjZCQEFy5Euu0btyCxGT3bvnygYiMjOREDqdcVtwJBShAAQpQgAJaEtBs4JNhT86mLe4EjaJiy4kccvavDH18UYACFKAABShAgdIkoMnAJydTBAUFKa17N/MlW/liYmK4Tt/NROexKEABClCAAhQocQFNBj7ZuicXU1a7zl5xteTkELlIM1v5iivJ7SlAAQpQgAIU0JKA5gKffERalSpVER196ZY4BQdXxLlzZ/kYtluiz4NSgAIUoAAFKFASApoLfHJmrre3XHPvakmcb6H79PX1Q1JSsj5n7BoboHN4KI5HrMLvyYWeKt9AAQpQwLkC/nfi/sZNEGa8iB/37sfJSw48zYj3MefWCfdGAauA5gJf5cqVxTNxzUXrzq3bFWNfvg9+N6zOq/jt08lYcaRodS67dV1d3XD+/PmibXAL32Vq0hGtfY/isy1/WUrx1GRsGBiGw++3x+iNt7BgPDQFKFDGBAxoOmAOhrWpjNuSU2CGOww+boje/QHGTNwMy1Q4E5p0agXfoxHYcvgGPLyPlbFrh6d7swQ0F/iqV69e9Cdq3N0D777+APzNaUhKM8PN0xueboIux//H45cPR2HJn0UjtT2B4/Tp00Xb4Ba+68GRn2OS6Vu0GPTFLSwFD00BCpR5gcfGYvWIUByc2h9Tdlp6Z4wN+uK9yW2QsKQLhq+RLX2NMXLFRJg2tsKgz8u8GAEocNMFNBf4QkNriZmy0UVbaLlqB4x983G47Z2NcStOos2wD9GuujA8/Q1em7EZNbuOw5AmZnw3awpWny2arVyIOSgoGCdOHC/aBjd6l38j9Bz4Ih6uWwG4fBQ/Ln0fS/bbuqoNCG3XBz1bhqGG/PGRX7F6yUL8YF0V5vF+M9A0JgLfeD6Hvk/cA++kYzjwbQQWfXMCsrdW/rzDQ7VRy/MyDokxh/s/mowv0QVjXw3FCfn3Y5aCGUOfQp+ebXFfHSOSjh3Et0sW4ZsTlm6WOs+PwatBe/D+6foY0KEx7sQ/OLj1C8xd+btyDL4oQAEKFEUguNd8fNE8EmO7TsNPdhuEtQ7HXQlbsWrvXeg3qwMeqh0Kz0uHcO7sr/ho0leAcg/6BcsSH1Tuc1c2dMSow/b3scfEdk0Rs2QjPDv0wRP1xX3sj31YYXevlIfzb9QTA19qCnmr/eenNZj7R3UMbBqjHMN6KyzKafA9FCjVApoLfLVq1cbly4492zZ34HO05ipUMOH48b8d3dyynakLZi58CTUv/4SteyORUvF+tG8WhAOzX8bEbSkIG/ApZrbxxtGta7HrLFCrRVc85vsjxr84U7lhdpuzFR2DLiEt7QR+2C22D7gHbVrVwL/LBopvx+cgb6St2rYTXbpH8Pn3h3B8y2rsrToCKybdgz/GdsNUuZMHB2PpuEeRsW8zdkemwhDSFK2beOHH8S9hhvi50kJYPxNnEk/goCgj5M8fqYBj87tixHoHxt4UT4xbU4ACehWQLXyj7sHpJePwzhdHEJ/nPOqhdY+WaPtMa/ge/gLfHzqBLav2oqq8B93vgYspf+PgjhM4+qvo7i1nfx97AXO2P4egi4mIPrgTf8QFoH6blrgraTOG9pwH2TNsbDoCi8c+hLS9lvtcQP1WuDc4C5VcD+UJoHrlZbkp4AwBBr58FJ0R+MIGf4bZDX7H4PA5yk1Jvh7sNRnPuW/D8AW74B/yPzSudg5bfzhnDYivYuGyR3BqpAhjv1kCX4/KezHjpQnYZm1uC+m9AItb/otpHSfhe7m/3F26D9rfKA1iH2vQNf1jdB6+1tpiZ0DLCUsxJHgzerz+qeVm2/g03+eyLAAAIABJREFUZncbi03KMazbpC3CUyM2OOP64j4oQIEyIWBAg/AJGPl8ffhnJiH6/O84sHUzlqzbbxf+8nbpKvewHPcgeWPLHfjCUW5tb/RaYL1XKj+vjX39X8bcYya88uGneDJ6Nl4at916n7P82/MBPzDwlYlrjydZVAHNBT5VXbq5ztIZLXzO6tLtvXArHjoyAD3nFtxSaKxYE42aNEW1qlVwd/UaqFnHDfusrXMy8HXP+hStB4tuD9vLJEPhQzii3OgKC3wtMGHdYPh+2Qb2u0D7d7GxF/DxU28hSmnhy/ktmOMCi/qrw/dRgAJ5BfwQ8uhj6NCsFRo1qoKAawfw8fAxWKMMVSkg8OW6B+UX+PCZ/bg/2erXFlHKvVLe5/rDK+Jp0Sthd6sUX46XPXaWgY+XKAXsBDQX+FRN2iiBwOesSRvDlm9FjV3h6Ls4v+5pMaNt2AKMaV4ecWf/xsWLF/DnIXc88HoDRNoFvo5XZ+JZ8a31+sv+RldY4OuC2VvaI2ZSV0zZY7eLpm9h5fgK2NBisGhNZODj3YACFCghAWNTjP7kbdx79F10nLizhAKfvM91QsJ7HTFu2/XzMIbPxYbWFxj4SqhquVt9Cmgu8KlaliXbvBxM1YLx8PPD0DxE/GPkd5j+5W5En7mEayrrxVnLsrSf9jV6uXxm150qxpqIFr0Qz2gci2yGaRtfgUv27DVRSKX1rhnO2gW+Hl6r0b3vR8iOjC3HYd0QX3zZ+k3Idr8bd+nWxoAlc3HvwZytjCb5zfd/pzBSjBV0Z+BTeXXw7RSgQH4CchLZE6mrMerjn3P8WN4H+3p8bu2pKIkWPst9ruGhNxE+2zZ4xoAO079C3zv3MPDxcqWAllv4HFp4ueUQfPhsTbjkqNosnFz3BmbZfesrSs07a+FlowhnS4fUuL5MQciTmDxtEO78Rd6YvMXyBONQdddADFkgZ91WQZsJkzCgiSt22ge+ein4a/kwjIoQ7/FvhtEfDMcDFxahqxhfJ4fcKYGv5j68PuADnFD+IeekDWXMX9tUrBg6ChFiZq4xtDvemdkVfjuGi67mw9ZJG+zSLcp1wfdQgAIFC5he+QCfdfLFz/MnYZqykoAf6j03CG/1boiYZb3FRDP5tdUS+Gru7YcB8yyrDVgmjuWaXJHPGL6Cu3Tl/LhZWNQzGEeWfoyIA5dR8bF+eK11ZQQm72Pg40VLAS0HPocereZVC/9rUTvXAszxOL59N/5OVVffznu0mhjE3PsdjH22LrzFMqQQ6wMmHVmPSW99pDwFI6TDZEzv1UgMcE6F2c0NV3b8iKtiiZYL9oHPdSe2+T2M5uUzkSUWGEw7sxkzBs3DHtuaKSEvYPbcFxHmbcaB+WIMS1SuWboySI4chd7NqsIzS6xT6JKJC3sX4G3rQqj53Ww5hk/d9cJ3U4ACUkDea0bglUdrwFeuhSpf5gSc2jYfI2fvzJ64EdJtFuZ2D4O3+QDmFzCOWN0YPnkgscRV52EY2eEeBLiL++zpDZj1532Y0TqKgY8XJwW0HPhk2UJCQpCRkV60p204sTpld667uwciI62L4Tll32IQc51KQNQxROZZq6DgnymzdBGhLKrsH1IHQWnnHHtMkTwHY0XUDPFBYuRJXOICe06pVe6EAhTIT8ByTzOa4xB58tJNWs/TAKMxBcl29zb7oSti0QO+KEABIaC5MXyyVnx9fcXix0G4ciX2plZS+fKBYtHnGOVJH7f6ZR/4bnVZeHwKUIACWhWoP2gJpt5/Fh+9Owdr/0pHxfrt8ebYHqh+yDZZRKslZ7kocHMFNBn4bK18ZrNZfGtLuikiRqM33ETXqnNb9xwvesd3VuMFrMBzo9Y4vhNuSQEKUKC0CxgbIHx0Pzx9351Kd3JmWjwu7F+DqTNWWsY280UBCigCmg18Xl4GpWtXtvKZzRklWl1yKRbZuifDXmoqnzBRotjcOQUoQAEKUIACN11As4FPSsgZu35+voiLiyvas3Ud4JMLLQcEBODq1QTExsY4sAduQgEKUIACFKAABbQtoOnAJ+lMJhPkZIr4+Hinhz4Z9vz9/ZXJIVFRjj2/V9vVy9JRgAIUoAAFKEABDXfp2leODH1Go1GZTOGs7l3bEzWSxdQuhj3+KlCAAhSgAAUoUJoFNN/CZ8OX3buBgYG4di2x2BM55ASNcuV8RBduLLtxS/PVzXOjAAUoQAEKUEAR0E3gk4WVEzkqVAhWZtOmpCSrXqdPdg0bDEbRSmjG5cvRnKDBXwIKUIACFKAABcqEgK4Cn61G5Dp9cuydp6cX0tJSlUWaMzLMyMwUT6TI+s+SZMX4PFdXV7GQspuymLLtvXIsoBbW2SsTVxdPkgIUoAAFKEABTQjoMvDZ5ORj2Hx8fEWrnRfk311d3UTQszxRNysrSwRAM9LT5RM7UpGYmKD8nS8KUIACFKAABShQ1gR0HfjKWmXxfClAAQpQgAIUoIAjAgx8jqhxGwpQgAIUoAAFKKAjAQY+HVUWi0oBClCAAhSgAAUcEWDgc0SN21CAAhSgAAUoQAEdCTDw6aiyWFQKUIACFKAABSjgiAADnyNq3IYCFKAABShAAQroSICBT0eVxaJSgAIUoAAFKEABRwQY+BxR4zYUoAAFKEABClBARwIMfDqqLBaVAhSgAAUoQAEKOCLAwOeIGrehAAUoQAEKUIACOhJg4NNRZbGoFKAABShAAQpQwBEBBj5H1LgNBShAAQpQgAIU0JEAA5+OKotFpQAFKEABClCAAo4IMPA5osZtKEABClCAAhSggI4EGPh0VFksKgUoQAEKUIACFHBEgIHPETVuQwEKUIACFKAABXQkwMCno8piUSlAAQpQgAIUoIAjAgx8jqhxGwpQgAIUoAAFKKAjAQY+HVUWi0oBClCAAhSgAAUcEXB64HOkENyGAhSgAAUoQAEKUKDkBJwe+OLjr5ZcablnClCAAhSgAAUoQAHVAgx8qsm4AQUoQAEKUIACFNCXAAOfvuqLpaUABShAAQpQgAKqBRj4VJNxAwpQgAIUoAAFKKAvAQY+fdUXS0sBClCAAhSgAAVUCzDwqSbjBhSgAAUoQAEKUEBfAgx8+qovlpYCFKAABShAAQqoFmDgU03GDShAAQpQgAIUoIC+BBj49FVfLC0FKEABClCAAhRQLcDAp5qMG1CAAhSgAAUoQAF9CTDw6au+WFoKUIACFKAABSigWoCBTzUZN6AABShAAQpQgAL6EmDg01d9sbQUoAAFKEABClBAtQADn2oybkABClCAAhSgAAX0JcDAp6/6YmkpQAEKUIACFKCAagEGPtVk3IACFKAABShAAQroS4CBT1/1xdJSgAIUoAAFKEAB1QIMfKrJuAEFKEABClCAAhTQlwADn77qi6WlAAUoQAEKUIACqgV0Hfg8PDzg4+MLg8EL8u+urm5wcXFRELKyspCZaUZ6ejpSUlKRmJig/J0vClCAAhSgAAUoUNYEdBn4fH194e/vD09PL6SlpSIjI138MYuAlymC3n9KHbq43CYCoCvc3d3EH4/s98bHxyMhIaGs1TPPlwIUoAAFKECBMiygq8Dn5WVAhQrBcHNzE612yeJPiqqqMxgMojXQCLPZjMuXo5Gaqm57VQfjmylAAQpQgAIUoIBGBHQT+AIDgxAYGIhr1xKRnJxULD6j0RvlyvkgNjZW/Ikp1r64MQUoQAEKUIACFNC6gC4Cn8lkgtFoVLpizeYMp5i6ublDdg0nJycjKirKKfvkTihAAQpQgAIUoIAWBTQf+GTYk12xcuydbXyesyDlOD85FlB2DTP0OUuV+6EABShAAQpQQGsCmg58shvXz88XcXFxTg97toqQoS8gIABXryawe1drVyfLQwEKUIACFKCAUwQ0G/jkBI2QkBBcuRLrtG7cgsRk92758oGIjIzkRA6nXFbcCQUoQAEKUIACWhLQbOCTYU/Opi3uBI2iYsuJHHL2rwx9fFGAAhSgAAUoQIHSJKDJwCcnUwQFBSmtezfzJVv5YmJiuE7fzUTnsShAAQpQgAIUKHEBTQY+2bonF1NWu85ecbXk5BC5SDNb+Yorye0pQAEKUIACFNCSgOYCn3xEWpUqVREdfemWOAUHV8S5c2f5GLZbos+DUoACFKAABShQEgKaC3xyZq63t1xz72pJnG+h+/T19UNSUjJn7BYqxTdQgAIUyCXgfyfub9wEYcaL+HHvfpy85MDTjIwN0Dk8FMcjVuH35JIRrvP8GLzayE/Zefz+j7EnqBfaVrMc68y3w/DBdyVzXO6VArdSQHOBr3LlyuKZuOaidefW7YqxL98Hy69tQa+r+O3TyVhxpGjMslvX1dUN58+fL9oGBb7LhCadWsH3aAS2HC7mrrg5BShAAU0LGNB0wBwMa1MZtyWnwAx3GHzcEL37A4yZuBmWqXBFvCc+NRkbBobh8PvtMXpjyZz0gyM/x6S7TuHz708h6fhWHPVthftN5dHwmdbIXN0Kgz4vmeNyrxS4lQKaC3zVq1cv+hM17u6Bd19/AP7mNCSlmeHm6Q1PN8GZ4//j8cuHo7Dkz6Ix257Acfr06aJtUOC7GmPkiokwbeTNo5iQ3JwCFNC6wGNjsXpEKA5O7Y8pOy29M8YGffHe5DZIWNIFw9fIlj7t3BOVwGf6Fi0GfWEnq53yab26WT59Cmgu8IWG1hIzZaOLttBy1Q4Y++bjcNs7G+NWnESbYR+iXXVREae/wWszNqNm13EY0sSM72ZNweqzRasguRBzUFAwTpw4XrQNCnhXv1kf4KHaofC8dAjnzv6KjyZ9hWPivf6NemLg8w+gZjUjko4dwXcr52Ll79e7PYyhT6FPz7a4r474+R//h4Vr0tGuZxD2vDkfSi+DfyO80LcTmt9bHR5xx3Dg648we9O5YpWVG1OAAhQojkBwr/n4onkkxnadhp/sdhTWOhx3JWzFqr13od+sDnnuiZBdq0G/YFnig+j7xD24sqEjRh3ugrGvhuLER5Px5bHHxHZNEbNkIzw79MET9eV9cR9WLFmIH+xW0FLuqy81Rd0KwD8/rcHcP6pjYNOY7Ptu7nNj4CtObXNbvQpoLvDVqlUbly879mzb3IHP0UqpUMGE48f/dnRzZbvWPQajrege8D38Bb4/dAJbVu1FQvt3seKNuxCzezM2/nkJpgeewzN1o7Gkz5v4Sp5yyAuYM+9F3H56Gzb9EQdDSFM8WssLnhVjsbrFYHyOMAxYMh3N/9uH9St/wL/Vn8ErTwfjwOQ+mLrHgbEyxTpDbkwBClDAKiBb+Ebdg9NLxuGdL44gPg9MPXFPbJnnnlhVtrTd74GLKX/j4I4TOPqrGAJTbgRWTLoHf4zthqk/iXvi9ucQdDER0Qd34o+4ANRv0xJ3JW3G0J7zIEfLGJuOwOKxDyFt72bsjkxFQP1WuDc4C5VcD+UJoLZiMfDxyi2LAgx8+dS6MwJfft0Xxor18UiYC3bv+B2WscgtMGHdYPh+2QaDvwIee3sVRty+Db37fmQd82L5t1GPnMdnSuCTN792iB7fFVP2WAoe1uh/SDixC5F577Bl8XrmOVOAArdEwIAG4RMw8vn68M9MQvT533Fg62YsWbffLvzl7TJVglfj05jdbSw22SZoPJg78IWj3Nre6LXA2pOh/Lw29vV/GXOPmfDKh5/iyejZeGncdut91fJvzwf8wMB3S64FHlSrApoLfKq6dHOpOqOFz1ldugWOV7HNYqteFbVqVkfNelXx7zI5zs+E3gsj8NCRAeg51651seU4rBvmn6OFr03AJfz2wxbs2r0XP//6Tz7fprV6ubFcFKBA6RbwQ8ijj6FDs1Zo1KgKAq4dwMfDx2CN0v1aQOCrn6slLp/Ah8/sx0LLL75tEaW0AMovzf3hFfE0Rqy/LmvqvQDLHjvLwFe6LzaenUoBzQU+VZM2SiDwleSkjZBuszC3ex1kXjiJs5f+xclDMQh5rjMMG+TNrCGGLX8HNXaFo+9iuy7tpm9h5fgK2KC08ImXMRTNuzyH5o3rom7lYHiZj2LZgDfxOZ8Ip/LS59spQIESFTA2xehP3sa9R99Fx4k7SyjwdcHsLZ2Q8F5HjNt2/WyM4XOxofUFBr4SrWDuXG8Cmgt8qpZlydYuB1O1YDz8/DA0DxH/GPkdpn+5G9FnLuGayhpx3rIsub/N1hbj7+ai4aE3ET7btk6L/HY6FH7WZQDaT/savVw+Q+fha61dE6LLdvBnmN0mztqlKwOfAUax7IGl96MKXvt4MdrGfoinRmxQeaZ8OwUoQAHnCDzebwaeSF2NUR//nGOH8p7W1+NztJZjVkqkhS+/+6oBHaZ/hb537mHgc071ci+lREBzgc+hhZdbDsGHz9aES45KycLJdW9glt23vqLUmfMWXrYEvpp7+2HAvBMioBnQbc4aPHttHnqN2Sy6YcWYl94zMKFTKM7YuiseHIrl4x9GwtYP8elm0WRXtwsGvHQvynufwQrZwvfQSHw5ri7+tC194N8MYxe8hbp/vI2uU3PeaItyrnwPBShAAWcImF75AJ918sXP8ydh2jfyfueHes8Nwlu9GyJmWW/RgyF7LXLfEwFlDF+xunTF6n5dZmFRz2AcWfoxIg5cRsXH+uG11pURmLyPgc8Zlct9lBoBzQU+hx6t5lUL/2tRO9cCzPE4vn03/k5VV1fOfLSapQs3DN7mA5j/1FvY1rQ/5gx7EtU8M5AiFib979gPOGx6HOXs1urzb/YaJr7SHJW9gYzL+xHxNdB9sAkblS5d2+Kmd8ItNQOu3u5IO7MZMwbNw54SWpFenR7fTQEKlE2BKmgzcgReebQGfOVaqPJlTsCpbfMxcvbO7HHGue+JUU4IfBD3xdDOwzCywz0IcAeSTm/ArD/vw4zWUQx8ZfNi5FkXIKC5wCfLGRISgoyM9KI9bcOJVSu7c93dPRAZWZID4gyoWLMKfBLP5fvYIaPosk0WXbbZLzlpY4gvvmwtlm6x/aOxImqGBCA96hhn5zqx/rkrClCguAJi0kadSjCa4xB58lL20JTi7vXG24thLkYxzMXuS68yaeN/pzDyxZn4LZ+NuSxLydYI965NAU0GPl9fX7H4cRCuXIm9qWrlyweKRZ9jlCd93IpX8HNT8VF4OWydNgkRey/BI6QVXp3wBpqnrEeP1z+FY6sT3ooz4TEpQAEK3ByB+oOWYOr9Z/HRu3Ow9q90VKzfHm+O7YHqh2yTRfKWQwl8zYOUH8TseBsbTRPRo57lfX/lmBF8c86BR6HAzRDQZOCTJy5b+cxms/jWlnQzHMQ3RG+4ubmVcOteYaciukUGD8aLzWsh2NNVdImkIurEFnzy9gLs5Dp7heHx5xSgQFkUMDZA+Oh+ePq+O5Xu5My0eFzYvwZTZ6zECQ51KYtXBM+5AAHNBj4vL4MS+mQrn9mcUaIVKJdika17sis3NZVPrChRbO6cAhSgAAUoQIGbLqDZwCcl5IxdPz9fxMXFFe3Zug7wyYWWAwICcPVqAmJjYxzYAzehAAUoQAEKUIAC2hbQdOCTdCaTCXIyRXx8vNNDnwx7/v7+yuSQqCiOkNP2pcrSUYACFKAABSjgqIDmA58t9BmNRmUyhbO6d21P1EgWU7sY9hy9fLgdBShAAQpQgAJ6ENBF4JOQsns3MDAQ164lFnsih5ygUa6cj+jCjWU3rh6uUpaRAhSgAAUoQIFiCegm8MmzlBM5KlQIVmbTpqQkq16nT3YNGwxGZfbv5cvRnKBRrEuHG1OAAhSgAAUooBcBXQU+G6pcp0+OvfP09EJaWqqySHNGhhmZmZnZ4/zk+DxXV1exkLKbspiy7b1yLOCtWmdPLxcFy0kBClCAAhSgQOkS0GXgs1WBfAybj4+vaLXzgvy7q6sbXFwsT9TNysoSAdCM9HT5xI5UJCYmKH/niwIUoAAFKEABCpQ1AV0HvrJWWTxfClCAAhSgAAUo4IgAA58jatyGAhSgAAUoQAEK6EiAgU9HlcWiUoACFKAABShAAUcEGPgcUeM2FKAABShAAQpQQEcCDHw6qiwWlQIUoAAFKEABCjgiwMDniBq3oQAFKEABClCAAjoSYODTUWWxqBSgAAUoQAEKUMARAQY+R9S4DQUoQAEKUIACFNCRAAOfjiqLRaUABShAAQpQgAKOCDDwOaLGbShAAQpQgAIUoICOBBj4dFRZLCoFKEABClCAAhRwRICBzxE1bkMBClCAAhSgAAV0JMDAp6PKYlEpQAEKUIACFKCAIwIMfI6ocRsKUIACFKAABSigIwEGPh1VFotKAQpQgAIUoAAFHBFg4HNEjdtQgAIUoAAFKEABHQkw8OmoslhUClCAAhSgAAUo4IgAA58jatyGAhSgAAUoQAEK6EiAgU9HlcWiUoACFKAABShAAUcEnB74HCkEt6EABShAAQpQgAIUKDkBpwe++PirJVda7pkCFKAABShAAQpQQLUAA59qMm5AAQpQgAIUoAAF9CXAwKev+mJpKUABClCAAv/f3r3A11g/fgD/aPczu9ntrJgZY/oto9IFpUlIKlpuKbOSLn/XJFISCiVNSlR+zSVUQkqICj+3ynUSQrMN2dWudrGz/J/vOTuzMZznOWfb8zif83p5vWZ7vs/5Pu/vs2ef8/0+3+9DAQrIFmDgk03GAhSgAAUoQAEKUEBbAgx82mov1pYCFKAABShAAQrIFmDgk03GAhSgAAUoQAEKUEBbAgx82mov1pYCFKAABShAAQrIFmDgk03GAhSgAAUoQAEKUEBbAgx82mov1pYCFKAABShAAQrIFmDgk03GAhSgAAUoQAEKUEBbAgx82mov1pYCFKAABShAAQrIFmDgk03GAhSgAAUoQAEKUEBbAgx82mov1pYCFKAABShAAQrIFmDgk03GAhSgAAUoQAEKUEBbAgx82mov1pYCFKAABShAAQrIFmDgk03GAhSgAAUoQAEKUEBbAgx82mov1pYCFKAABShAAQrIFmDgk03GAhSgAAUoQAEKUEBbAgx82mov1pYCFKAABShAAQrIFtB04HN2doaHhyfc3FwhvnZwcES9evWMCBcuXEBZmQHnz59HUVEx8vPzjF/zRQEKUIACFKAABexNQJOBz9PTE97e3nBxcUVJSTFKS89L/wxSwCuTgt6/xjasV+8GKQA6wMnJUfrnXLFtTk4O8vLy7K2debwU0JyAo6MjfH19pQ90Oul32Kniw5zmDkRGhcUH1dLSUulDaiGysrJgMBhklOamFKAABa4soKnA5+rqhoAAf4g/BOKCWFRUJKtt3dzcjH88xEU0PT0DxcXyyst6M25MAQooEvDw8JCCnp+x197eX2JUIisrUxqhyLd3Ch4/BShgpYBmAp/4AyA+7RcU5KOw8JxVh63TuaN+fQ/jJ2hxMeWLAhRQh0BwcGO4urqqozIqqkVxcTFSUpJVVCNWhQIU0JqAJgKfXq+HTqczDsUaDKU2MXZ0dIIYGi4sLERqaqpN9smdUIACygREr55eH2QXw7bKhEz3JaemnmFvn1JAlqOAnQuoPvCJsCeGYsW9d+b782zVZuI+P3EvoBgaZuizlSr3QwF5AuJ3MCAgUF4hO946PT3NeD3kiwIUoIAcAVUHPjGM6+XliezsbJuHPTOSCH0+Pj7Izc3j8K6cM4fbUsAGAqJnLyjoRhvsyb52cebMP+zps68m59FSwGoB1QY+MUEjODgYZ8+KmWq2Gca9kpYY3m3QwFe6RyaFEzmsPqW4AwpYLhAW1pzDuJZzVWwphnePHTuqoCSLUIAC9iqg2sAnwp6YTWvtBA1LG1ZM5BCzf0Xo44sCFKh5AU7QsM6YEzms82NpCtibgCoDn5hM4efnZ+zdq82X6OXLzMzkOn21ic73sksBDuXaptk5tGsbR+6FAvYgoMrAJ3r3xGLKctfZs7bBxOQQsUgze/mslWR5ClxdICSkCdfZs8FJItbpS0o6YYM9cRcUoMD1LqC6wCcWW23cOAQZGWl1Yu/vH4jk5CQ+hq1O9Pmm9iAgbp0IDW1qD4daK8eYmPg3n8hRK9J8EwpoW0B1gU/MzHV3F2vu5SqWdW10L6L7d0abBmU4/cdP+HLJdpyxcG+enl44d0481si6BZl1rXsjpvkxLPx6PwotfO9a3cy7EcL1QOqRk7h0gQddYDMEu2TgSIpoAzcENmsMH8dKtSs8U/4z8/dM23jkJ+N4Gp9eUqvtqME3CwwMlGbfe8usuQ7+DX3gUqmUoSADqTm1+3xslybtEHXjP9i0PQklMo/gyps7w1vvD6f808hQsKZ8bm4O0tLq5gNyxTFZfD2pTsELweFB4mKEFK42Y7OzijuiwKUCqgt8DRs2lJ6Ja1A8nOvauh9eibkX+gsZSMpyRqOGXjAc/hqvzt6MYgvaXwzrOjg44tSpUxZsfeVNerz9LUZEHMQHj76ONVbtqYYKD4jDxkHAggdGYcklb3HXuCWYov8BD4xcKv3kToxbNhn3+1XdyJB3CKumjMen+0XAM20TmfAG+k//rYYqzN1eLwLKhnPvweBJUWhUBUF67uzZI1i3dDn2ZNSOzu1PjsPDwSn4fupS7LbZWzZH9Oh+8Nk9GfO3yN+pKoZ1Lb6eVHd8T2DWxhjpYtQVIy+9GMnnYAkKUOAKAqoLfKGhoVY8UaMlBr41DG3Ob8eS95dgdwHQbMBkjG6fg1Uvvo8NFpwG5idwJCYmWrC1hjex+AJdTZjTheHh8W9ieNMDmND/HfzKwKfhE6H2q65sKRZT4MMvlUKRezM8NLAP2pRuxUfzt17WU137R6b0Ha0LfKpYosXi6wkDn9KzhOUoYK2A6gKf+GOQmZkhf6Fl1wZoFOQFFwcDUo+fhJT1pJcrWj/zBp67LdPiwCcWYvbz87d6javwfq/j2bBj+GzKVzgS3hcTnvXDb/OS8Z9hvXGPTyESfvoEM5YDPYY/ga5tAlF6aDP++0E8dpmHNESoei4GXSK6yB19AAAgAElEQVSaIgDpOLR7JeLnbsHFRWO80DZ2BAZ2aCn9/CR+XTEHCaFD0T5zPqZ8+ZfpvPBui9gRT6LDzQFA+mFsW/QB4neVD5VbfIG+Qu/dbS/ji+mtkDBuIGbsYQ+ftb+I9lS+efMWCg63msAn9tJhEN7sDPz05gJsE/+XQmDnHh0R3sgLyD2JI5t+wE/HK91U4RKEVp06oH14CFyLk5Cw/jeU3hEFj8MLsfYA0Kp7DG7DXsSv/aO8jjfhnr6dK35+0z290UUa0t3w1Xacvqk9+nbxwF+bi9Gi2y1oUrAb0xfvlMrp0KzzQ4gKbwQv5OLkkS1Y89NxVIzWXlaHP+DzWB/FPXyiokePlv/OK5C1SRGLrydRGDqzPTJX7kFQr2jc5ZWAd5/NwlPs4bNJM3AnFLiagOoCn/hjkJ4u79m2Yhh3zMB7cKNbPelYL6Do6Gq8HbcBzt1fxisPh8JwYBEmzP3VoiFdgRUQoLf6AmocFo0s7wG7ayyWTWmFshNn8ceO3UgLbItenQORe7oAWQmbkZDtg8juXRD2zxcYLA2jpiICw+PfRXf3w/hx5VYkIQwP9I+C57ZJeHKGGDJ1Q/txn2DC3cXYsX47Uoqk8t1aw/9CEBzMw6r6vnhv3kAEn9iItQnZcAtuh653e2Jv3NOYvEEahrX4An2FMGc8phbYOexpzD7CwMfLjOUCtgx8Lh1j8eo957HurSX4zbsdYl+Ign/aAexOKoCzfwu0aaFD4ncf4av94l4/f3Qc/AyiGqRi7+5kFDj74eaIG+Hk6IX8naaew46D30AnbMJEqcfQ9Kra+9Y8ehQGhCRhycxVONq8F0YPaArH7BKcTjyIf079jV/25qND7BB08k/D/vL3aNmmOXSJazD7qwTpvr9r18FyyYtbaifwieHbx9Aw+zzS9m7Brr//wPrlIRjHwKek2VmGArIENB/4XFsPwutD7kCDswfwzdIfkRPcEe0CT2LT2TYY3D0USPwe785YZ/GkjZoLfG1xdMbjmGgcV3ZDzIffonfhx+gxdrWpwfrOxPp+eXi/1yRp6Fm6ibnjnWhyYgO2lHfp6YfMxeJ7/8a4J9/DHv3T+HjBg8h4f6C0v/JJEsbv9YXPZtN9dBGjFuC9Ftsx5PnPKnoFjd8L+x8Gvfg5UpUGPl0gmt0ciYeffhFd3X7Gy7Ef4iCHdGX90tn7xjYJfO5+aBjSElFd7kOjrB8xc9Hv0D8yDLE3HcGcuRthvqWvsfjejYcwa97PyLmlN8ZG+2DfnE+xoXwDl9Z9MbJXC2SVDxXLD3xhSP1uFpbsKZ880vhhjIgNwuFK7wHj9/T4c9Zn+KnRteug5PzQVuCLQf2VQzB4bnL5ofIePiVtzjIUkCugusAnZ0j3Ytj7HZ++dQBtJz+DWwynkXTOA03EZA0FYc9WQ7rV9fAlTBiA6b+ammjArB/RI7XSJAdjj5keayomUYiZr23RrkMThDSOQGizMIQ77jTdM9dlIlYNd8XCHq/i24oW12PIvIWIShL7TDZ+fX/Bt1h3sNJwVtMoDIg4gRkiVMoMfJdO2ihM+QWfTHoHa42BlD18cn/x7Hl7awLfpZM2ziVvxfIlm3GixAddXhiGVsW/Y29ypfmzQRHo2Cgdq6Z/haQuQzAq/BQ+nb0WpysaIBL9xz0Kd8U9fCFIWhKHFeVPOfMW79GqGL/uPVlpFm8gbukYjPRV72JdwLXroOTc0FrgqzpBg4FPSZuzDAXkCqgu8Fk+aeMWxE57AW3LRNhbgP3SFNygDgPwlDS0GeBahPR9P2KxjOVYzHC2mrRhVeDTtceYeeNxf4NsJP11BmdOHcQBp7Z4sc1JU+Cr0htorrmp17DbaRH4DBjzxVTcWXIAyZctc5CEH0bPwS9XCXxdJn2DMV4rq8zSvTgD1zTcfH/6J+gv9U6a4iQDn9xfPHve3iaTNlzuwMDRXeF9YCFmrxGfOkLRa9STaF6ajPTLljZJw5749SjsNQJP6Q8hTuoBvPhrEY7eY/rA63elQ7pVA18z8R7NS5F0eSWQtmchjja9dh3knhtqn7RR9XpSXbhj4JPb5tyeAkoEVBf4LF+W5UGMmfswblj7Et753rTgSv3b++CJsBSsWPYrlD6UzVbLslgV+HpOw5rBDojv8wpWlHfQGYd0o5JMgS98GOI/vA0HRg1C3MHyZtc9hne/fg6Ntpl6DfvGrUW/vDj0mrix+vPCOOniThyd2huTN1XeJAKjFs7EHYfNvY+Xhzmd1MO4aExz7K7osWTgU/LLZ69lrFmWpfIsXX+pN+3/7ijFpo/isUVKcB2enoAORd9h+rKE6mnFBI/7Sk33+5m38H4AL4y6G6XlQ7qt+7+CXu47K93DVzUQXn4PX9XAZ5xE0qEI30o9ivurq4UFdZB7XqhiWRaLrycMfHLbl9tTwFYCqgt8li+8fDuGzHgaETlb8MkHP6Donlg8/3A4HI+ZJmwoDXy2WnjZqsAnhnffDMH/hr2Euceke/SCH8SkqcPQzmFL+TIoeinQzUOs/59Y9Nli7E0LQNTw59HtJl8U7jQFNWMoe6kp9k0fhrc3SzNzpVm/MVNnoPeFZYgZ9ZXk01ga9p2LxxokYNGk6Vj6p7SN9814bNQ4DLnTgLUvS5MxjGGyujBXXharyu8RZOCz1S+kPexH2cLL1czSdZGGY0c+iuCU1ZglQp64H6+nHonffIbl4lYGaTZsp6di0O7frfjg8+3IL+8V9D22Ep8u/xPnjD8fiHsbuuDUJlMPn3fnZzHyrnrY9eUX+OGML+56pBe6tPDGP+U/v2bgM9bpEegTy98DzgjqNACx7S5g6wcLsPW8qWfyanWQew6oYuFli68nDHxy25fbU8BWAqoLfHIerRbU4Xn83xOt4Csm54rZucfXYMZMeRM0LoW01aPVrAp80sUz+u1pGHyHN8qKDHB0Oouft+VJS7ScLg98Uq2lANdnzFhER3rDSVrwIXF1HP5o8w66VdwX6IbWMZMwrl8kvMtKcMHFEWUZ0nIT417HCvPaLrrWiJn8CvpF+sL8IA1D3t/Y8OGriBMh0fi62izdu5Eypz/Gftuq2sWZgUz8XOm+RVudtNyPtgWUPVqt+mVZvKVZukOjdNgfPwdrkp3RpFM/RHcIQf1/DfjXyQH/Sufzz4uWYqd5kkbL7hjc8zYEOJWh9IZ6KEiQllcJvRde5kWPXcLRY/CjuD3ABfVQhuz9VX9+zcAnNY1Lk/vwRHR7hNSXFob+1xGO/+bi+M9L8UV5JVyuVQeZzauaR6tZdD1h4JPZvNycAjYTUF3gE0cWHByM0tLzlj1to34o7m7fDDixG/uOnrV46ZXqBMVwrpOTM1JSLq52ZzNpJTu6yuOKoHODrrCo0mPbTJM27v17vLR0y55K72Z6bJFz9lUeeyZm3gb7AFfbRkn9WYYCVxBQNqxrKafpMWwOV3z0mulRZq7F4tFsIVY95eJqNXL3vwk+DgXISM2t5jFsleug/PFwqhjOvRSB1xNLT1RuR4FaFVBl4PP09JQWP/bD2bNKB2aVGTZo4Cst+pxpfNKHul+RGLlwKm5Pmo9pcavw5/lARPYcjQmxTXDgsnvy1H0krJ19Cnh4eCAo6EYVHLx1T7mo6wM4c+Yf5Ofn13U1+P4UoIAGBFQZ+My9fAaDAYWFCp4mrgBep3OHGGpSTe/eNY5B1/opvDbsEdwa7CkNx5ahJPsf7PrmHcz4+lilXj8FECxCgVoSCA5uDFdX11p6tyu9TSh6vBgNn/0zsHhHHVdF5tsXFxdL1yvzWnYyC3NzClDA7gRUG/hcXd2MQ7uil89gKK3RhhFLsYjePRH2iovLFzKu0XfkzilAASGgbIkW2qliKRY2AwUooCkB1QY+oShm7Hp5eSI7O1v+s3UtbAax0LKPjw9yc/OQlZVpYSluRgEK2EJAPUO7tjia2tsHh3Jrz5rvRIHrRUDVgU8g6/V6iMkUOTk5Ng99Iux5e3sbJ4ekpsp7fu/1cgLwOChQ1wLidzAgILCuq6GZ909PTzNeD/miAAUoIEdA9YHPHPp0Op1xMoWthnfNT9QoLCxk2JNzxnBbCtSAgOjp0+uDUK+ecY0lvqoREMO4qalnOEmDZwcFKKBIQBOBTxyZGN719fVFQUG+1RM5xASN+vU9pCHcLA7jKjptWIgCNSOgjokcNXNs1uyVEzSs0WNZClBACGgm8InKiokcAQH+xtm0RUWFlq3TV6mdxdCwm5tO6iU0ID09gxM0+DtAARUKiN4+8QFPLMJu7y+xzp64t5hLr9j7mcDjp4D1ApoKfObDFev0ift+XFxcUVJSbFykubTUgLKysor7/MT9eQ4ODtJCyo7GxZTN24p7X9S/zp71Dcs9UEDrAuKDnejVFx/SnJyc7GK4VwzblpaWGj/QihEI8eGULwpQgAK2ENBk4DMfuOgB8PDwlP4guBp7AxwcHCv+KIgLZ1mZAeITclFRsfQJOc/4NV8UoAAFKEABClDA3gQ0HfjsrbF4vBSgAAUoQAEKUECJAAOfEjWWoQAFKEABClCAAhoSYODTUGOxqhSgAAUoQAEKUECJAAOfEjWWoQAFKEABClCAAhoSYODTUGOxqhSgAAUoQAEKUECJAAOfEjWWoQAFKEABClCAAhoSYODTUGOxqhSgAAUoQAEKUECJAAOfEjWWoQAFKEABClCAAhoSYODTUGOxqhSgAAUoQAEKUECJAAOfEjWWoQAFKEABClCAAhoSYODTUGOxqhSgAAUoQAEKUECJAAOfEjWWoQAFKEABClCAAhoSYODTUGOxqhSgAAUoQAEKUECJAAOfEjWWoQAFKEABClCAAhoSYODTUGOxqhSgAAUoQAEKUECJAAOfEjWWoQAFKEABClCAAhoSYODTUGOxqhSgAAUoQAEKUECJAAOfEjWWoQAFKEABClCAAhoSYODTUGOxqhSgAAUoQAEKUECJgM0Dn5JKsAwFKEABClCAAhSgQM0J2Dzw5eTk1lxtuWcKUIACFKAABShAAdkCDHyyyViAAhSgAAUoQAEKaEuAgU9b7cXaUoACFKAABShAAdkCDHyyyViAAhSgAAUoQAEKaEuAgU9b7cXaUoACFKAABShAAdkCDHyyyViAAhSgAAUoQAEKaEuAgU9b7cXaUoACFKAABShAAdkCDHyyyViAAhSgAAUoQAEKaEuAgU9b7cXaUoACFKAABShAAdkCDHyyyViAAhSgAAUoQAEKaEuAgU9b7cXaUoACFKAABShAAdkCDHyyyViAAhSgAAUoQAEKaEuAgU9b7cXaUoACFKAABShAAdkCDHyyyViAAhSgAAUoQAEKaEuAgU9b7cXaUoACFKAABShAAdkCDHyyyViAAhSgAAUoQAEKaEuAgU9b7cXaUoACFKAABShAAdkCDHyyyViAAhSgAAUoQAEKaEuAgU9b7cXaUoACFKAABShAAdkCmg58zs7O8PDwhJubK8TXDg6OqFevnhHhwoULKCsz4Pz58ygqKkZ+fp7xa74oQAEKUIACFKCAvQloMvB5enrC29sbLi6uKCkpRmnpeemfQQp4ZVLQ+9fYhvXq3SAFQAc4OTlK/5wrts3JyUFeXp69tTOPlwKaE3B0dISvr6/0gU4n/Q47VXyY09yByKiw+KBaWloqfUgtRFZWFgwGg4zS3JQCFKDAlQU0FfhcXd0QEOAP8YdAXBCLiopkta2bm5vxj4e4iKanZ6C4WF55WW/GjSlAAUUCHh4eUtDzM/ba2/tLjEpkZWVKIxT59k7B46cABawU0EzgE38AxKf9goJ8FBaes+qwdTp31K/vYfwELS6mfFGAAuoQCA5uDFdXV3VURkW1KC4uRkpKsopqxKpQgAJaE9BE4NPr9dDpdMahWIOh1CbGjo5OEEPDhYWFSE1Ntck+uRMKUECZgOjV0+uD7GLYVpmQ6b7k1NQz7O1TCshyFLBzAdUHPhH2xFCsuPfOfH+erdpM3Ocn7gUUQ8MMfbZS5X4oIE9A/A4GBATKK2THW6enpxmvh3xRgAIUkCOg6sAnhnG9vDyRnZ1t87BnRhKhz8fHB7m5eRzelXPmcFsK2EBA9OwFBd1ogz3Z1y7OnPmHPX321eQ8WgpYLaDawCcmaAQHB+PsWTFTzTbDuFfSEsO7DRr4SvfIpHAih9WnFHdAAcsFwsKacxjXcq6KLcXw7rFjRxWUZBEKUMBeBVQb+ETYE7NprZ2gYWnDiokcYvavCH18UYACNS/ACRrWGXMih3V+LE0BexNQZeATkyn8/PyMvXu1+RK9fJmZmVynrzbR+V52KcChXNs0O4d2bePIvVDAHgRUGfhE755YTFnuOnvWNpiYHCIWaWYvn7WSLE+BqwuEhDThOns2OEnEOn1JSSdssCfuggIUuN4FVBf4xGKrjRuHICMjrU7s/f0DkZycxMew1Yk+39QeBMStE6GhTe3hUGvlGBMT/+YTOWpFmm9CAW0LqC7wiZm57u5izb3cOpH19PTCuXPisUbWLcisa90bMc2PYeHX+1FYJ0dyjTf1boRwPZB65CSuuMCD2MbvPFKOp6nzGNToyjpdUyAwMFCafe99ze2qbqCDf0MfuFT6pqEgA6k5tft8bJcm7RB14z/YtD0JJTKP4MqbO8Nb7w+n/NPIULCmfG5uDtLS6uYD8mXHJF0zbr+zHSJ0Z7Btxy4cT1PwNCNda/SJCcPRhcuxX5UXT5s1PHdEgVoVUF3ga9iwofRMXINlw7k398eEp2+F11XJcrHn87ew7JBlrmJY18HBEadOnbKswBW26vH2txgRcRAfPPo61li1pxoqPCAOGwcBCx4YhSVXeguxTY9UTOj/Dn6toWpwt/YnoGw49x4MnhSFRlW4pOfOnj2CdUuXY09G7Tje/uQ4PBycgu+nLsVum71lc0SP7gef3ZMxf4v8napjWNcN7YfPwpjuDXFDYREMcIKbhyMytn6E1yevg2kqnB7teneF5+GFWH/wKsfZ4y2sHhGBgx/0xGuqvHjKbyOWoIAaBFQX+EJDQy1/osYtgzDtxTvgbSjBuRIDHF3c4eIosVb5fw5+/3g84v+wjNv8BI7ExETLCmh1KwY+rbac5uutbCkWU+DDL5VCkXszPDSwD9qUbsVH87deuada9WLWBT5VLNESNQHfjA3DvunD8PZm0+iMrvXzeP+t7siL74tXVoievjsxbtlk6Nd0xcgrfspUfWOxghTQrIDqAp/4Y5CZmWHZQssh0ZgwuhMcd8Rh4rLj6D7mYzwcKrVF4vd4YcY6NOs/ES+1M+CXmW/jmyTL2kgsxOzn52/1Glfh/V7Hs2HH8NmUr3AkvC8mPOuH3+Yl4z/DeuMen0Ik/PQJZiwHegx/Al3bBKL00Gb894N47DKPr+rC8PBzMegS0RQBSMeh3SsRP3dL+SdlcSxeaBs7AgM7tJR+fhK/rpiDhNChaJ85H1O+/Mt0sN5tETviSXS4OQBIP4xtiz5A/K7yofJqAp932354vm9ntJG6UU7+ugKz07vgv+zhs+zE4VYWCzRv3sLibS9uWE3gEz/sMAhvdgZ+enMBton/SyGwc4+OCG8k9fvnnsSRTT/gp+OVxgVdgtCqUwe0Dw+Ba3ESEtb/htI7ouAh9TqtPQC06h6D27AX8WvNnxBvwj3S74T55zfd0xtdpCHdDV9tx+mb2qNvFw/8tbkYLbrdgiYFuzF98U4RddCs80OICm8k/Zbm4uSRLVjz03FUjNZeVoc/4PNYH8U9fOKwjx4t/51XIGuLIv6D52Dp/SmXjQZEdItBy7wfsXxHSwydGY27W4TBJe0AkpN2G6+NENdJv9+xOP8uPN+5Fc6ufhzjD4rrZRiOffYWvjwSJZVrj8z4NXCJfg6dI3U4l7ATy+LnYUulFbS828ZixMD2EJc647UrIRQj2mearr+2OEDugwLXgYDqAp/4Y5CeruzZtpcGPqXtExCgt/oCete4JZgSecB0AbxrLJZNaYWyE2fxx47dSAtsi16dA5F7ugBZCZuRkO2DyO5dEPbPFxg8cilSEYHh8e+iu/th/LhyK5IQhgf6R8Fz2yQ8OeM36bCk4ZNxn2DC3cXYsX47Uoqk8t1aw/9CEBwS3kD/6dI2+r54b95ABJ/YiLUJ2XALboeud3tib9zTmLxB+rR9SeDTtR+LTyfcjZId67A1pRg+kV3Rxv8CghzKj0EpJstR4BIBWwY+l46xePWe81j31hL85t0OsS9EwV8KFLuTCuDs3wJtWuiQ+N1H+Gq/uNfPHx0HP4OoBqnYuzsZBc5+uDniRjg5eiF/p6nnsOPgN9AJmzBR6jE0var2vjWPHoUBIUlYMnMVjjbvhdEDmsIxuwSnEw/in1N/45e9+egQOwSd/NOwv/w9WrZpDl3iGsz+KkG67+/adVBywtR14IPo4RvfConxEzF16aFqelv/g26DuuChR7vB8+BSbDpwDOuX70CIuE7e7owzRX9h38/HcHi3NNxb33S9TJgwANN/fQKzNj4GvzP5yNh38VrZ8tw6vBz7IcTIMK9dSs4YlrFHAQa+alq9ZgJfWxyd8TgmbhBv6IaYD79F78KP0WPsalMN+s7E+n55eL/XJGyQ+gWCO96JJic2VHyK1Q+Zi8X3/o1xT76HPfqn8fGCB5Hx/kBpf+U3RRu/1xc+m02BL2LUArzXYjuGPP9ZRa+g8Xth/8OgFz9HapXAp8czH3+OBzPiMHDixvIJGo0xZN5c9Pbawnv47PHKUIPHbJPA5+6HhiEtEdXlPjTK+hEzF/0O/SPDEHvTEcyZuxHmW/oai+/deAiz5v2MnFt6Y2y0D/bN+RQbyjdwad0XI3u1QFb5ULH8wBeG1O9mYcme8skjjR/GiNggHK70HjB+T48/Z32Gnxpduw5K6Os88EnXtNYxkzCuXyS8y84h49R+7P1xHeJX7aoU/i4f0jV+ML4zEXEDJmCtuSO2/APyxcAXg/orh2Dw3GQTjfHnLbBz2NOYfaS6a5fpe/18eO1Sci6xzPUroLrAJ2tI95J2sUUPn62GdKvr4TNdwEyVHjDrR/RILe+Nq7iI6bGmYhKFGwKbtUW7Dk0Q0jgCoc3CEO640xS+ukzEquGuWNjjVXxbYaCXAtpCRCWJfSYbv76/4FusO1hpOKtpFAZEnMAMESqrBL4HMGnVMLgufARjL+4QxpAZlcTAd/3+/tfJkVkT+C6dtHEueSuWL9mMEyU+6PLCMLQq/h17kyvNnw2KQMdG6Vg1/SskdRmCUeGn8OnstThdceSR6D/uUbgr7uELQdKSOKwof8qZt3iPVsX4de/JSrN4A3FLx2Ckr3oX6wKuXQcljVL3gc9ca/FhNQrR93VF27aN4VOwF/NfeR0rjMOvVwh85pEQ8y6qCXxYUPm+P9Hr9xBSjddTXruUnC8sY58Cqgt8siZt1EDgs9WkDasCn649xswbj/sbZCPprzM4c+ogDji1xYttTprCV5XeQDOCqdew22kR+AwY88VU3Fki3Stz2ZorSfhh9Bz8UiXw9UXc+t7Ie9/cA2napy5mNlZ3O83AZ5/Xhho7aptM2nC5AwNHd4X3gYWYvUakiVD0GvUkmpcmI/2ypU3SsCd+PQp7jcBT+kOIk3oAL/5ahKP3mD7w+l3pkG7VwNdMvEfzUiRdXgmk7VmIo02vXQe58KqYtFFdpaXr2Gv/fQNtDk/D45M311Dg47VL7vnC7e1XQHWBT9ayLBXtVh/6Jv7o0G8M7g+WvpnyC979cisyTqShQGbb2mpZFqsCX89pWDPYAfF9XsGK8g66Kr1t4cMQ/+FtODBqEOLMyxvoHsO7Xz+HRttMvYZ949aiX14ceklDtNW+qgS+24wB8ebfhyN29sWbv7tM+gZjmu9i4JN5DnHzqwtYsyxL5Vm6/lJv2v/dUYpNH8Vji5TgOjw9AR2KvsP0ZQnVV0BM8Liv1HS/n3kL7wfwwqi7UVo+pNu6/yvo5b6z0j18VQPh5ffwVQ18xkkkHYrwrdSjuL+6WlhQB7nnjxqWZek0dAY6F3+D8fMrZI2H0fOd7/C88xJ0GyVN0KiRHr4W0v3Os3HbgdGIqbgYuiH63a/wfKPtvHbJPZm4/XUtoLrAp2jh5S4v4eNezVCvSlNdwPFV/4eZxnvmLH/ZauFlqwKfGNJ4MwT/G/YS5h6T7tELfhCTpg5DOwfzPSl6KdDNQ6z/n1j02WLsTQtA1PDn0e0mXxTuNAU+nTTsu+ilpheXSZBm/cZMnYHeF5YhRrr4Zl0yaSNi+Od47/5cLHt5PBZK7+l936uYPfYeBOXwPhjLzx5uaYmAsoWXq5ml6yINx458FMEpqzFLhDxxP15PPRK/+QzLxa0M0mzYTk/FoN2/W/HB59uRX94r6HtsJT5d/ifOGX8+EPc2dMGpTaYePu/Oz2LkXfWw68sv8MMZX9z1SC90aeGNf8p/fs3AZ6zTI9Anlr8HnBHUaQBi213A1g8WYOt5U8/k1epgiWHlbdSw8LL+mY+woLcnfpszBe98f0y6D9gL/3lsJF4dchsyFw+RlmERE/FMQ7rNdgzF8A/FNtLteJUnt5kPStaQrpifNhOfxPrj0KL5WLg3HYFRQ/FCt4bwLSy/BUYuKLenwHUqoLrAp+jRaq7Nce8DLS5ZgDkHRzduxV/F8lrOVo9WsyrwoTGi356GwXd4o6xIWl/Q6Sx+3pYnLdFSaXhVCnB9xoxFdKS3tMTpOSSujsMfbd5Bt4r7AivfRF2CC9IChWUZ0nIT48rvp7lsWZZK71lyAY6GI1j84w0YdC8XXpZ3BnHrawkoe7Ra9cuyeEuzdIdG6bA/fg7WJDujSad+iO4Qgvr/GvCvkwP+zfsbPy9aip3mSRotu2Nwz9sQ4FSG0hvqoSBBWl4l9F54mRc9dglHj8GP4vYAF+kDZBmy91f9+TUDn3TwLk3uwxPR7RFSX1oY+l9HOP6bi+M/L8UX5ZVwuVYdrgV4yc/V8Wi1xjjWlfYAABWWSURBVOg+biye6dgUnmItVPEy5OHvDXMwLm5zxRB68ICZmP1UBNwNezFHugc51QaBT0yCC+szBuOiW8HHCTiXuBoz/7gVM7rx2iXzVOLm17mA6gKf8A4ODkZp6XnLnrZhwwYSw7lOTs5ISam0wJMN9y97V1d7/JnODTppRfuLUzJMkzbu/Xu8tHTLnkpvJd1EHR4E5+xkyx5zZMkj12QfCAtQoKqAsmFdSxVNj2FzuOKj10yPMnMtFo9mC7HqKRdXq5G7/03wcShARmpuNY9hq1wH5Y+HU8NwblUD0/VGZ8iuxUcyStdCnXQtrDQ/rcqqBpaeNtyOAte5gCoDn6enp7T4sR/Ons2qVf4GDXylRZ8zjU/6UPcrEiMXTsXtSfMxLW4V/jwfiMieozEhtgkOTO2NyZvUXXvWjgIeHh4ICrpRBRDWPeWirg/gzJl/kJ+fX9fVqNP3jxwZj+m3J+GzabOw8s/zCIzsidETBiH0gHmySJ1Wj29OAdUIqDLwmXv5DAaD9KlNwdPEFfDqdO4QQ02q6d27xjHoWj+F14Y9gluDPSEN1qIk+x/s+uYdzPjadG8MXxRQu0BwcGO4urrWcTVD0ePFaPjsn4HFO+q4KjLfvri4WLpela9NJ7PsdbW5rjViXhuKR25tZBxOLivJweldKzB9xtc4xovhddXUPBjrBFQb+Fxd3YxDu6KXz2Aote4or1FaLMUievdE2CsuLl/IuEbfkTunAAWEgLIlWmin2qVY2DQUoIBqBVQb+ISYmLHr5eWJ7Oxsy56tq4BZLLTs4+OD3Nw8ZGVlKtgDi1CAAkoF1DO0q/QI6qYch3Lrxp3vSgEtC6g68AlYvV4PMZkiJyfH5qFPhD1vb2/j5JDUVGXP79Vy47PuFFCDgPgdDAgIVENVNFGH9PQ04/WQLwpQgAJyBFQf+MyhT6fTGSdT2Gp41/xEjUJpahfDnpxThttSwPYCoqdPrw9CvXpVV9O0/Ttpd49iGDc19YzdT9LQbguy5hSoWwFNBD5BJIZ3fX19UVCQb/VEDjFBo359D2kIN4vDuHV7/vHdKVBFQB0TOdTXKJygob42YY0ooDUBzQQ+ASsmcgQE+Btn0xYVFcpep08MDbu56aReQgPS0zM4QUNrZyvraxcCordPfMATi7Db+0ussyfuLbb3pVfs/Tzg8VPAFgKaCnzmAxbr9In7flxcXFFSUmxcpLm01ICysrKK+/zE/XkODg7SQsqOxsWUzduKe1/Uv86eLZqW+6CAtgXEBzvRqy8+pDk5OdnFcK8Yti0tLTV+oBUjEOLDKV8UoAAFbCGgycBnPnDRA+Dh4Sn9QXA19gY4ODhW/FEQF86yMgPEJ+SiomLpE3Ke8Wu+KEABClCAAhSggL0JaDrw2Vtj8XgpQAEKUIACFKCAEgEGPiVqLEMBClCAAhSgAAU0JMDAp6HGYlUpQAEKUIACFKCAEgEGPiVqLEMBClCAAhSgAAU0JMDAp6HGYlUpQAEKUIACFKCAEgEGPiVqLEMBClCAAhSgAAU0JMDAp6HGYlUpQAEKUIACFKCAEgEGPiVqLEMBClCAAhSgAAU0JMDAp6HGYlUpQAEKUIACFKCAEgEGPiVqLEMBClCAAhSgAAU0JMDAp6HGYlUpQAEKUIACFKCAEgEGPiVqLEMBClCAAhSgAAU0JMDAp6HGYlUpQAEKUIACFKCAEgEGPiVqLEMBClCAAhSgAAU0JMDAp6HGYlUpQAEKUIACFKCAEgEGPiVqLEMBClCAAhSgAAU0JMDAp6HGYlUpQAEKUIACFKCAEgEGPiVqLEMBClCAAhSgAAU0JMDAp6HGYlUpQAEKUIACFKCAEgGbBz4llWAZClCAAhSgAAUoQIGaE7B54MvJya252nLPFKAABShAAQpQgAKyBRj4ZJOxAAUoQAEKUIACFNCWAAOfttqLtaUABShAAQpQgAKyBRj4ZJOxAAUoQAEKUIACFNCWAAOfttqLtaUABShAAQpQgAKyBRj4ZJOxAAUoQAEKUIACFNCWAAOfttqLtaUABShAAQpQgAKyBRj4ZJOxAAUoQAEKUIACFNCWAAOfttqLtaUABShAAQpQgAKyBRj4ZJOxAAUoQAEKUIACFNCWAAOfttqLtaUABShAAQpQgAKyBRj4ZJOxAAUoQAEKUIACFNCWAAOfttqLtaUABShAAQpQgAKyBRj4ZJOxAAUoQAEKUIACFNCWAAOfttqLtaUABShAAQpQgAKyBRj4ZJOxAAUoQAEKUIACFNCWAAOfttqLtaUABShAAQpQgAKyBRj4ZJOxAAUoQAEKUIACFNCWAAOfttqLtaUABShAAQpQgAKyBTQd+JydneHh4Qk3N1eIrx0cHFGvXj0jwoULF1BWZsD58+dRVFSM/Pw849d8UYACFKAABShAAXsT0GTg8/T0hLe3N1xcXFFSUozS0vPSP4MU8MqkoPevsQ3r1btBCoAOcHJylP45V2ybk5ODvLw8e2tnHi8FKEABClCAAnYsoKnA5+rqhoAAfzg6Okq9doXSvyJZTefm5ib1BupgMBiQnp6B4mJ55WW9GTemAAUoQAEKUIACKhHQTODz9fWDr68vCgryUVh4zio+nc4d9et7ICsrS/qXadW+WJgCFKAABShAAQqoXUATgU+v10On0xmHYg2GUpuYOjo6QQwNFxYWIjU11Sb75E4oQAEKUIACFKCAGgVUH/hE2BNDseLeO/P9ebaCFPf5iXsBxdAwQ5+tVLkfClCAAhSgAAXUJqDqwCeGcb28PJGdnW3zsGduCBH6fHx8kJubx+FdtZ2drA8FKEABClCAAjYRUG3gExM0goODcfZsls2Gca8kJoZ3GzTwRUpKCidy2OS04k4oQAEKUIACFFCTgGoDnwh7YjattRM0LMUWEznE7F8R+viiAAUoQAEKUIAC15OAKgOfmEzh5+dn7N2rzZfo5cvMzOQ6fbWJzveiAAUoQAEKUKDGBVQZ+ETvnlhMWe46e9ZqickhYpFm9vJZK8nyFKAABShAAQqoSUB1gU88Iq1x4xBkZKTViZO/fyCSk5P4GLY60eebUoACFKAABShQEwKqC3xiZq67u1hzL7cmjvea+/T09MK5c4VWz9jVBTZDsEc+Uo6nofCa71oTGzRGx9gouP+8AGt5W2JNAHOfFKDApQLejXD7ne0QoTuDbTt24XiagqcZ6VqjT0wYji5cjv11c/Fku1LguhRQXeBr2LCh9Excg2XDuTf3x4Snb4XXVZsmF3s+fwvLDlnWfmJY18HBEadOnbKswBW2umvcEkyJPIAJ/d/Br1btycLCEV0xqGU+1i/fAeMy0uEv4L+zHga+G4VnPv7Lwp1wMwpQgAJKBNzQfvgsjOneEDcUFsEAJ7h5OCJj60d4ffI6mD5z6tGud1d4Hl6I9Qev8h493sLqERE4+EFPvLZGSV1YhgIUqE5AdYEvNDTU8idq3DII0168A96GEpwrMcDRxR0ujtJhVvl/Dn7/eDzi/7DsBDA/gSMxMdGyAmoJfAPisLFHau0FTKt0WJgCFLiuBKIm4JuxYdg3fRje3mwandG1fh7vv9UdefF98coK0dN3J8Ytmwz9mq4YueS6OnoeDAU0IaC6wBcW1lyaKZth2ULLIdGYMLoTHHfEYeKy4+g+5mM8HCq5J36PF2asQ7P+E/FSOwN+mfk2vkmyrD3EQsx+fv44duyoZQUsDnxeaBs7AgM7tEQA0nFo2xf4IH4XciqV14X1wHOxD+HWcB3OHdmHH+I/wffHyodEdGF4+LkYdIloaiq/eyXi524xfnIO7/c6nn0gEq0Ci3H0r1Qc/mEMPvolCkNndgeMX5ve5Kr7D++LCc/6YfsHiYgcHo27GgEn9/2IL2ZzWMWqE4GFKWAHAv6D52Dp/SmXfeCM6BaDlnk/YvmOltL1KBp3twiDS9oBJCftxmdTvgLEtcvvdyzOvwvPd26Fs6sfx/iD4loUhmOfvYUvj4jrWHtkxq+BS/Rz6BwpXRsTdmJZ/DxsqXSrinfbWIwY2B43B0jXrV9XYHZCKEa0zzS+xxE78OchUsASAdUFvubNWyA9XdmzbS8NfJYAVLdNQIAeR49aNwxadUhXj77vzcGg4CRsWHsA2fBBZPcuCD29EM+N+so0BHvXKCya2BnOf26Uhjuy4RYWhUduLcA3zw3Ff1MiMDz+XXR3P4wfV25FEsLwQP8oeG6bhCdn/AZ9u8fR7cEeGBCRi/Wr9+LP3WLI5AnM2hgDLCj/NG3cf0eU7lyHrSnFcAtuj27tXLHtzYGYIcac7xqLZVNaoexEAY7u2yEFyWDc060D/I58jP5jV9fRfYhKW5DlKECBWhUQPXzjWyExfiKmLj1U5YOsqR7/QbdBXfDQo93geXApNh04Zrz9JETc+nK7M84U/YV9Px/DYXHtqm+6FiVMGIDpv4rr2GPwO5OPjH2bkZBtuna2PLcOL8d+CDEyrGs/Fp9OuBslO0zXNp/IrmjjfwFBDrV4S02tYvPNKKBMgIGvGjebBz5jmGqJ30cNQpz53pXgZzHv0y74553emLzJDdHvfoVYLECfV1aWhys9er4yGjef+BhTl59FcMc70eTEhopPtfohc7H43r8x7sn3sEccw2VDupUDnxsGzFqB/ufnV9q/G7pMWoSX/Ndh0IufI9VYx7b4O+4pvL7W1Kuok/a5sn8x5vV4Fd8qO79YigIUsAsBN7SOmYRx/SLhXXYOGaf2Y++P6xC/qvIoxuVDusYPxncmIm7ABKw1T9Ao//B5MfDFoP7KIRg8N9kkafx5C+wc9jRmH9FL9yh/jgcz4jBw4saKa6f4Xj+fLbzFxS7OPR6kpQKqC3yyhnQvOUpb9PDVxJBu0qXhzFjvFlKv3Wy02TccsbODMWnVMLgufARjr5is3BDYrC3adWiCkMYRCG0WhnDHnRcvaFcNfA9I+x8Fzy+7Q+pQvPjqOQ1rBgPzRaCrcpEt38T4PT3WPDAKvOXG0l8pbkcBexbwkj6cRiH6vq5o27YxfAr2Yv4rr2OFcfj1CoHv0slt1QS+ipEKI634MPsQUo09gOLadvm10/iBOCqJgc+eT0Ue+2UCqgt8siZt1EDgq4lJG6VjFmF68EY8OmxxpaFRN8R8+C26nX4D/aeHIG59b+S9/zgmbqjmLNW1x5h543F/g2wk/XUGZ04dxAGntnixzUkLA19faf89kTmlP97eXmn/7V/F128GYLUIdAx8vDxQgAK2FJCuW6/99w20OTwNj0/eXEOBT1zbLr926mJmY3W30wx8tmxP7kvzAqoLfLKWZangrw99E3906DcG9wdL30z5Be9+uRUZJ9JQILOJamRZlso9aRX1qdzrZurtu+3AaMRUjPkC3sHh8CtJxvG735B64hwQ3+cVrCgf9rjsE+xVe/gq9yZevDexyrAwA5/MM4WbU4ACZoFOQ2egc/E3GD//tyooPd/5Ds87L0E349BCTfTwVXftNN0i83yj7Qx8PEUpUElAdYFP0cLLXV7Cx72aoV6Vpr2A46v+DzOr6zG7yilgq4WXq0za0EnhbtEoNN33Loa+vVm6odkL9732IcbdcRrz+kvDqVKIC5aGID59qBjLXh6PhdLM3CpLGpwejmVvhuB/w17CXDFrN/hBTJo6DO0cKt2jIgLf44WYHfsavjdO/a06aeOy/Yc9hanv9YfXz69IQ8rSjYUMfLwwUIACCgX0z3yEBb098ducKXjn+2PSSIYX/vPYSLw65DZkLh4iLcMipqaZAl+zHUMx/EOxjXTZqW69UllDutLqfn1n4pNYfxxaNB8L96YjMGooXujWEL6FlW55UXhcLEaB60lAdYFP0aPVXJvj3gdaXLIAcw6ObtyKv4rlNZetHq126YVM1/opTB7XD5He0jKBkBYLPHcIq6aMx6f7zSvRN0b3NybixXY3weGCtEW9MpzeMRdvGBctbYzot6dh8B3eKCuSfuZ0Fj9vy5OWaKk0ZFE+7NslSFo0+ntxX+BtVWfpSvvoPm48htwXApfL9i+uvJVnxpWb8R4+eScPt6aA3QqI68tYPNOxKTzFWqjiZcjD3xvmYFyc+JBregUPmInZT0XA3bAXc6R7h1NtEPgAN4T1GYNx0a3g4yRdWhNXY+Yft2JGN65LarenIw+8WgHVBT7jRSE4GKWl5y172oYNG1YM5zo5OSMlpeaeRSaGafU4gyMpV3h0nC4QzYI9kJ9yHGmXPlZIemxRuB5IPXKymmUPLIS42v4t3AU3owAFKFC9gDRpIzwIOkN2LT5W0g06XREKK10vL1vFgM1FAQpAlYHP09NTWvzYD2fPZtVqEzVo4Cst+pxpfNIHXxSgAAUooH6ByJHxmH57Ej6bNgsr/zyPwMieGD1hEEIPmCeLqP8YWEMK1IaA4sBXXeWCgm5CTs4Veq5kHo3o5TMYDNKntnMySyrbXKdzh6OjY4327imrGUtRgAIUoMAVBXStEfPaUGmh+kbG4eSykhyc3rUC02d8jWOXjpKQkQJ2LKDawOfq6mYc2hW9fAZDaY02kViKRfTuiaHc4mLzPXU1+pbcOQUoQAEKUIACFKg1AdUGPiEgZux6eXkiOzvbsmfrKmATCy37+PggNzcPWVmZCvbAIhSgAAUoQAEKUEDdAqoOfIJOr9dDTKbIycmxeegTYc/b29s4OSQ1Vdnze9XdvKwdBShAAQpQgAIUgPJJG9Xh2fIevsr7F6FPp9MZJ1PYanjX/ESNQmlqF8MefxUoQAEKUIACFLieBVTfw2fGF8O7vr6+KCjIt3oih5igUb++hzSEm8Vh3Ov57OaxUYACFKAABShgFNBM4BOVFRM5AgL8jbNpi4oKZa/TJ4aG3dx0xtm/6ekZnKDBXwIKUIACFKAABexCQFOBz9wiYp0+ce+di4srSkqKjYs0l5YaUFZWVnGfn7g/z8HBQVpI2dG4mLJ5W3EvINfZs4tzmwdJAQpQgAIUoEC5gCYDn7n1xGPYPDw8pV47V4ivHRwcUa+e6Ym6Fy5ckAKgAefPiyd2FCM/P8/4NV8UoAAFKEABClDA3gQ0HfjsrbF4vBSgAAUoQAEKUECJAAOfEjWWoQAFKEABClCAAhoSYODTUGOxqhSgAAUoQAEKUECJAAOfEjWWoQAFKEABClCAAhoSsGngCwwMkh5Rli9NnNCQAKtKAQpQgAIUoAAFrnMBmwY+f/8AaTZsgRT4brjO2Xh4FKAABShAAQpQQDsCVgU+aeWTKr153t4+0rp4pdo5etaUAhSgAAUoQAEK2IGATQOfm5u79BQMJ+OTLPiiAAUoQAEKUIACFFCHgFWB79JDEE+28Pf3l+7jK1DH0bEWFKAABShAAQpQgAK2fZau8GzQoIH0ZAs+0YLnFgUoQAEKUIACFFCLwP8DhNwjDq+S8w0AAAAASUVORK5CYII=;" vertex="1" parent="1">
          <mxGeometry x="327.31" y="250" width="123.38" height="110" as="geometry" />
        </mxCell>
        <mxCell id="O65TXnctTbFCrL6ZVX1L-15" value="" style="shape=image;verticalLabelPosition=bottom;labelBackgroundColor=default;verticalAlign=top;aspect=fixed;imageAspect=0;image=data:image/png,iVBORw0KGgoAAAANSUhEUgAAAi8AAAK9CAYAAADseowMAAAgAElEQVR4XuzdCVwUZeMH8B9x7iKXXJsZnqgppWVmab2ZlprHm2ZqZoaWqZXikaZ5ZF7lGYZZdhJqUXm/mVr+S8vUytI0S/MgJU0UEAQ5XeL/PLO7yKXuzC6OwG/78PkYzDPPzHd2Z377PM8841K7dr1C8EUBClCAAhSgAAUqiYALw0slOVLcTApQgAIUoAAFFAGGF74RKEABClCAAhSoVAIML5XqcHFjKUABClCAAhRgeOF7gAIUoAAFKECBSiXA8FKpDhc3lgIUoAAFKEABhhe+ByhAAQpQgAIUqFQCDC+V6nBxYylAAQpQgAIUYHjhe4ACFKAABShAgUolwPBSqQ4XN5YCFKAABShAAbvDS9cJb6NHg6NY+/RcfCHdDPXQe+xYdKydhu+iJ2PZQfG7WwZh7og7EVDKNW3nG3jhg9/Eb8PQd9pE3B9yHJ+/9Cr+l2xd0PAfRM3pj5vzf8aSse/iFx4XClCAAhRwUKALJrz7EBqUuxbbuVzFObnrC3i3x8W1mc8l4dC+Tfhs6U6ctNVxxWuAg7vE4hSwCtgdXnpO+wh9Gh3GZ/1exhrURs9p08T/A4c+m4qpa05YVnfbs1g8ri1qpPyFo8m5RcgZe+OxcN1R5f8NrYZj/pi74P7L2xg5/zvkiN81eWo+ptwfgEPxL2La/87w4FCAAhSggMMCbTDwpfbiK6N4+dbGTTf4IPPkAZzIkL/4G19Pj8N2Nefkni8jvk940TrcA+qgvsmIvN+W4rlXvlTO5fZcAxzeLa6AAkJAQ3iZjRPPzcGou2si9fsYjF+8y/KmLfbGxffz8dziPZcA9kKniYsxsFka/m/GWLyf2gPT5vdGw1Nf4IUJH19M8Dw8FKAABSjgHAFr8Dj0WX/xZbP0Ku08J5dZRwj6z45Gtxv/RHz/6fif3dcA5+wS11K9BVSHl42fAe1E+sahFZgydW3JsGFtebl8eBHgN/TCzFcexo3HVuPTzAcwoOUFfD9vBBbvrt4Hg3tPAQpQoEIELhte7Dwnl7OOThNjMfDm49YW+YstL1e8BlTITnKl1UlAZXj5F//+ex2uuy4Le96NwtxvLnYNFW95qVlKsLy0b+kqCgXE+rL2XOxCqk743FcKUIACV0XgSuFFbMQVz8nWdfy1YSo+2AkERfTCY71vQeCpL/HS2KVQBgZYv8Dacw24KvvNSqqsgMrwAuQc+hV/39gCjfAbPnxuNr4s6jO6+MZ1/SUW89ceK0LLOXMEJ5V+1mIvMUh37OtD0dJTjKMZK8bR2AbvVllq7hgFKEABnQTsCC+40jnZuo6Le/Av8lP34dNX52GDbcSuNbzYdQ3QiYLVVg0BleHlKFY/+RLW3zEGrw9rCbfSXUf2dhtZ7ZRBwEHbMe+5N8Eeo6rxhuJeUIAC16CAPeFFbPZlz8n2rEPlNeAalOImVRIBleHFdreRF1pFzcOYu4zl3m3keWQrvvotvYggO+FbrP+57F1EDC+V5F3CzaQABSq3gD3Bw4nhxd5rQOVG5dbrKaAxvIhNNrTCc3OicLffX1g98SWskM2Gl+jvPHuJu48YXvQ89KybAhSoNgJXObyUHvNyqWtAtfHnjjpdwO7w4vSauUIKUIACFKAABSigQYDhRQMai1CAAhSgAAUooJ8Aw4t+9qyZAhSgAAUoQAENAgwvGtBYhAIUoAAFKEAB/QQYXvSzZ80UoAAFKEABCmgQYHjRgMYiFKAABShAAQroJ8Dwop89a6YABShAAQpQQIMAw4sGNBahAAUoQAEKUEA/AYYX/exZMwUoQAEKUIACGgQYXjSgsQgFKEABClCAAvoJMLzoZ8+aKUABClCAAhTQIMDwogGNRShAAQpQgAIU0E+A4UU/e9ZMAQpQgAIUoIAGAYYXDWgsQgEKUIACFKCAfgIML/rZs2YKUIACFKAABTQIMLxoQGMRClCAAhSgAAX0E2B40c+eNVOAAhSgAAUooEGA4UUDGotQgAIUoAAFKKCfAMOLfvasmQIUoAAFKEABDQIMLxrQWIQCFKAABShAAf0EXCIiWhTqVz1rpgAFKEABClCAAuoE2PKizotLU4ACFKAABSigswDDi84HgNVTgAIUoAAFKKBOgOFFnReXpgAFKEABClBAZwGGF50PAKunAAUoQAEKUECdAMOLOi8uTQEKUIACFKCAzgIMLzofAFZPAQpQgAIUoIA6AYYXdV5cmgIUoAAFKEABnQUYXnQ+AKyeAhSgAAUoQAF1Agwv6ry4NAUoQAEKUIACOgswvOh8AFg9BShAAQpQgALqBBhe1HlxaQpQgAIUoAAFdBZgeNH5ALB6ClCAAhSgAAXUCTC8qPPi0hSgAAUoQAEK6CzA8KLzAWD1FKAABShAAQqoE2B4UefFpSlAAQpQgAIU0FmA4UXnA8DqKUABClCAAhRQJ8Dwos6LS1OAAhSgAAUooLMAw4vOB4DVU4ACFKAABSigToDhRZ0Xl6YABShAAQpQQGeBCgkvHh4e8PHxhcHgBflvV1c3uLi4KLtaWFiIggIz8vPzkZOTi8zMDOXffFGAAhSgAAUoQAF7BJwaXnx9feHv7w9PTy/k5eXiwoV88WMWYaVAhJZ/le1xcblOhBlXuLu7iR+PomXT09ORkZFhzzZzGQpQgAIUoAAFqrGAU8KLl5cBISHBcHNzE60p2eInRxWpwWAQrTRGmM1mnDmTjNxcdeVVVcaFKUABClCAAhSo1AIOh5fAwCAEBgbi/PlMZGdnOYRhNHqjRg0fpKamip8Uh9bFwhSgAAUoQAEKVE0Bh8KLyWSC0WhUunvM5gtOEXJzc4fsfsrOzkZSUpJT1smVUIACFKAABShQdQQ0hxcZXGR3jxyrYhvP4iwWOS5Gjp2R3U8MMM5S5XooQAEKUIACVUNAU3iRXUV+fr5IS0tzenCxscoAExAQgHPnMtiFVDXea9wLClCAAhSggFMEVIcXOTg3LCwMZ8+mOq2r6FJ7IruQatYMRGJiIgfxOuVwcyUUoAAFKECByi+gOrzI4CLvCnJ0cK69dHIQr7yLSQYYvihAAQpQgAIUoICq8CIH0gYFBSmtLlfzJVtfUlJSOA/M1URnXRSgAAUoQIFrVEBVeJGtLnLiObXzuDi673JgsJzQjq0vjkqyPAUoQAEKUKDyC9gdXuQ0/3Xq1EVy8mld9jo4OBTHjx/jowR00WelFKAABShAgWtHwO7wIu8w8vaWc7qcc2Drb8bjE7ujYMNriP81V9V6fH39kJWVzTuPVKlxYQpQoFoL+N+IJibvYgRmpCUewels+1WMoQ0R5pOJxCOnoaLYxQqMLdAnMhyH4lbgV00rsH9bAT+ENbkeSDqIxPTyy4XdOxAdvLcgdsNxNSvWtKyxRW9ENjqMuM9+vYTdlbdXU8XVoJDd4aV27drKAxUd6zK6Hl3GjUP3etn46Z2ZiFURYGTXkXzA44kTJ675w2Jq8wg6+x7Ah5t+v+a3lRtIAQpUYYH+0dg8sGnJHSzIw8kdb+Gl6Rthz20Qd074CDOa78OUfnPwgx1UZc5/3WZi3cgI7H+9Byatt2MFDi3yGBZujgQ+7IRRH5W3osZ49v1o/BefY9RTb+GgQ3VduXC3WWsxMmI/Xn9oMuSul702XGl7r1xHhSxhaoPencOBQ19ixY5rc7JYu8NL/fr1Nc2kG9guEpG31VR8DTVrIcDbA0Yvd7gUnsXOtyZj6W/20dtm3k1ISLCvgI5LKR920xd4YNTHOm4Fq6YABaq9gBJexLX8gdGwXcv9Ww3H7KkdkRs/RFzgr3xhUhte9D3/XaNhwPpGLGtzjW7vneMRP6M98PVL6Df7x2vyY2R3eAkPbyTu+ElWPSld8fCiCFznhxsahMCYm4DP587HhlP2uchJ64KCgnH48CH7ClxiqSaPTsbTQdvxekJzRPVqjRtxBn98vxyvx+7CxVZGA8K7D8WgrreiiXc2Du7+ArFvr8fhoiZP8fcOkXis911oHnABJ//4Fu/PW6Y0ibYfPg+97mqMRp5nsE+M0dn17kx8IuK9Mbw9Ih/rjTbN/ZF/8gC+e38e4n7lAygdOpgsTAEKXF6gnPAiC/SN3oBBiEPn0Z8q5Y3h3TB0UFfc1sSIrIN78EXs2/j8sOX8VCa8+LfCoJF90LphPXhnHcTv36xEjLVbpNzzH/piytPhOGw9F16pvrLn6L+x58uPi+qwlL/U+dQaBpaPx566Q3G/PN8m/IhVMQuxwdrMJLexKzbg+Te2wL7rwUXi4O5jMOGmo5g3dx0sse8+DF/QBcZtCzB3reU3ph7jMK7pX1j8ykp4yOtN+GG8O+NT1Cr32nDl7S19gJXtr3cMX7yegOZRvXDnjcDfP6zF26WvUbZrmHKN+hkrY5fg26KmNus1rmMEGtzgjrSDf+C7NUvw8S4xLKT9c1jQ6040bhQCnDmMP5MO4IvnF+Mb0SXXatBIPNq6AepZ17n24zh8bX2fXO2Pot3hpVGjxuKJz1dO6ZffAWu3Ua00fBc3T/W4l5AQEw4d+tMhI8sHsQCnXJKxZ9M+pBnCcE/nu+C5cxaGzN6u9EveOeZDTL03Hzs3bUdijhfC7nkQbTy/x8uPz1eaTY09XkX8sPpI+DIea3d74d4nHkXLzM8wQrS0+HaORKeu3UW30R/4aMs+HNq0EjsyHsKc+KGol/AV4tfuhuHex9G3ZRY+GyG+DdnTbuvQHrMwBShQbQXKDS8G9F+4Cv3y3ka38evECW80lk69Fxd2bsS2xFwERHRCx2ZnsXLocLwvzk8lwotRnsueRZOU77Fp/W9IMrVCr4eaITl2GEZ/moSI8s5/deW3+Fuwd0p/zJYn0FL1GcLaonMbL3z/8hOYJ/5uO0f/lXkYe3aIDZB/vycEBxf3w/i1IlAp23Cp86klDNTL+gcJ327F3jTL+fse486ibq/+C7/EQBHcZMu4PdeDEu8d2SLxsgnrHxbnbnmx6DgVa8a1geH3ODws1pcNi+0j56LRc+rmEnbny7NJuvL2ln7vKtvfLAWnT/vA15gPs5sBPgY3mA9/iqHPfiC6Ag1oO+FtTOkQisKcJPyT7IXQG/zhmfcHPrRec8KGvIV3etdHYcbfOHLsAoKb1kegy0l8PvZJxDSZidWP3wKjtyeQl4Xs/D/w8cOzkDFtKca18UZe8nH8meqFBuG14J23G4v7vYi1FT6WqewnuILDi5d44rSbGGR73lqzHLDbGdmrFmH1n+oG7MoVOC28tMvAiiHP4B1rcDCKN+DSMcHYOFB8WDPEm2n1o8h/ty9eWGVtGTE+gGlLRyN445OivzTJ8oa8YRMeGrHMMgjL1AJtQk/h172WAW1lmgaVJrgbsOmhKMRZCqBFm1Cc+nWvqoFz1fYEzB2nAAW0CZQKL/5hTdD87gF4+olmOLlEhgGg19xP0S9nEZ4QF1vLNchg+d351/DI9K2lwksomt/TDC7bvikafNtx2kqM8V1R1IpT/vnPFl6swSn/PfR5YXVRfR3FhXFM8EYMFBffuvL82joB0f2nYIOyQaXD1uXOp5YwUGP1EAx+yzog1/Q0lixrh2PW8FQmvFzuelDm+3o7vLTyBdRc00t0ueUoNiNNZ4CGufi0m7iIQwSr9QOQG/MIpn5VttXqUt1Gl9ve8sNLAU5smITnovcg23grRi+ehS61s7Dtld6YfmoEYhd1Q+2UrXj5qVexXRiGRcbgzccbA3veVtx7WgPQ11YTY9uhiLojF4e2r8fqn8Q8bmW6jVpjQvx0dAgSAcjaBRnWaxQeC0nBL18vx2bHOkQ0vbftDi/qu42ux93PPIfHbj6Ltc++BnEcHXo5q9tIefNE7MEE0YryS9EWiXCyZgS84v6L8dkiSY/xxSedn4elQdXy6jHnfxiM95VvKkrLy3O3IOfAd/h2y05s3rELR05f7AIq8wa1flu5JecAvhXfBnZu3oldWkfuO6TIwhSgQLUSKHfAbjr2x7+KSXHyDhh57otCrV9WYnuxeyECW4rWY/cvMWDYu5YwUWLArrhD5vbWaBNRD3UbNUSDhs1Q95/lRWP8Lh9eZH2j4ftJF9FSU/wE+yrWDwbeEwEgqZwBwiXWednzaXljSOTvuiLpUuHlctcDEe5Kv2RYi/JaJq4FBxEVOwuB8W+gYMhwuL4jAov4b02UF+KUIGN/eCk5wLjk9pYfXhKwYoD4Am4NV02iPsCi7jfgxOdRGJQ6TBmknVJivEpfRG96EhFp3ygtUBi3FC93DBUtK8k4tu837N21E19s+e7iHVplwotJdDUuweAIA8yytWbffmz/YQu2bNPvC7jd4UXdgF1rcLnFF6e++wDLf7DcXp2T/BeSbI0wKs8gzhqwq3wI6m5VPpQXQ7UlVZrWixHq5gXY1CsFM/qIxFpsG9tOisfLwZ8XfUD9W/XAoC73IaJpXdSq6Ybkr17BsHnWbqfyBuyKfuKegx5E+4ibUKdWTbgnb8bMYfOVVMwXBShAgQoRKNXyYunyDsXXsntgv6xRXtT6I+Ton0gq3Rie/rMyVsO/eJgIewzRMY+jScE/orshCSeP/IbUsB7oY7h4brx8eJH19UDKjH6YVeIE+yI+ezkE68S3+qNXCi9ysy95PtUQXi53PSjvjiVhuD4yFzEvnkW/+bWwTgSVbBFo+qVOwtvGlzC55qqiVqXS44XsG7BrT3i52AIiOYyiZWWdaFlRAsvfj5YTXmRoHIs22IF5PaeJxgTL+JWn2t+CWkE+EL1OgPkUvpr5DOZtF1/EyxuwawxH96FPo8edDRHq5w1PV6Agaz+WRT2vy/AHu8OLqlul7x+FRb0aQXqUfqXuXITJSw+o/pw661Zp5c3T+pD1AFo3Q2lWvEd8aESfa5ZscrsVe0aID3fRfXQmDFkSh/8cnYjH58n2GgOMxhzxfCdLeWOXGfho9A3YYi1T3mh7o9Eglrd1Qz2ImR+Nwg1bREqOcWwMj2pIFqAABaqPQJkxL3XEuewt/Dd3OQaLMRpJaIlxy19Bg+8iMcz2Nb6UTvELcLr8ht9yH0ZHLoSSfcRLtkSM81ttZ8tLY9FaEYNb95Q895nEGIxl/zmqtIi72xFeLn0+bVnOrdJXaHm53PXgYvN8MRXZNdQHub9koLXfNstYFxloOqfje897Yfo/S5eSfFVceMnEj9EDMHmDrMfSzTfsVjfsf0+0aKVZxuG4W7uIlMtUxCjERT+IWifWY8SgRUgS3YcmjzTr3D1i8O6gOYh+rDHc9n9g6f4rE14MCG1YBwH5p3AwUTZG+KHdlDcx6T9BOP2V7bp4dT9WdocXVZPUeYWh+4hR6FLfjINrYvG/wxcjvdbWF2dNUqe8mToE4PTWuRg+ayvSRZqMfGUe+vl9jbHioO6H5cPdNTceYycuE3cYiQMb+Qrm9/OzflsJRP/Xl6JP4ScX/y4PfN8CxFsHcSl1NNyJZ6PeUO5QChQnkOV9gE/GTkScGJltDB+EOdG9URB/8U1+dQ87a6MABaqFQDkDdpUxfuMi8Pu8J8S4jBwogze75iLeen6CfztMemMcmu6bif5zd5a4AO8T61vd8zxiBovxKOL2TGOLpzF/2iMI/8syALbogl3s/Ge5EF4csFu6PmP4ALwyvx/8vn5BfJnbX/buJlsIsE4/cfnzaU/14eWy14Py3iWWMTgDmgDHVj9pCX1GEZBWiRYpF9GdI8dOWpv1yw0vxW1w5Zai0ltgGbBbIFo9TmDHl9uRHCwHNNeBMds2eLa1CKRT0TE0H4nb1orxKJ5o3u0h3C7+f/97cmC1nzLXTc+wfBxe/RpitgC3PSnurr01CP9seB6R0SKWthyL5bMfQOi5P7Bh/SZs/tAN/dZF4Q7P09jxTgziE2ui6+Dh6NxADKNZUmx86FX8UNkdXlQ/HsAWYOqdwBonjHlx1uMBLG+mBHyd1BTtmrjD7OIJ1/RdeO+FyVhlu/Mn7EFMmDwY7ep5odDsBpeCk9jx5jRMt83IGPYwZs19Cnf4mZFV4A5v13T89N6LmLTKOkDM2rQa4W3G7sViHM3aOug161UMvsMPF7IK4OHtivSf3scLk1bbNUnUVXw/sCoKUKAqCZR7t5FJXHzfwQC/zUVf2LpMmIgh7erC05wHF9EfkHV0E14bs0jp1i55t1FbRC0cgy7i3JgvvvR7/HsQW/eb0KFGsXmtSp//kkrdbSS+IBbVV2iGm0tBiUnzyptXpmRr9uXOp1cOA2XvNrrC9aCc94NRhriBfthQ1EJvaZ3vjZUlhiSU2Zcy14Yrb2/54eUPrP7wX3QaECGuP7L75hg2zBuFGNnlI1/yGjV7IFoGi+ub/H9zBo5uXIgxMZahDWX+LiYuTN6/AnNfskz5AXGM+s+fj8eb+4oeFHEXktjP9wJHiPdEZzTwtfapyHV++wFemW3fZIfO/ljZHV6U/VX9YMYaqN+oJv45lAj19xZd3FVnPpix+Jtpn5z22jPZ2gxWlvZK02LLkfsXm97sODTKVN2eqqfntmPNXIQCFKCAYwLGUDQMC0D+ZabWt1VwpXOjXRui1OeDTJWPKyhatxPOp2quB3bt01VYyNLyYh3zIg1rAf9c4gYQ5TgF5ImnJfxdbB6zixtp+TsufU0S6w/1OI3TxR61oFz3jFmXXOdVIFCqUBVefH19xURxQTh7VtxKdRVfNWsGignyUpQZfh19lZfqHV0ny1OAAhSgQOUTqIzXgxLhpfKRO22LVYUXWatsfTGbzWLwaZbTNuJyKzIaveHm5obEROfM5tYy6m1Munk/Zj29qNit0ldlV1gJBShAAQpcQwKV8XrwiJi597EmB8XEcZNFJ1X1fakOL15eBiXAyNYXs/lChcrJ26Nlq4sMLrm5nEq/QrG5cgpQgAIUoEAlEVAdXuR+yTuP/Px8kZaWpvpZR/a6yEnpAgICcO5chpihN8XeYlyOAhSgAAUoQIEqLqApvEgTk8kEOZA2PT3d6QFGBhd/f3/k5OQgKcnR5ylV8SPI3aMABShAAQpUMwHN4cUWYIxGozKQ1lldSLaZdLPFDHAMLtXs3cjdpQAFKEABCtgh4FB4sXUhBQYG4vz5TIcH8crBuTVq+IhuolR2Fdlx8LgIBShAAQpQoDoKOBxeJJocxBsSEqzcFZSTk61096h5ye4ng8Go3MV05kwyB+eqweOyFKAABShAgWom4JTwYjOT88DIsSqenl7Iy8vFhQv54seMgoKConExcjyLq6sr3N3dxI9H0bJy7Iwz5nGpZsePu0sBClCAAhSodgJODS82PfkoAR8fX9Ga4gX5b1dXMcW+i4vy58LCQhFmzMjPzxctNLnIzMxQ/s0XBShAAQpQgAIUsEegQsKLPRVzGQpQgAIUoAAFKKBFgOFFixrLUIACFKAABSigmwDDi270rJgCFKAABShAAS0CDC9a1FiGAhSgAAUoQAHdBBhedKNnxRSgAAUoQAEKaBFgeNGixjIUoAAFKEABCugmwPCiGz0rpgAFKEABClBAiwDDixY1lqEABShAAQpQQDcBhhfd6FkxBShAAQpQgAJaBBhetKixDAUoQAEKUIACugkwvOhGz4opQAEKUIACFNAiwPCiRY1lKEABClCAAhTQTYDhRTd6VkwBClCAAhSggBYBhhctaixDAQpQgAIUoIBuAgwvutGzYgpQgAIUoAAFtAgwvGhRYxkKUIACFKAABXQTYHjRjZ4VU4ACFKAABSigRYDhRYsay1CAAhSgAAUooJsAw4tu9KyYAhSgAAUoQAEtAi4RES0KtRRkGQpQgAIUoAAFKKCHAFte9FBnnRSgAAUoQAEKaBZgeNFMx4IUoAAFKEABCughwPCihzrrpAAFKEABClBAswDDi2Y6FqQABShAAQpQQA8Bhhc91FknBShAAQpQgAKaBRheNNOxIAUoQAEKUIACeggwvOihzjopQAEKUIACFNAswPCimY4FKUABClCAAhTQQ4DhRQ911kkBClCAAhSggGYBhhfNdCxIAQpQgAIUoIAeAgwveqizTgpQgAIUoAAFNAswvGimY0EKUIACFKAABfQQYHjRQ511UoACFKAABSigWYDhRTMdC1KAAhSgAAUooIcAw4se6qyTAhSgAAUoQAHNAgwvmulYkAIUoAAFKEABPQQYXvRQZ50UoAAFKEABCmgWYHjRTMeCFKAABShAAQroIcDwooc666QABShAAQpQQLNAhYQXDw8P+Pj4wmDwgvy3q6sbXFxclI0sLCxEQYEZ+fn5yMnJRWZmhvJvvihAAQpQgAIUoIA9Ak4NL76+vvD394enpxfy8nJx4UK++DGLsFIgQsu/yva4uFwnwowr3N3dxI9H0bLp6enIyMiwZ5u5DAUoQAEKUIAC1VjAKeHFy8uAkJBguLm5idaUbPGTo4rUYDCIVhojzGYzzpxJRm6uuvKqKuPCFKAABShAAQpUagGHw0tgYBACAwNx/nwmsrOzHMIwGr1Ro4YPUlNTxU+KQ+tiYQpQgAIUoAAFqqaAQ+HFZDLBaDQq3T1m8wWnCLm5uUN2P2VnZyMpKckp6+RKKEABClCAAhSoOgKaw4sMLrK7R45VsY1ncRaLHBcjx87I7icGGGepcj0UoAAFKECBqiGgKbzIriI/P1+kpaU5PbjYWGWACQgIwLlzGexCqhrvNe4FBShAAQpQwCkCqsOLHJwbFhaGs2dTndZVdKk9kV1INWsGIjExkYN4nXK4uRIKUIACFKBA5RdQHV5kcJF3BTk6ONdeOjmIV97FJAMMXxSgAAUoQAEKUEBVeJEDaYOCgpRWl6v5kq0vKSkpnAfmaqKzLgpQgAIUoMA1KqAqvMhWFznxnNp5XBzddzkwWE5ox9YXRyVZngIUoAAFKFD5BewOL3Ka/zp16iI5+bQuex0cHIrjx4/xUQK66LNSClCAAhSgwLUjYHd4kXcYeXvLOV3OObD1N+Pxid1RsOE1xP+aq2o9vr5+yMrKdvzOI/8b0cQEJB38G+nlbKgL6vkAACAASURBVIGxRW9ENjqMuM9+RbYxFA3DfJCZeASns1Vt7qUXlvUH5SPxyGk4a5VO2jKuhgIUqGoCyvnOu9hemZGm8nxmDG2IMJ9M7ecsYwv0iQzHobgV+LXCT3p+CGtyvTzBI7G8E7yQCLt3IDp4b0HshuMVfrRLXE/Kre3K21u6mH9YE5iMlziOxrYYNrkHwhLXYuaS7dZrWACQdhxHTjtp5nrluhgAt+xTOJjoSB5wjN/u8FK7dm3lgYqOdRldjy7jxqF7vWz89M5MxKoIMLLrSD7g8cSJE47tcf9obB4IfPjAaHxUzpq6zVqLkRH78fpDk7H+zvGIn3EL9k7pj9k/OFZtUWlZf7ckTOk3B85apZO2jKuhAAWqmoByvmtacq8K8nByx1t4afpG2HMbxJ0TPsKM5vvsPmeZ2jyCzr4H8OGm3y31dpuJdSMjsP/1Hpi0vqKBH8PCzZHiBN8Jo8o7waMxnn0/Gv/F5xj11Fs4WMGbU+J6IuoqY4MrbW/ZDey/8EsMbJaCr8u7LrUci+WzH0Do6c2Y8Ph8/KJcw9oDX7+EfrN/dM7eWtcZ9HscHhj1sXPWqWEtdoeX+vXra5pJN7BdJCJvq6lsmqFmLQR4e8Do5Q6XwrPY+dZkLP3Nvq22zbybkJBgX4FLLXWF8FKiGMOLY9YsTQEK6CtQzvnOv9VwzJ7aEbnxQ8QF/sqzmKsNL8rypi90urCpDwNX8wCVtVG/vZcNLzAgtGEd+GRaW1oYXoDw8Ebijp9k1ZPSFQ8vypvkOj/c0CAExtwEfD53Pjacsu+tIyetCwoKxuHDh+wroDG8NHl0Mp4OP4x3Z3yKg2XCSx10Gf002nnuxjuzV+OIeKOEdx+KQV1vRRPvbBzc/QVi316Pw8WaRv1bPYphfe/HrTcCf/+wCjFnOuJ9trw4dgxZmgIUsE/gEl/W+kZvwCDEofPoT5X1GMO7YeigrritiRFZB/fgi9i38flhSzdDmfDi3wqDRvZB64b14J11EL9/sxIxsptdLNt++Dz0uqsxGnmewT4xRnHXuzPxCfpiytPhOCz/bW3quFx9yjk4aDteT2iOqF6tcSP+xp4vPy6qw7K97RH5WG+0ae6P/JMH8N378xD3q9xeaxhYPh576g7F/fLvCT9iVcxCbLA2M8lt7IoNeP6NLShb1xn88f1yvB67q9xhBcHdx2DCTUcxb+46WGLffRi+oAuM2xZg7lrLb0w9xmFc07+w+JWV8Ch2PalVns3BK29v6QN9+fBi2Z56f1n2D2XCSx30enE42gSdx5+rFuOdHeIZgsrxfBx3N70BHmn7sGNFPOK+PnxxWEPR30OAI19hyeYQjJnUHpWm5aVRo8biic9XTumX/0RZu41qpeG7uHmqx72EhJhw6NCf9n1oNYaXEh/UEuHFD+0mLcL4mw5gzvBXsVX0p9455kNMvTcfOzdtR2JOACI6P4BmZ1dh6LMfKM2xxrbj8c6Uu5C3YyO2JeYioHkn3BpciOtd7W+CdWxnWZoCFKjWAuWGFwP6L1yFfnlvo9v4deJENhpLp96LCzut56mITujY7CxWDh2O98WJrMQ50fgQ5sQ/iyYp32PT+t+QZGqFXg81Q3LsMIz+NEmcAyPRqWt30W30Bz7asg+HNq3Ejrqlut9L1WcIa4vObbzw/ctPYJ7oS7fUV4C/Mg9jzw6xAfLv94Tg4OJ+GL9WBBRlG4aiXsJXiF+7G4Z7H0fflln4bIQYCpBoCQP1sv5BwrdbsTfNC2H3PIh7jDuLur2Ui78IbrLLw1bXKZdk7Nm0D2mGMNzT+S547pyFIbPFmJHSbx55TXjZhPUPi7rkHztOxZpxbWAQXSgPi/Vliy+00vaRc9HoOXVzCbvz5dkkXXl71YUXy/qa2bp0SoSXJPSaMxdP3+aDlK+t+xcmll8klvfMQ/KxkyioFQaTAUhcMx5PvblfVN0a45ZPRcdQV5hzMpHzrwcM5jzkihn2a1SWbiNt4cVLPHHaTQyyPW/1lwN2OyN71SKs/lPdgF25Av3Cy7P4oYMMLkexaOI0S4I3Poy5n/VDTswTmPqVdSCU9XfnF/TG9C0mcfA/wIPJ0XhCvIktH4I6GLLkLfT2+9bu/uNqfeLlzlOAAo4JlAovcrBn87sH4OknmuHkEhkGgF5zP0W/nEXFzlMGy+/Ov4ZHpm8tFV5C0fyeZnDZ9k3R4NuO01ZijO+KolacMl0jJb4EWoNT/nvo88Jq63nRgI7TlmJM8EYMFF/86srw0joB0f2nYINy4iwdtmQYugGbHopCnPJ3E1q0CcWpX/eKGyssF+8aq4dg8FvWAbmmp7FkWTscs44RKRNe2mVgxZBn8I61ZcYoAsnSMcHYOFCEtzLf19vhpZUvoOaaXqLLLUexGWk6AzTMxafdXsRaiGC1fgByYx4R14WyrVaX6ja63PY6J7xMxxsYiikdQpEnQscIEbTk7vaY8z88d1smtr48GLO2y2B4K8a9NRsdA3djsdifr3rNxWfDmgMHl+PZEctEGQPaTnoPL7cLAipLeFHfbXQ97n7mOTx281msffY1iOPo0OtqdRuVbXlpgZTfLyC8UQY+HTYcsbYRbjJxj6yFX1bswMUhxDXR8qHOcN8YiWHv3Ixpa0bAK+6/ygnC9jINeQvL7jvG8OLQu4GFKUABuwTKHbCbjv3xr2JSnOzqeUCcp6JQ65eV2F7sXojAlqL1xP1LDBj2riVMlBiwK+6Qub012kTUQ91GDdGgYTPU/Wd50RiXy4cXWd9o+H7SRbTUFNuDHq9i/WDgPXHBTCpngHCJdVpbf27JOYBvRevKzs07savo7s3yxpDI33VF0qXCS8Qey+DWos2R21j23G37swxrUV7LRKvVQUTFzkJg/BsoGDIcru+IwCL+WxPlhTglyNgfXkoOMC65vc4ILz5p6SgI8Ifx+Bo8NXiJdaB2a0yIn44Ofqk4euAksqwVeZlEt19IpjIgeGs7cew7BIns0gMj4qxf0qv2gF1rcLnFF6e++wDLf7DcTpWT/BeSbI0wdn3yLi50tQbslg0v7WFMPICUoEYlmxL7LsCmASE4+mcSSrchpe96DzM+aYHoTb2R8ZolgdtexsgYrOt8kuFF5fHn4hSggAaBUi0vRhES4oeF4uuxTyJG9gqI8SjRm/oj5OifSCpzIvtZGfvnXzxMiG6G6JjH0aTgHxw5loSTR35DalgP9DF8bmd4kfX1QMqMfuKbfrH9afsiPns5BOvEXaBHrxReZDExDqPnoAfRPuIm1KlVE+7JmzFz2Hxst7a8XC4MlGl5qbtVCWkXG1ksF3XT+kvcsSSDVmQuYl48i37za2GdCCrZItD0S52Et40vYXLNVUWtSqXHC9k3YNf54SUIZvFYHze4uZzG1zOGYrZsZRFdQkp48TmDQ2WuY+eU8UrHeljCy+/F796qbOFF1a3S94/Col6N4FbOZy115yJMXnpA9afwat0qfakxLzGulvErKctGiuZC0Ryp3JLWAN8NEM2N5Q4Fain6Cl9B05+iMCjm4jgdmdrHNdrF8KL6HcACFKCAaoEyY14sXdf/zV2OwaLrIAmW81SD72RrcfljGoufE9OjPsCilvswOnIhlOwjXso5zW+1neGlsWitiMGte0qeF5UW6f8cVVpA3O0IL0ajQTxfz9Zd/yBmfjQKN2yR62xZzq3SV2h5aX0I83pOu9g7oHQz3SNClBiDc7E5phi97Brqg9xfMtDab5tlrIsMNJ3T8b3nvTD9n6VLSb6ulfDi9eNCDPruDrwnxuf4nduBeU+I/c22HIvu1x/GJ8W6yJR5ZGCZw6WJPN7db8C5ba8qXYjyZRTvqdXi9nvXytJtpGqSOq8wdB8xCl3qm3FwTSz+d/hipNfa+uK0SequcKv0pQfsijfiuKV4+e5ULFMGhllOAl1z4zF24jLlDiP/di/ijfFNsW/6AMzdCUSIAz+/wznEj52IODFyX/49Zvw9uD6dY15Un4RZgAIUUC9QzvlOGdMxLgK/z7OM1wsTweGdrrlF5ylxosKkN8ah6b6Z6C9OZMXPifvkhavnecQMFuNRxE0LxhZPY/60RxD+18U5P5TlG+7Es1FvWO68LHXXZun6jOED8Mr8fvD7+gURPvaXvbvJFgKst18Him1Y3gf4xHpeNYYPwpzo3iiIl6Ghp/rw0iEAp7fOxfBZW5FuDEfkK/PQz+9rjB20qCiglYS3jMEZ0AQ4tvpJS+gzioC0SrRIuSRgRbEgUG54KW5T7jwv9rS85OGMuHmlRGuZcofR9ZcZsLsPbSe8bRn3sv8DDJX9dqIH4e3BEWKE7vf4dOkKnLyhN57oezfCIMa89BNdX75P4s0P+yJc3Hu1/8sN2JsrBjR3ugs3eLtWnvCi+vEAtgBT7wTWOGHMi9MeD1BeH7B8Z1pT5OXCixxw23/h6xgQ9CNmyzuOfB/EhMmD0a6eF8x5LvB0zcLRjQsxJsY2Sl3cljbrVQy+wx8FeYVwMx/Esi+vw8D/cJI69WdhlqAABVQLlPtlzSTOY+9ggN9m6wVaTAExYSKGtKsLT3EniYunK7KObsJrYxaJbpjSdxu1RdTCMegiznn5onHB49+D2LrfhA41is3rYu1aivA2Y/diMeYvqfRkn8XqKzSLroyCEpPmlTevTMnuFtt51Q8XsgrgIS6k6T+9jxcmrRZjOTSMeWmegK+TmqJdE3eYXTzhmr4L770wGasuM4OfpfXBDxtGiO435fZvk/gyG4feWFmiC6rMvpS2WXvl7S19zC23SpfzTlCuYbhMeBGT1IkZeCe8MwkdQvNFV5DsRTiDtlELMObBBvC1dpWYM45i42vPI0bpWhI3e/WaibmDW0HcewOYU/HTV0dRv8sdledWaWUnVD+YsQbqN6qJfw4llhkXouZDeK0/mFGZPjsg75KPHMAVHkmgxoLLUoACFKgQAeu07/mXmVrfVq/DjwyQK3L08SvKedVT9eMOituVaFWS53HPZF2nvK+Q42rXSi2PKfC45GME5N+Dkafy0RJ2Va1xIbtn2JXr9/X1FRPFBeHs2VSN1WkrVrNmoJggL0WZ4ZcvClCAAhSggDME1M4e7Iw6uQ7nCKgKL7bWF7PZLAZL2W6scs6GXGotRqM33NzckJhoz1M4KnZbuHYKUIACFKg6Ai2j3sakm/dj1tOLit0qXXX2ryrvierw4uVlULqPZOuL2XyhQm3k7dGy1UUGl9xcJz0Rs0K3mCunAAUoQAEKUKCiBVSHF7lB8s4jPzE9cFpamupnHdm7Q3JSuoCAAJw7lyFm6BXPX+CLAhSgAAUoQAEKCAFN4UXKmUwmyIG06enpTg8wMrj4+/sjJycHSUmOPk+Jx5kCFKAABShAgaokoDm82AKM0WhUBtI6qwvJNpNudnY2g0tVeqdxXyhAAQpQgAJOEnAovMhtkF1IgYGBOH8+0+FBvHJwbo0aPqKbKJVdRU46wFwNBShAAQpQoKoJOBxeJIgcxBsSEqzcFZSTk61096h5ye4ng8EoWm/MOHMmmYNz1eBxWQpQgAIUoEA1E3BKeLGZyXlg5FgVT08v5OXl4sKFfPFjRkFBQdG4GDmexdXVFe7ubuLHo2hZOXaG87hUs3cfd5cCFKAABSigQcCp4cVWv3yUgI+Pr2hN8YL8t6urG1xcXJQ/FxYWijBjRn5+vmihyUVmZobyb74oQAEKUIACFKCAPQIVEl7sqZjLUIACFKAABShAAS0CDC9a1FiGAhSgAAUoQAHdBBhedKNnxRSgAAUoQAEKaBFgeNGixjIUoAAFKEABCugmwPCiGz0rpgAFKEABClBAiwDDixY1lqEABShAAQpQQDcBhhfd6FkxBShAAQpQgAJaBBhetKixDAUoQAEKUIACugkwvOhGz4opQAEKUIACFNAiwPCiRY1lKEABClCAAhTQTYDhRTd6VkwBClCAAhSggBYBhhctaixDAQpQgAIUoIBuAgwvutGzYgpQgAIUoAAFtAgwvGhRYxkKUIACFKAABXQTYHjRjZ4VU4ACFKAABSigRYDhRYsay1CAAhSgAAUooJsAw4tu9KyYAhSgAAUoQAEtAgwvWtRYhgIUoAAFKEAB3QQYXnSjZ8UUoAAFKEABCmgRcImIaFGopSDLUIACFKAABShAAT0E2PKihzrrpAAFKEABClBAswDDi2Y6FqQABShAAQpQQA8Bhhc91FknBShAAQpQgAKaBRheNNOxIAUoQAEKUIACeggwvOihzjopQAEKUIACFNAswPCimY4FKUABClCAAhTQQ4DhRQ911kkBClCAAhSggGYBhhfNdCxIAQpQgAIUoIAeAgwveqizTgpQgAIUoAAFNAswvGimY0EKUIACFKAABfQQYHjRQ511UoACFKAABSigWYDhRTMdC1KAAhSgAAUooIcAw4se6qyTAhSgAAUoQAHNAgwvmulYkAIUoAAFKEABPQQYXvRQZ50UoAAFKEABCmgWYHjRTMeCFKAABShAAQroIcDwooc666QABShAAQpQQLMAw4tmOhakAAUoQAEKUEAPAYYXPdRZJwUoQAEKUIACmgUqJLx4eHjAx8cXBoMX5L9dXd3g4uKibGRhYSEKCszIz89HTk4uMjMzlH/zRQEKUIACFKAABewRcGp48fX1hb+/Pzw9vZCXl4sLF/LFj1mElQIRWv5VtsfF5ToRZlzh7u4mfjyKlk1PT0dGRoY928xlKEABClCAAhSoxgJOCS9eXgaEhATDzc1NtKZki58cVaQGg0G00hhhNptx5kwycnPVlVdVGRemAAUoQAEKUKBSCzgcXgIDgxAYGIjz5zORnZ3lEIbR6I0aNXyQmpoqflIcWhcLU4ACFKAABShQNQUcCi8mkwlGo1Hp7jGbLzhFyM3NHbL7KTs7G0lJSU5ZJ1dCAQpQgAIUoEDVEdAcXmRwkd09cqyKbTyLs1jkuBg5dkZ2PzHAOEuV66EABShAAQpUDQFN4UV2Ffn5+SItLc3pwcXGKgNMQEAAzp3LYBdS1XivcS8oQAEKUIACThFQHV7k4NywsDCcPZvqtK6iS+2J7EKqWTMQiYmJHMTrlMPNlVCAAhSgAAUqv4Dq8CKDi7wryNHBufbSyUG88i4mGWD4ogAFKEABClCAAqrCixxIGxQUpLS6XM2XbH1JSUnhPDBXE511UYACFKAABa5RAVXhRba6yInn1M7j4ui+y4HBckI7tr44KsnyFKAABShAgcovYHd4kdP816lTF8nJp3XZ6+DgUBw/foyPEtBFn5VSgAIUoAAFrh0Bu8OLvMPI21vO6XJOl6339fVDVlY27zzSRZ+VUoAClVrA/0bc3roNIoyn8P2OXThyWsMs5sYW6BMZjkNxK/BrdqXW4MZXAQG7w0vt2rWVByra1WXUtB+mPHkb/C4LdA6/fDAT8X/Ypyi7juQDHk+cOGFfAS5FAQpQoNoLGNA2aiHGdamN67JzYIY7DD5uSN72BiZP3wjLbRAmtOndCb4H4rBp/2XAus3EupER2P96D0xaX+1hCaCzgN3hpX79+vbPpHvzQLz67B3wN+chK88MN09veLqJPS3x/+n46c2JiP3NPgHbzLsJCQn2FeBSFKAABaq7wH1TsHJ8OPbMHoFZWy2t5sYWw/DazC7IiO2LF1bJFpjWmBA/Hab1nTDqo+oOxv2vLAJ2h5fw8Ebijp9k+yalq9sLU55vD7cd0ZgafwRdxr2J7vUFScLneGbeRjTsNxVj2pjxzYJZWHnMPio5aV1QUDAOHz5kX4FLLNXk0cl4Omg7Xk9ojqherXEj/saeLz9GzGe/oqgl1L8VBo3sg9YN68E76yB+/2Zl0d8t5X/CkuNNMaLP3QjI2of/WzIPK9ANUY93wq2hF/DHNx/g9dhdSC/aBj+0GjQST9x9E0JwBn98v7zU3x3aJRamAAUoUK5A8ODF+LhDIqb0m4Mfii0R0TkSN2V8iRU7bsLwBb1wV+NweJ7eh+PHfsa7Mz4FrOe5ZZl3Ytj9t+DsukcwcX9fTHk6HIffnYlPDt4nyrVFSux6ePYaivubG5G1dyfiY5fg22KzWvi3GoSRT7RF0xDg7x9WIWZvfYxsm6LUcZDHjAIOCNgdXho1aiye+KztWUOlw4vW7Q0JMeHQoT+1FlfK3TnhI8xoXoC/Mg9jzw7xKQtri873hODg4n4Yv1Z8CzE+hDnxz6JJyvfYtP43JJlaoddDzZAcOwyjP026WD71N+z4+QxC7+iJ+0PScTIrFXu37ENawC3o0ikc/ywbIr7FSC8T+s5fjIFhx/DVBvF3QxjadLoT/rsXYuD0zRcDk0N7xcIUoAAFyhGQLS8Tb0FC7FS88vEfxb5Q2ZZths4DO6LrQ53hu/9jbNl3GJtW7EBdeZ683QOncv7Enq8P48DPokupxnjEz7gFe6f0x+wfHsPCzQ8j6FQmkvdsxd60ADTv0hE3ZW3E2EGLIHufjG3H450pdyFvx0ZsS8xFQHPx5S64ENe77isTpnjsKKBWoHqGl9YJiO4/BRuUphYD+i9chX55b6Pb+HXiExeK5vc0g8u2b4oGpXWcthJjfFeg8+hPLeGl9SHM6zkNX8nixgFYtK43shf/V4QfC3/f6A14NCMaPaduBiJGIW5+Y2wf8gzesX0jUX7XEN8NHI73teVBtceZy1OAAtVSwIAWkdMw4dHm8C/IQvKJX7H7y42IXVO8Zbhst5HlPFf8PCm/+ZUOL5GosXoIBr913CKr/L0xdo54EjEHTXjqzQ/wYHI0nhDnQUurtuV3jwZ8y/BSLd+Lzt1pu8OLqm6jUtvojJYXZ3UbWVpeSiZ/5XemL/DAqI+tW+6HsNtbo01EPdRt1BANGjZD3X+WK38vW15+A+mKJOXbiPUzXGx9piFvYVmHTKzZ+HuxVpYGuK9/Uxyb9wimKgmILwpQgAIVKSDOaffeh17tOqFVqzoIOL8b770wGauUL1SXCC+lzpPlhRd8WHycTPFz4QOYtmYEvOIufqlT4os8H953jOGlIg91NVm33eFF1YDdCggvzhqwe8XwEvYYomMeR5OCf3DkWBJOHvkNqWE90Mfwuabw0nLcUsxunY99x9PKvKX++mIc3vimmrzTuJsUoMC1IWBsi0nvv4RbD7yKR6ZvraDw0hfRm3oj47WSX9CMkTFY1/kkw8u18U6o1Fthd3hRdat0EUkNmOoF4+5Hx6FDmPhl4jeY+8k2JP91GudVsjnrVukrhZcmUR9gUct9GB25UOm3lS/ZbTTOb7Wm8IK+C7Dp0Qy8ZutmUrnfXJwCFKCAVoH2w+fh/tyVmPjejyVW0WPO/zDM4yOlK7xiWl4aIyo2Bi33PY/IaNuZ1IBecz/FsBu3M7xoPaAsVyRgd3jRNEldxzF4s2dDuJQAL8SRNc9hgcruEmdNUnel8GLsH43VPc8jZrAYEyNuFzK2eBrzpz2C8L/itIUXo2g+XToaDfbMxfBZW8WAOQPCI1/B/N7/Ij7yeXxydR8Txbc+BShQjQRMT72BD3v74sfFMzDn88Oi69oPzR4ehReHtERK0U0Flm6jhjuGI2qRXMZ2Y0OpgbXljHm5dLeR6CISX9zeHhSMP5a+h7jd4uaG+4bjmc61EZi9k+GlGr0HK2pX7Q4vmh4P4NUI/3mgcanJ6tJxaPM2/Jmrbpec9XiAK4UXMUQeUQvHoEs9L+SLm488/j2IrftN6FDDMiZG7ZgXuZfGFgMwfcKjaO5fgLxCT7gVJOOX2EmYtMo60E0dBZemAAUoYKdAHXSZMB5P3dsAvnKuLfkyZ+DoV4sxIVp+mbK8wvovQMyACHibd2NxtxeRVM7YQHVjXuRaxRe1PuMwodctCHAHshLWYcFvt2Fe5ySGFzuPHhe7tIDd4UV5g1ejBzMaQxsizCcTiUdOO+12Zv+wJjB5pDl1nXxzU4ACFLiygBiw2+R6GM1X8/xjgNGYg+xijxJQBuz+5ygmPD4fv1x5o7kEBS4poCq8+Pr6ionignD27NXt66hZM1BMkJeizPDLFwUoQAEKXPsCzUfFYvbtx/Duqwux+vd8hDbvgeenDET9fbaBwtf+PnALr10BVeHF1vpiNptFms66KntlNHrDzc0NiYnFpm28KjWzEgpQgAIU0CwgHuQYOWk4/nvbjUqXVUGemMxz1yrMnvcZDvPBjppZWdAioDq8eHkZlO4j2fpiNl+oUEd5e7RsdZHBJTdXw1NQK3TruHIKUIACFKAABfQQUB1e5EbKO4/8/HyRlpZm37OONOyZnJQuICAA585lIDU1RcMaWIQCFKAABShAgaoooCm8SAiTyQQ590p6errTA4wMLv7+/sjJyUFSEufPr4pvPO4TBShAAQpQQKuA5vBiCzBGo1EZSOusLiTbTLrZYog6g4vWw8pyFKAABShAgaor4FB4sXUhBQYG4vz5TIcH8crBuTVq+IhuolR2FVXd9xz3jAIUoAAFKOCQgMPhRdYuB/GGhAQrdwXl5GQr3T1qXrL7yWAwitYbM86cSebgXDV4XJYCFKAABShQzQScEl5sZnIeGDlWxdPTC3l5ubhwIV/8mFFQUFA0LkaOZ3F1dYW7u5v48ShaVo6d4Twu1ezdx92lAAUoQAEKaBBwanix1S8fJeDj4ytaU7wg/+3q6gYXF8sTjgoLC0WYMSM/P1+00OQiMzND+TdfFKAABShAAQpQwB6BCgkv9lTMZShAAQpQgAIUoIAWAYYXLWosQwEKUIACFKCAbgIML7rRs2IKUIACFKAABbQIMLxoUWMZClCAAhSgAAV0E2B40Y2eFVOAAhSgAAUooEWA4UWLGstQgAIUoAAFKKCbAMOLbvSsmAIUoAAFKEABLQIML1rUWIYCFKAABShAAd0EGF50o2fFFKAABShAAQpoEWB40aLGMhSgAAUoQAEK6CbA8KIbPSumAAUoQAEKUECLAMOLFjWWoQAFKEABClBANwGGF93oWTEFKEABClCA4y4TDQAAIABJREFUAloEGF60qLEMBShAAQpQgAK6CTC86EbPiilAAQpQgAIU0CLA8KJFjWUoQAEKUIACFNBNgOFFN3pWTAEKUIACFKCAFgGGFy1qLEMBClCAAhSggG4CDC+60bNiClCAAhSgAAW0CLhERLQo1FKQZShAAQpQgAIUoIAeAmx50UOddVKAAhSgAAUooFmA4UUzHQtSgAIUoAAFKKCHAMOLHuqskwIUoAAFKEABzQIML5rpWJACFKAABShAAT0EGF70UGedFKAABShAAQpoFmB40UzHghSgAAUoQAEK6CHA8KKHOuukAAUoQAEKUECzAMOLZjoWpAAFKEABClBADwGGFz3UWScFKEABClCAApoFGF4007EgBShAAQpQgAJ6CDC86KHOOilAAQpQgAIU0CzA8KKZjgUpQAEKUIACFNBDgOFFD3XWSQEKUIACFKCAZgGGF810LEgBClCAAhSggB4CDC96qLNOClCAAhSgAAU0CzC8aKZjQQpQgAIUoAAF9BBgeNFDnXVSgAIUoAAFKKBZgOFFMx0LUoACFKAABSighwDDix7qrJMCFKAABShAAc0CFRJePDw84OPjC4PBC/Lfrq5ucHFxUTaysLAQBQVm5OfnIycnF5mZGcq/+aIABShAAQpQgAL2CDg1vPj6+sLf3x+enl7Iy8vFhQv54scswkqBCC3/Ktvj4nKdCDOucHd3Ez8eRcump6cjIyPDnm3mMhSgAAUoQAEKVGMBp4QXLy8DQkKC4ebmJlpTssVPjipSg8EgWmmMMJvNOHMmGbm56sqrqowLU4ACFKAABShQqQUcDi+BgUEIDAzE+fOZyM7OcgjDaPRGjRo+SE1NFT8pDq2LhSlAAQpQgAIUqJoCDoUXk8kEo9GodPeYzRecIuTm5g7Z/ZSdnY2kpCSnrJMroQAFKEABClCg6ghoDi8yuMjuHjlWxTaexVksclyMHDsju58YYJylyvVQgAIUoAAFqoaApvAiu4r8/HyRlpbm9OBiY5UBJiAgAOfOZbALqWq817gXFKAABShAAacIqA4vcnBuWFgYzp5NdVpX0aX2RHYh1awZiMTERA7idcrh5kooQAEKUIAClV9AdXiRwUXeFeTo4Fx76eQgXnkXkwwwfFGAAhSgAAUoQAFV4UUOpA0KClJaXa7mS7a+pKSkcB6Yq4nOuihAAQpQgALXqICq8CJbXeTEc2rncXF03+XAYDmhHVtfHJVkeQpQgAIUoEDlF7A7vMhp/uvUqYvk5NO67HVwcCiOHz/GRwnoos9KKUABClCAAteOgN3hRd5h5O0t53Q5p8vW+/r6ISsrm3ce6aLPSilAgUot4H8jbm/dBhHGU/h+xy4cOa1hFnNjC/SJDMehuBX4NbtSa3Djq4CA3eGldu3aygMV7eoyatoPU568DX6XBTqHXz6Yifg/7FOUXUfyAY8nTpywrwCXogAFKFDtBQxoG7UQ47rUxnXZOTDDHQYfNyRvewOTp2+E5TYIE9r07gTfA3HYtP8yYN1mYt3ICOx/vQcmra/2sATQWcDu8FK/fn37Z9K9eSBeffYO+JvzkJVnhpunNzzdxJ6W+P90/PTmRMT+Zp+AbebdhIQE+wpwKQpQgALVXeC+KVg5Phx7Zo/ArK2WVnNji2F4bWYXZMT2xQurZAtMa0yInw7T+k4Y9VF1B+P+VxYBu8NLeHgjccdPsn2T0tXthSnPt4fbjmhMjT+CLuPeRPf6giThczwzbyMa9puKMW3M+GbBLKw8Zh+VnLQuKCgYhw8fsq/AJZZq8uhkPB1+GO/O+BQHrcu0Hz4PbVPew4xP/rR8uMPbI/Kx3mjT3B/5Jw/gu/fnIe5XWzOrAeHdh2JQ11vRxDsbB3d/gdi31+Ow0ox6H4YvaIuU1b/g+p69cKffXsx9ehH8lPXH4XPPhzHs/lvgnbUPO+Lj8Na3x4u20r/VIIx89A40rGdE1sE/8M1nMfjMWqeyzUE/YcnxphjR524EiPL/t2QeVqAboh7vhFtDL+CPbz7A67G7kG5bo38rDBr5OO5uGgKcOYDvl76O2F36dPk5dMBYmAIU0CwQPHgxPu6QiCn95uCHYmuJ6ByJmzK+xIodN4lzVi/c1Tgcnqf34fixn5VzI6znnGWZdyrnrLPrHsHE/X0x5elwHH53Jj45aD3Xxa6HZ6+huL+5OG/t3Yn42CX4ttisFsp57Ym2kKehv39YhZi99TGybUqJ86/mnWPBai1gd3hp1KixeOKztmcNlQ4vWsVDQkw4dMgSMLS+7pzwEWY031fiw9x/4ZfolvQS+s3+USSXhzAnfijqJXyF+LW7Ybj3cfRtmYXPRozGR+JDeeeYDzH13nzs3LQdiTkBiOj8AJqdXYWhz34gmmAfw8LND6N2Wj5O7/4Wu47+hk0rdqCDWP8jQaeQkfwrtuxNQ0DzLuh0UxY2jH0SMaKZ1tjjVcQ/dxNStm3E+t9Ow3THw3ioaTJihz6PTwW5ZZsL8Ffqb9jx8xmE3tET94ek42RWKvZu2Ye0gFvQpVM4/lk2RHxzEgVMfTF/yRMI+2szNoj6DGFt0OkuX+yOfhLTv9LQ160Vm+UoQAF9BWTLy8RbkBA7Fa98/MfFLzdFW9UMnQd2RNeHOsN3/8fYsu+wcs6qK885t3vgVM6f2PP1YRz4WXQp1RiP+Bm3YO+U/pj9g+VcF3QqE8l7tmJvWgCad+mIm7I2YuygRZC9T8a24/HOlLuQt2MjtiXmivOe+KIVXIjrXUuef/UFYu2VVYDhRRy5EuHlTvkBvQGbHopCnNKaYkKLNqE49etenMbDmPtZP+TEPIGpthBgtPzu/ILemL5FfqAjUWP1EAx+62Krilz/wBpr8NTgJdY+ZkszbeOdURgU8yeMoc1xT4QLtn39Kyzj4B7AtDWj4ftJF4wWX4KU8NL6EOb1nIav5J+NA7BoXW9kL/4vxq+1vPX6Rm/AoxnR6Dl1MyJGf4j5jbdjyLB3rfXB8rvw7zBQhCxtEbSyvsW53RSozgIGtIichgmPNod/QRaST/yK3V9uROyaYq205XQbWc45CYjuPwUbbINzlXNj8fBS6lyn/L0xdo4QX8oOmvDUmx/gweRoPCHOSZZVWH73aMC3ZVqCqvMR4r5rE7A7vKjqNiq1Lc5oeXFWt5F9LS/P4pacA/j2263YuXkndh05bfnwdZyKNSNr4RfxzeTisOGaaCm+tbhvjMSwd9or4QUfluw7VsIL4vDAqI+LZEoEJvlb290A9euiUcP6aNisrmhJsayn7DbLkNQVSco3IMsqlWVMX4g6vsGQJXHocH4tNu4vdktAg/vQP+KviwFI2/uFpShAgUop4Iewe+9Dr3ad0KpVHQSc3433XpiMVUoXT9kxL+WdJ1FOeCl5rit+XpJfwEbAK+7iFywlvgx5C8vuO8bwUinfQ9fWRtsdXlQN2K2A8OKsAbtXDC9KkGiFnoMeRPuIm1CnVk24J2/GzGHzsb37AmwaEIKjfyYht9Q+pu+SY2ZaagovYf0XIGZAExScPIJjp//BkX0pCHu4DwzrtISXPzFu+StonSf6r4sGwNg29hi+eH4xvrm23oPcGgpQ4GoKGNti0vsv4dYDr+KR6VsrKLz0RfSm3sh47RHRSn1x54yRMVjX+STDy9U83lW0LrvDi6pbpYuwasBULxh3PzoOHcLELxO/wdxPtiH5r9M4rxLUWbdKl03+BkQuWovOJ61jXsR2GY0G8ewm69gQ44OY+dEo3LBFdPFs747lsxvguwHP4J1y+14s3UbqWl7SERUbg5b7nkdktO0+RfmtZSz8VmoJLx+X6EJSyczFKUCBKiQgb0a4P3clJr4nxvMVe/WY8z8M8/gInWW/dIW0vDQu57xmQK+5n2LYjdsZXqrQe0yvXbE7vGiapK7jGLzZsyFcSuxdIY6seQ4LiqVxe3beaZPUKQPYmuBgzMt45esM0R88GS881Ag5Wy3hJbB/NJb3AT4ZOxFxh3PEnUeDMCe6Nwrie4kunBDRJfMWuubGY+zEZcodRv7tXsQb45ti3/QBmLtTS3jZJ8bcrELP84swePJGMaBO9FEPmYdpvcPxl7X7SV230ccwiu6tpWMaXLw90hiOyFfmoXdhPCLFyerqPpnKnqPLZShAgYoQMD31Bj7s7YsfF8/AnM8Pi+5vPzR7eBReHNISKbYB/tbw0nDHcEQtksuU11Utf1l2zMulu43kfQML8PagYPyx9D3E7RY3Gtw3HM90ro3A7J0MLxVxsKvZOu0OL5oeD+DVCP95oHGpyerScWjzNvxZut/lCvDOezxAHfSa9SoG3xEINxQga/9yfOkSif/Y7jaC7e9+uJBVAA9vV6T/9D5emLTaMvg17EFMmDwY7ep5iWlrXODpmoWjGxdiTMx28aHXEl5+FKPyR2DhuAdRz/MCcsQkUv8e/Bb7Te1RwzrvgtrwAhmAigbp5aFQTLJTkLwbsRNsfdzV7F3O3aVAtRWogy4TxuOpexvAV861JV/mDBz9ajEmRG8tuvvI0nUdAW/zbizu9iKSyrkrU214keeh8D7jMKHXLQhwB7IS1mHBb7dhXuckhpdq+3503o7bHV6U63Z1ejCjGEDbxOSJtMQjOF3OVNjG0IYIC8hD0sG/y7n9UMsBMiC0YR34ZB7XNnV3uVWKQXpNrodHmjPXqWXfWIYCFNBXwHIuMJrTkGi7AaHCN8gguuBzRBf8xYqUbvv/HMWEx+fjlwqvnxVUZQFV4cXX11dMFBeEs2evbsdDzZqBYoK8FGWGX74oQAEKUODaF2g+Khazbz+Gd19diNW/5yO0eQ88P2Ug6u+zDRS+9veBW3jtCqgKL7bWF7PZLNJ01lXZK6PRG25ubkhMLDZt41WpmZVQgAIUoIBmAfEgx8hJw/Hf225UuqwK8sTEmrtWYfa8z6wzkmteMwtSAKrDi5eXQek+kq0vZvOFCiWUt0fLVhcZXHJzOTNshWJz5RSgAAUoQIFKIqA6vMj9knce+fn5Ii0tzb5nHWnAkJPSBQQE4Ny5DKSmpmhYA4tQgAIUoAAFKFAVBTSFFwlhMpkg515JT093eoCRwcXf3x85OTlISuJk9lXxjcd9ogAFKEABCmgV0BxebAHGaDQqA2md1YVkm0k3WwxRZ3DRelhZjgIUoAAFKFB1BRwKL7YupMDAQJw/n+nwIF45OLdGDR/RTZTKrqKq+57jnlGAAhSgAAUcEnA4vMja5SDekJBg5a6gnJxspbtHzUt2PxkMRtF6Y8aZM8kcnKsGj8tSgAIUoAAFqpmAU8KLzUzOAyPHqnh6eiEvLxcXLuSLHzMKCgqKxsXI8Syurq5wd3cTPx5Fy8qxM5zHpZq9+7i7FKAABShAAQ0CTg0vtvrlowR8fHxFa4oX5L9dXd3g4mJ5wlFhYaEIM2bk5+eLFppcZGZmKP/miwIUoAAFKEABCtgjUCHhxZ6KuQwFKEABClCAAhTQIsDwokWNZShAAQpQgAIU0E2A4UU3elZMAQpQgAIUoIAWAYYXLWosQwEKUIACFKCAbgIML7rRs2IKUIACFKAABbQIMLxoUWMZClCAAhSgAAV0E2B40Y2eFVOAAhSgAAUooEWA4UWLGstQgAIUoAAFKKCbAMOLbvSsmAIUoAAFKEABLQIML1rUWIYCFKAABShAAd0EGF50o2fFFKAABShAAQpoEWB40aLGMhSgAAUoQAEK6CbA8KIbPSumAAUoQAEKUECLAMOLFjWWoQAFKEABClBANwGGF93oWTEFKEABClCAAloEGF60qLEMBShAAQpQgAK6CTC86EbPiilAAQpQgAIU0CLA8KJFjWUoQAEKUIACFNBNgOFFN3pWTAEKUIACFKCAFgGXiIgWhVoKsgwFKEABClCAAhTQQ4AtL3qos04KUIACFKAABTQLMLxopmNBClCAAhSgAAX0EGB40UOddVKAAhSgAAUooFmA4UUzHQtSgAIUoAAFKKCHAMOLHuqskwIUoAAFKEABzQIML5rpWJACFKAABShAAT0EGF70UGedFKAABShAAQpoFmB40UzHghSgAAUoQAEK6CHA8KKHOuukAAUoQAEKUECzAMOLZjoWpAAFKEABClBADwGGFz3UWScFKEABClCAApoFGF4007EgBShAAQpQgAJ6CDC86KHOOilAAQpQgAIU0CzA8KKZjgUpQAEKUIACFNBDgOFFD3XWSQEKUIACFKCAZgGGF810LEgBClCAAhSggB4CDC96qLNOClCAAhSgAAU0CzC8aKZjQQpQgAIUoAAF9BBgeNFDnXVSgAIUoAAFKKBZoELCi4eHB3x8fGEweEH+29XVDS4uLspGFhYWoqDAjPz8fOTk5CIzM0P5N18UoAAFKEABClDAHgGnhhdfX1/4+/vD09MLeXm5uHAhX/yYRVgpEKHlX2V7XFyuE2HGFe7ubuLHo2jZ9PR0ZGRk2LPNXIYCFNBRwM3NDYGBgeLLiVF8ht2LvpjouEkVXrX80nXhwgXxhSsbqampMJvNFV4nK6AABS4t4JTw4uVlQEhIMORJTX64c3JyVJkbDAblRChPCGfOJCM3V115VZVxYQpQQJOAj4+PCC1BSmtqdX/J1uLU1BTRcpxZ3Sm4/xTQRcDh8CJPZvJb2PnzmcjOznJoJ4xGb9So4aN8s5EnBr4oQIFrQyAsrA68vLyujY25hrYiNzcXiYnHr6Et4qZQoHoIOBReTCYTjEaj0t1jNl9wipibmztk91N2djaSkpKcsk6uhAIU0CYgW1tMpuurRdeQNiHLOL6kpFNshdEKyHIU0CCgObzI4CK7e+RYFdt4Fg31l1tEjouRY2dk9xMDjLNUuR4KqBOQn8GQkFB1harx0mfOnFbOh3xRgAIVL6ApvMiuIj8/X6SlpTk9uNh2WQaYgIAAnDuXwS6kin8fsAYKlBCQLS7XX1+LKioFTp36hy0wKs24OAW0CKgOL3JwblhYGM6elSPundNVdKkNl11INWsGij7lRA7i1XJ0WYYCGgXCwxuxq0iDnexCOnz4kIaSLEIBCqgRUB1eZHCRdwU5OjjX3o2Ug3jlXUwywPBFAQpUvAAH5zpmzEG8jvmxNAXsEVAVXuRA2qCgIKXV5Wq+ZOtLSkoK54G5muisq1oKsLvIOYed3UfOceRaKHApAVXhRba6yInn1M7j4ii/HBgsJ7Rj64ujkixPgcsL1K1bj/O4OOFNIueBOXbsLyesiaugAAXKE7A7vMiJqerUqYvk5NO6SAYHh+L48WN8lIAu+qy0OgjI7tn69RtUh129KvuYkHCUM/FeFWlWUh0F7A4v8g4jb285p8s5XZx8ff2QlSWn5ubkdWUPgAGhDevAJ/M4jpy+1OzElmU8Uw4ikXdz6vIevtYrDQ0NFXcR+qvcTCOCawfAs1gp8/lkJKVf3eeVedZrg/tq/YMt248hT+UeXHpxD/ibguGeeRLJGubfPHcuHadP6/Nlr8w++d+I21u3QYTxFL7fsesy54nL4BlboE9kOA7FrcCv2U5D5ooooEnA7vBSu3Zt5YGKdnUZNe2HKU/eBr/LbtI5/PLBTMT/Yd92y64j+YDHEydO2FegCi9lavMIOvsewIebfrfuZWtMiJ+O5ntfQr/ZP15izy3LmNZ3wqiPqjAOd02zgLYuo3sweNp9uLFEreI5QGcPYuPHK/BLsubNUVXw9scnoHtYIj5/5WP8rKrk5RZuhF7PP4qAn6fjvW/Vr/Ta6DoyoG3UQozrUhvXZefADHcYfNyQvO0NTJ6+EZbbIExo07sTfA/EYdP+y+xnt5lYNzIC+1/vgUnr1XuwBAWcKWB3eKlfv779M+nePBCvPnsH/M15yMozw83TG55uYrNL/H86fnpzImJ/s293bDPvJiQk2FegCi9154SPMMP0BR4Y9THDSxU+zld717TdHm0JL/im2AXeuyG6PtEHt17Yhjfe24bK29DnWHi5Jm6bvm8KVo4Px57ZIzBrq6XV3NhiGF6b2QUZsX3xwirZUssvNlf7s8b6HBewO7zIE1tKSrJ9k9LV7YUpz7eH245oTI0/gi7j3kT3+mJjEz7HM/M2omG/qRjTxoxvFszCymP27YSctC4oKNgpcyj4txqEkY/egYb1jMg6+Ae++Szm/9m7E7AoyscP4F/iXuSSaylFRFEs8qi08gwzNLPSyCtNpMysv2dmmmVmlkdmeGRaVnikZl5Z5lmpP/Moj8TMW0S8OOWUc5H/vLuAoKizswuD7nefh+cxmHfemc/sTt99r8GPB8t0t7g1R8Swvmh9vzeQeBR/LpqJqL3Xuss0gV3wesQzeChIlP8Hv0Z9hV9OlpR3ROCzryPimWYIcsrGsQO/IuqrdThZ3Mwa1Ot9vBZ4EvMnLsex4lNvP3gaWiV/g4k/HIf+7547MTOmCYaGPSp9oz2HfzYtxawfD0LsQmwb9nhDNLBPxCFpDNDe+R/jh2MVtLxoAvFkeG90b9kYTlcO4bd5v8N39AdseZH3drPIrRo0aKjgvCsIL2Ivrfvjww7Abx8uwJ/iv6VA06FLOwTVltpj08/h2NZf8dupMn0P9r5o3L41WgX5wyE3FtEb/0JBixA4S60B6w8BjTuH42EcQNT6km8796FNzw6lf7+vTXeESt1Gm5fvxIX7WqFnqDOOb8tFw04Pom7WPkxZvFv8bxv1OzyDkKDaUqtwOs4d2451v51CaY/QDcfwL9xf6KG45UWc9okTxxWYmq+I14A5WPpkHMb1noo9ZXYb3CkcjTI2YcWuRhg8PQyPNwyEfcIhnI3dp783QX8f+huLMx/DoA6NcXntixh7uCfGvRaIk/p7TohUrhWSo9bBPux1dGgi3Qujd2NZ1DxsL7Oqhf5e268VxK303J5VmBUdgGGtksvd/8x3ttyTJQnIDi/ixpaYqOxZQ9eHF6XA3t5ak28Gmq6Tsez/GiF5xwas+zcB2hYv4Pn7kxD1+kgsF6en7YnP5vVD/cQ92LQrDjk+j6DrE544EPkKPtosBZTHRmDR+A6w+2+L1MSaCsfAEDz3UBZWvj4Y30of2sfeWoDx7fKxe+NOxOU4wK/N02hp/yc+7PuZ/uahbzVpcqjczaTPjE3oEm/o8jH8vRBnMk/iH6l++LVCpzbeODanN0b/lANx0+n4zLNSt9ERLNl6CCc2rsSu+OvDSx30mTETL997GpukO3+qox/atJNuTvY+SF7JbiOl77+7vZw5w4t9uwi82yYfGz5egr/cWiLijRB4Sf9z3BebBTuvhmjWUIOYn7/A8oNibIwX2g14FSE143Fg31lk2Xni/uB7YWvjiszdhhaddgM+QHtsxXipJcfwKt8q0iBsBPr4x2LJ9DU40aAbRvapB5vUPFyIOYyL50/jjwOZaB0xEO29EnCwuI5GzRpAE7MOs5ZHS+Nkbn8MSq6/2uEFouVlbGPERI3HpKVHKmgFewCd+ofimec7weXwUmw9dBIbV+yCv7gPPWKHSznH8c/vJ3F0n9SlVGM0lk1sjOhxfTBlz0uYseUFeF7KRNI/2xCd6o4mnUPR6MoGvB0xG6L3SdNqNL4e9zjydm3AjrhcuDfpiGZeRfC1Ln//U+LKMhSwvPDi0wRtgq2w43dDSwbwFCasGQGXHzpjhPSFI3jEAkQ2PYgR4TP0H0DxemzAx3jBdjPembsXYZ8uRwQWoMc7q4vLa9H1nZG4/8yXmPTr45ixuhfy55c0x4pPsLT/RSPgteEVvPltvLzw8mgMIvuMw3r9ATpKQWQVeud9hS6j1xqO53bdRvqm4nuxeeAb+Lr4W5AmdDwWjWqJ8wsYXvixr1jALOHFyRO1/BshJPQJ1E7ZhOmL/ob2uSGIuO8Y5szdgpIhMHXE7+49ghlSi2Dag90xOswd/8z5GpuLN7Bv2hPDuzVESnF3lPHhJRDxP8/Akv3FA4frPIthEb44WqYO6H+nxX8z5uO32rc/BiXvG9XDi3T/aBo+AWN6NYFb4RUknT+IA5s2IGrN3jJB5sZuI/09ptx9SNx4rg8v4aixeiAGzC1+qrb+7w2xe8grmHVMi1e//A5PJ0Wi3/gtpfdK8bte7ttvaAlSYssyli0gO7wY1W10nak5Wl7M2W2EkpH3Af5oUD8A9R/wx8XF4n/qWgyctxCPHxmKiFkVNfeKoDMEDgufk1pBKnjjSAFhzVsu+KGT1IpT5s9dp/6MAfhWHz7ktbyU/2ZyfVi5XXjRDpyLxY8fwRDpG1BJ15QhpL0NV7a8WPYn/hZnb0p4uX7A7pWzO7BiyTacyXNH6BtD0Dj3bxw4W2YekG8w2tVOxJopyxEbOhAjgs7j61nrcaH0+Jqg95jn4aS45cUfsUsisap4pX43UUfjXOw5cK7MbCQfPNjOD4lrPsUG79sfg5I3jvrhpeSoXeHXLgRhT3RE8+Z14J51AN+88z5W6b/c3CS8XNdCXFF4QbkvQ6I15hnE61tmKr5X6u9NIbEML0reTCxTTkB2eDFqwG4lhBdzDdj16zMds14OQuGFU4hNuIhTh5LhJ/VrO64V4eVhjPp+Eur9LxyDvq6oi6wnIjd2R8bnL2L85greST2nY2NYMib2mIydZf7c6r1l+NDrF/0A26oILw+PWoQp9Xbg5UHzce0sWuG9Hz+Al/48+SmgwI0CZhmwa98C/UZ2hNuhhZi1TvyfMQDdRvRFg4KzSLxhunEC9kdtRHa3YXhZewSRUsvMtcG9Qeg+qgdc/1babVQ+vNQXdTQoQOyNB4GE/Qtxot7tj8HY90y1GLBb0UFrpHvBtx+g2dHJePGjbZUUXiq+V2rCZ2FtpwsML8a+mbj9DQKyw4tRU6VLq6kBbV0vtO41Ck/6Sb+M+wOf/rADSWcSkGXkxTDXVOmhUZvw8KGRCI8s6RQq3yKhbyWxKtstJPX8+NSHn30SjsVpMTRq1nXlATe/IHjmSWusuA9A1Oxm+EffbFpygobWnLanx6LvtP248ZuHI8Jn/4QmjY5TAAAgAElEQVROF8qOeTGt5QUiRL2cj3ld3kVpA5H2Ncxb/CJy2W1k5DvPcjY3Zap02dlGXlIrx/+1KMDWL6KwXUojrV8Zh9Y5P2PKsuiKMcXg3icKDONjSrZwewpvjHgcBcXdRk17v4NuTrvLjHkpH25uHPNSPrzoBxC3zsFPUkvPwYqOQsYxGPtOqA5TpcUA/w65KzH2m/JLKIj73CC7Jegk+sorpeWlYQX3Skd9t/ug2jsZXox9M3F75eFF0SJ1oW/hy271YVWu2iKcWvN/mF5Ry8UtLpC5FqnrM2M9umXNxoD3N0jf8qT+4IHTMKF7IM4U/09dPzbkrXrXphb6PY2Ppw5H7b8NgcdPavb8+plcLHt7LBZKM4zKTzv0loLKXDyTuwxvj10szTCSZh6FT8JnvV3x+9tSoBF5ST+ALgjHZn2ISb9nSP3R7+Od5xsgZ5uR4aX+brw59IviWUzXDdjVPI+py17HfX9/isGfbEOaNPMofNIU9A6qgWP67jF+Eihwo4CyReoqmG1kL3X5DH8efnFrMUMEFjF+pasWMSvnY8VhaSCXNKun/cvhaHl1B2Z+txOZxa01HidX4+sV/+GK/u/90LaWPc5vNbS8uHV4DcMfs8LeH77Hr5c88Nhz3RDa0A0Xi/9+2/CiP6bnoI0prgN28G3fBxEti7Bj5gLsyDe0GN3qGIx9z1SHReq0r36BBd1d8NeciZj6y0lp7IkrHnhhON4d+DCSFw+U7gWibdZw/6i/azCGzhbbVDyxwLhuIzH3YTq+ivDCkUXfYOGBRPiEDMYbnWrBI3s3w4uxbyZurzy8KHo8gEMDtH2q4XWL1aXhxJYdOJ5r3NUw1+MBNK2GYMaop1HXvgA50oJNV6Xpkoe17VGjdPE2EWgmYVy3++EkLekEaX2aK0d+wsR35xevKlkHnT8Yjzdb3gfrImkNG6tCXNg1Fx+ULPgkhZ0x7w/AE3UdUKSzgVXhBez6cgI+Wl88qA11EPbJZAxo4SHtuhBXDn+PTVbhaFtuttGtW17g9xIiZ/VFsJMOB+aI8Tc3TpW+dp465FlZ4/LvP+D4Q33hxUXqjHvjWdDWyh4PUPFUaTdpttHgEA0ORs3BurN2qNu+F8Ja+6PGVR2u2lrjasZp/L5oKXaXDNBt1BkDuj4Mb9tCFNxjhaxoacpzQFu4liwQZx+ELgOexyPe9tKXoUKkHiz/99uGF+k62td9Ai+FtYJ/DWkRvas2sLmajlO/L8X3xQdhf7tjMPK9UD0eDyDdr8aMxqvt6sFFrLUlXroMnN48B2MipS82xb8ydKcHw0l3AHOkFtv4CmZFGhtexGSDwB6jMCasMdxtpftozFpM//chTOsUz/Bi5HuJm98oILvbSBS9ex7MKGc5fWmAW5AvEH+T5fQ1Pqjv54zMuFNIqGCpbH1Xk3Mm4k4lFI+0V+PtJ+c81Tgu1lldBZR1Hck9G8OjBKxv+vgAw3L8Drni8QL+Jq1ue6sjcvK6D+7WWUiKT6/gUQJlj0H5Iw6qQ5dReQPD/UyjS63Ce5IjNJocZJe5P+q7zduexhhp6Yj9ct823I4CFQgYFV5cXFykheI8cflySpVi1qzpIS2Ql6xf4ZcvClCg8gScnZ3h63tv5VUge8+mrW4ru5pK2vDSpYvIzMyspL3fGbttMjwKUx6JxfzJM7D6v3z4NOmKkeP6I+BQyUDhO+M8eJTVU8Co8FLS+qLT6aQ0reBJZQoMNBoniObsuLgyyzYq2A+LUIAC8gT8/OrAwcFB3saVtlUAurwZBveD07B4V6VVUik7zs3Nle5XJd3ElVLFnbFT6UGO4e8NlhbxrK3vsirMS8OFvaswZdqPpSuO3xknwqOsjgJGhxcHB0d995FofdHpCir1nMT0aNHqIoJLbu7NnpZcqYfAnVPAIgWUTZu2SKpyJ11tp0fz0lDgLhMwOryI8xczj1xdXZCamirvWUcK0MSidO7u7khPz0BKSrKCPbAIBSigVKD6dB8pPQN1yrG7SB131mp5AorCi2DSarUQa6+kpaWZPcCI4OLm5oacnBzExyt7npLlXUqeMQXMKyA+g97ePubd6V28t8TEBP39kC8KUKDyBRSHl5IAo9Fo9ANpzdWFVLKSbrY0RJ3BpfLfAKyBArcSEC0wWq0vrKzKr9ZEtWsCoqsoPv6SxQ/Q5XuCAlUpYFJ4EQcqupA8PDyQlZVp8iBeMTi3Rg1nqZsohV1FVfkuYF0UuI1A9RjEW/0uEwfnVr9rwiOyDAGTw4tgEoN4vb299LOCcnKy9d09xrxE95Ojo0ZqvdEhMTGJg3ONweO2FKgiAdEKI76siAUrLf0l1nERY/EsfTq0pb8PeP7qCZglvJQcvlgHRvST29s7IC8vFwUF+dKPDoWFhaXjYsR4Fmtra9ja2kg/dqXbir5iruOi3huBNVNAroD4kiJaW8UXDltbW4voUhJdQwUF0qrc0pcz0TIsvmjxRQEKqCdg1vBSchrim5mzs4t0c3PQf0uztpaWyS/uMxc3gcJCHcQ3l5ycXOmbS4b+33xRgAIUoAAFKEABOQKVEl7kVMxtKEABClCAAhSggBIBhhclaixDAQpQgAIUoIBqAgwvqtGzYgpQgAIUoAAFlAgwvChRYxkKUIACFKAABVQTYHhRjZ4VU4ACFKAABSigRIDhRYkay1CAAhSgAAUooJoAw4tq9KyYAhSgAAUoQAElAgwvStRYhgIUoAAFKEAB1QQYXlSjZ8UUoAAFKEABCigRYHhRosYyFKAABShAAQqoJsDwoho9K6YABShAAQpQQIkAw4sSNZahAAUoQAEKUEA1AYYX1ehZMQUoQAEKUIACSgQYXpSosQwFKEABClCAAqoJMLyoRs+KKUABClCAAhRQIsDwokSNZShAAQpQgAIUUE2A4UU1elZMAQpQgAIUoIASAYYXJWosQwEKUIACFKCAagIML6rRs2IKUIACFKAABZQIWAUHNy1SUpBlKEABClCAAhSggBoCbHlRQ511UoACFKAABSigWIDhRTEdC1KAAhSgAAUooIYAw4sa6qyTAhSgAAUoQAHFAgwviulYkAIUoAAFKEABNQQYXtRQZ50UoAAFKEABCigWYHhRTMeCFKAABShAAQqoIcDwooY666QABShAAQpQQLEAw4tiOhakAAUoQAEKUEANAYYXNdRZJwUoQAEKUIACigUYXhTTsSAFKEABClCAAmoIMLyooc46KUABClCAAhRQLMDwopiOBSlAAQpQgAIUUEOA4UUNddZJAQpQgAIUoIBiAYYXxXQsSAEKUIACFKCAGgIML2qos04KUIACFKAABRQLMLwopmNBClCAAhSgAAXUEGB4UUOddVKAAhSgAAUooFiA4UUxHQtSgAIUoAAFKKCGAMOLGuqskwIUoAAFKEABxQKVEl7s7Ozg7OwCR0cHiH9bW9vAyspKf5BFRUUoLNQhPz8fOTm5yMzM0P+bLwpQgAIUoAAFKCBHwKzhxcXFBW5ubrC3d0BeXi4KCvKlH50UVgql0HJVfzxWVvdIYcYatrY20o9d6bZpaWnIyMiQc8zchgIUUFHAxsYGHh4e0pcTjfQZti39YqLiIVV61eJLV0FBgfSFKxspKSnQ6XSVXicroAAFbi5glvDi4OAIb28viJua+HDn5OQYZe7o6Ki/EYobQmJiEnJzjStvVGXcmAIUUCTg7OwshRZPfWuqpb9Ea3FKSrLUcpxp6RQ8fwqoImByeBE3M/EtLCsrE9nZV0w6CY3GCTVqOOu/2YgbA18UoED1EPDzqwMHB4fqcTDV6Chyc3MRF3e2Gh0RD4UCliFgUnjRarXQaDT67h6drsAsYjY2thDdT9nZ2YiPjzfLPrkTClBAmYBobdFqfS2ia0iZkGEcX3z8JbbCKAVkOQooEFAcXkRwEd09YqxKyXgWBfVXWESMixFjZ0T3EwOMuVS5HwoYJyA+g97ePsYVsuCtExMT9PdDvihAgcoXUBReRFeRq6sLUlNTzR5cSk5ZBBh3d3ekp2ewC6ny3wesgQLlBESLi6/vvVQxUuDSpYtsgTHSjJtTQImA0eFFDM718/PD5ctixL15uopuduCiC6lmTQ+pTzmOg3iVXF2WoYBCgcDABuwqUmAnupBOnjyhoCSLUIACxggYHV5EcBGzgkwdnCv3IMUgXjGLSQQYvihAgcoX4OBc04w5iNc0P5amgBwBo8KLGEjr6empb3WpypdofUlOTuY6MFWJzrosUoDdRea57Ow+Mo8j90KBmwkYFV5Eq4tYeM7YdVxM5RcDg8WCdmx9MVWS5SlwawF//7pcx8UMbxKxDkxs7Bkz7Im7oAAFKhKQHV7EwlR16vgjKSlBFUkvLx+cPRvLRwmoos9KLUFAdM8GBNSzhFOtknOMiTnNlXirRJqVWKKA7PAiZhg5OYk1XdJVcXJxccWVK2Jp7jts8TpNU/QID8SJhStwMNsVfkG+QPwxxHFGpSrvI1Z6cwEfHx9pFqGbkUQaeNVyh32ZUrqsJMSnVe3zyuzrtkTIvRexdWcs8ow8g5tvbgc3rRdsMy8gScH6m+npaUhIUOfLXuk5udVGkNbpxlPUpSLuVAKyzWZVsqM6aBcRAqffF2C9NEzRzS8IWlzCsTh1/r9h9tPjDquNgOzwUqtWLf0DFeV0GTnUboF2TX1w60XE85Bw8H/4+1yuLAzRdSQe8Hj+/HlZ21ebjbp8jLXDgnF4Zle8t+4lzNgSDizoiOFLqs0R8kAooBdQ1mXUBgMmhKB2OUPpOUCXj2HD0hXYn1Q1uI/0HYNn/eLwy6Sl2Ge2KhsgbGQvuO/7CN9sN36n1aLrqE8ktvS//8aDT/4D43pPxR7jT+vWJYLewLczngV+HoFXvzyOPjM2oT8W4qnhS81dE/dn4QKyw0tAQIDMlXTbYHBkbzwgZyXx3P+wdMQc7JBxEUpW3o2JiZGxdXXdhOGlul4ZHhegbHq0IbzgjzL/g3eqj2f69UCzgh344psduHMbGU0LL9Vi2rQ+vEjfl54aATW+LzG88M5SWQKyw4u4sSUnJ8lalK5GQAi69+qMh2pL05wrPHIdss4dwIYfVuKPmCxZ5yYWrfP09DLPGgpuzRExrC9a3+8NJB7Fn4tmImpvcbNmUE+Me80Tf807iweGdEcb92xE//YVpq0Augx9CR2b+aDgyDZ8OzMKe0vuyvr99cCj9evC6cox/PfHSsz68aChSVa/v0CcnP8xfjjG8CLrYnMjVQQaNGiooN4KwovYS+v++LAD8NuHC/Cn+G8p0HTo0g5BtV2B9HM4tvVX/HaqTKeFvS8at2+NVkH+cMiNRfTGv1DQIgTORxdi/SGgcedwPIwDiFr/b/Ex3oc2PTuU/v2+Nt0RKnUbbV6+Exfua4Weoc44vi0XDTs9iLpZ+zBl8W6pnAb1OzyDkKDacEU6zh3bjnW/nUJpj9ANx/Av3F/oobjlRRzoiRPHFZiascjtwouS+50mEM++Ho7Q4HrwRiKO7FuNqLnbYVjMIgSDp3cGfh2FL/4AW17MeCm5q/ICssOLuLElJsp51lB9PPBAPP77Lws1HuiEl55/Eg+WhhgRWg7j97VLsVH/9/uh/e8ITsm8Kt7eWtNvBtqe+GxeP/id2YL10alw9GuJjo+74EDkK/hos/Q068dGY9nExig8cxn/7tqHBJ/m6NbBB+kXspASvQ3Rqe5o0jkUgRe/xwCpKTRe8zymLnsTQcl/YuO6fxGvbY6w5x9AUtQgjFgueRXvL3pcH0zZw/Ai81JzMxUEzBle7NtF4N02+djw8RL85dYSEW+EwCvhEPbFZsHOqyGaNdQg5ucvsPygGBvjhXYDXkVIzXgc2HcWWXaeuD/4XtjauCJzt6FFp92AD9AeWzFeaskxvMq3ijQIG4E+/rFYMn0NTjTohpF96sEmNQ8XYg7j4vnT+ONAJlpHDER7rwQcLK6jUbMG0MSsw6zl0dI4mdsfg5JLUu3Di7H3OwRjaNSn6Ox0FJtW70AsAvFU7xC4/DkBfaf9JRGVv8ex5UXJu4Zl5AiYP7w82B+T32wO+8Qj2L5qGTYdugwbKcR0byUN29q5UgotOng0DkXvsHa43zsDO6ZOwLJYOYcK6TkrpoeX4BEL8FnDnRg4aH7xNwVA/7vA/6H/m98hXv9hbo4T017E+M3iuBwRPvsndM/+El1GrzUcaM/p2NgrA593m4DNGh80afMArHb8IQ3INfw5dMJKvOWyAp1GLGd4kXdpuVU1EDBLeHHyRC3/RggJfQK1UzZh+qK/oX1uCCLuO4Y5c7egZAhMHfG7e49gxrzfkfZgd4wOc8c/c77G5uIN7Jv2xPBuDZFS3B1lfHgJRPzPM7Bkf/HA4TrPYliEL46WqQP632nx34z5+K327Y9BySWqHuGlFuIOxZbrvkvb+w0m/iC1Chl7v5ParPzaPYq6ZzZje/G6odqBc7G47WmM6fsZ9jO8KHmbsIwCAdnhRXa3kT68tIBhzkIRckpDTDacpNDSr9eTCHS3hZX+72n4+8uxiCppCb7FCZir22jgvE14MusnbDhcpsm6Xgj6BJ/BNBFGyrWUGA5IfHvoEv8Bek8R3yykl34bLdaV9iNLH+hHHkXL4Lrwb1Af9eo/AH+pZUY/SI0tLwreliyihoAp4eX6AbtXzu7AiiXbcCbPHaFvDEHj3L9x4GyZeUC+wWhXOxFrpixHbOhAjAg6j69nrceF0hNvgt5jnoeT4pYXf8QuicSq4pX63UQdjXOx58C5MrORfPBgOz8krvkUG7xvfwxKrkn1CC/u2LNkK06XOYErJzZhxa7rW4bl3u8c4VO/OVq2lu53dYIRUD8QQTa7iwcAs+VFyfuEZYwXkB1eZA/YLRderh2QeKSAWEei/Et+eDHXgN1R32/Co3mHcPaGUYSx+HXkHPxhbHjxewmRs/oiqPAiTsXG48Kpf5Hi1xU9HH9heDH+/cgSKgqYZcCufQv0G9kRbocWYtY68dU8AN1G9EWDgrNIvGG6cQL2R21EdrdheFl7BJFSy8y1j2UQuo/qAde/lXYblQ8v9UUdDQoQe+NBIGH/Qpyod/tjMPbS3BEDdo2932laYdS8sXiyZipij1/CpfOHcci2Od5sdo7hxdg3CLc3SUB2eJE9Vfom4aXio7yM3bPfx6Ijtz8Hc02V7hm5Hr0yItFt/JaKKzXyw7x/6HeY/fAhjAifgcPFexTdRqNcVzO83P6ycotqJGDKVOmys428pFaO/2tRgK1fRGG7lEZavzIOrXN+xpRl0RWfrRjc+0SBYXxMyRZuT+GNEY+joLjbqGnvd9DNaXeZMS/lw82NY17Khxf9AOLWOfhJauk5WNFRyDgGYy9V9ZkqfYvZRkbe75Z0nYx1A6wR1eMdrCpuvNZ3G4XEMrwY+wbh9iYJyA4v8hep88WTQ4cjrJFzcdfQzY5P6lI6tQ7Tpm+QljC6/ctci9RpQsdj0Vv18M+UIfhkmzTDSBo5Hz5pGroXLUO4NEYlxcgP8xppNP/qblmYNWAc1ks3ak3T1/DZhBcReKZ4bQN2G93+4nKLaiGgbJG6CmYb2UtdPsOfh1/cWswQgUWMX+mqRczK+VghumulWT3tXw5Hy6s7MPO7ncgsbq3xOLkaX6/4D1f0f++HtrXscX6roeXFrcNrGP6YFfb+8D1+veSBx57rhtCGbrhY/Pfbhhf9MT0HbUxxHdIqVL7t+yCiZRF2zFyAHfmGFqNbHYOxF6laLFJ3u9lGRt7vlojtP/TH/4a8hbknpQkOfk9jwqQhaGm9neHF2DcItzdJQHZ4uXseD+CIpuETMKZXE7gV5qHI3gaFSdIUzDHvY5Vo5Tb2wyw1ow6d8RY613VAvvRZtrt6DNsOa/FkjV/Z8mLSW5OFq1pA2eMBKp4q7SbNNhocosHBqDlYd9YOddv3Qlhrf9S4qsNVW2tczTiN3xctxe6SAbqNOmNA14fhbVuIgnuskBUtTXkOaAvXkgXi7IPQZcDzeMTbXvpSVIjUg+X/ftvwImHa130CL4W1gn8NaRG9qzawuZqOU78vxffFB2F/u2Mw8oJUi8cD3GyROhwxrP1i7P0OdRD2yWQMaOGGwhxpKIDtZfz+Z4Y0bfoCw4uR7w9ubpqA7PAiqrm7HsxoWKrfLvUsTiVIqcPEl8anPvycMytpyW0TD47FKSBTQFnXkcydS+usiEcJWN/08QGG5fgdcsXjBfxNWt32Vkfk5HUf3K2zkBSfXsGjBMoeg/JHHFSLLiO5l0XJdvrHDognnZy7gxchVHLiLFNdBIwKLy4uLtJCcZ64fDmlSo+/Zk0PaYG8ZP0Kv3xRgAKVJ+Ds7Axf33srrwLZezZtdVvZ1VTShpcuXURmZmYl7Z27pQAFjAovJa0vYuZQdraCJ5Up8NZopFV6pVlKcXHFiwoo2AeLUIAC8gX8/OrAwUHO8z3k79P4LQPQ5c0wuB+chsW7jC+tZonc3FzpfnVWzUNg3RS46wWMDi8ODo767iPR+qLTFVQqkJgeLVpdRHDJzTW9a6dSD5Y7p8BdJKBs2vRdBKDwVKrF9GiFx85iFLiTBIwOL+LkxMwjV1cXpKamynrWkRIQsSidu7s70tMzkJKSrGQXLEMBCigUqD7dRwpPQKVi7C5SCZ7VWpyAovAilLRaLcTaK2lpaWYPMCK4uLm5IScnB/Hxcp6nZHHXjSdMgUoXEJ9Bb2+fSq/nbqkgMTFBfz/kiwIUqHwBxeGlJMBoNBr9QFpzdSGVrKSbnZ3N4FL51581UOCWAqIFRqv1hZWV4YEefN0oILqK4uMvcYAu3xwUqEIBk8KLOE7RheTh4YGsrEyTB/GKwbk1ajhL3UQp7CqqwjcBq6LA7QSqxyDe2x1l1f+dg3Or3pw1UkAImBxexE7EIF5vby/9rKCcnGx9d48xL9H95OiokVpvdEhMTOLgXGPwuC0FqkhAtMKILytiwUpLf4l1XMRYPE6HtvR3As9fLQGzhJeSgxfrwIh+cnt7B+Tl5aKgIF/60aGwsLB0XIwYz2JtbQ1bWxvpx650W9FXzHVc1HobsF4KyBcQX1JEa6v4wmFrKz0h3gK6lETXUEFBgf7LmWgZFl+0+KIABdQTMGt4KTkN8c3M2dlFurk56L+lWVvblN7gxE2gsFAH8c0lJydX+uaSof83XxSgAAUoQAEKUECOQKWEFzkVcxsKUIACFKAABSigRIDhRYkay1CAAhSgAAUooJoAw4tq9KyYAhSgAAUoQAElAgwvStRYhgIUoAAFKEAB1QQYXlSjZ8UUoAAFKEABCigRYHhRosYyFKAABShAAQqoJsDwoho9K6YABShAAQpQQIkAw4sSNZahAAUoQAEKUEA1AYYX1ehZMQUoQAEKUIACSgQYXpSosQwFKEABClCAAqoJMLyoRs+KKUABClCAAhRQIsDwokSNZShAAQpQgAIUUE2A4UU1elZMAQpQgAIUoIASAYYXJWosQwEKUIACFKCAagIML6rRs2IKUIACFKAABZQIMLwoUWMZClCAAhSgAAVUE2B4UY2eFVOAAhSgAAUooESA4UWJGstQgAIUoAAFKKCaAMOLavSsmAIUoAAFKEABJQJWwcFNi5QUZBkKUIACFKAABSighgBbXtRQZ50UoAAFKEABCigWYHhRTMeCFKAABShAAQqoIcDwooY666QABShAAQpQQLEAw4tiOhakAAUoQAEKUEANAYYXNdRZJwUoQAEKUIACigUYXhTTsSAFKEABClCAAmoIMLyooc46KUABClCAAhRQLMDwopiOBSlAAQpQgAIUUEOA4UUNddZJAQpQgAIUoIBiAYYXxXQsSAEKUIACFKCAGgIML2qos04KUIACFKAABRQLMLwopmNBClCAAhSgAAXUEGB4UUOddVKAAhSgAAUooFiA4UUxHQtSgAIUoAAFKKCGAMOLGuqskwIUoAAFKEABxQIML4rpWJACFKAABShAATUEGF7UUGedFKAABShAAQooFmB4UUzHghSgAAUoQAEKqCHA8KKGOuukAAUoQAEKUECxQKWEFzs7Ozg7u8DR0QHi39bWNrCystIfZFFREQoLdcjPz0dOTi4yMzP0/+aLAhSgAAUoQAEKyBEwa3hxcXGBm5sb7O0dkJeXi4KCfOlHJ4WVQim0XNUfj5XVPVKYsYatrY30Y1e6bVpaGjIyMuQcM7ehAAUoQAEKUMCCBcwSXhwcHOHt7QUbGxupNSVb+skxitTR0VFqpdFAp9MhMTEJubnGlTeqMm5MAQpQgAIUoMAdLWByePHw8ISHhweysjKRnX3FJAyNxgk1ajgjJSVF+kk2aV8sTAEKUIACFKDA3SlgUnjRarXQaDT67h6drsAsQjY2thDdT9nZ2YiPjzfLPrkTClCAAhSgAAXuHgHF4UUEF9HdI8aqlIxnMReLGBcjxs6I7icGGHOpcj8UoAAFKECBu0NAUXgRXUWuri5ITU01e3ApYRUBxt3dHenpGexCujveazwLClCAAhSggFkEjA4vYnCun58fLl9OMVtX0c3ORHQh1azpgbi4OA7iNcvl5k4oQAEKUIACd76A0eFFBBcxK8jUwbly6cQgXjGLSQQYvihAAQpQgAIUoIBR4UUMpPX09NS3ulTlS7S+JCcncx2YqkRnXRSgAAUoQIFqKmBUeBGtLmLhOWPXcTH13MXAYLGgHVtfTJVkeQpQgAIUoMCdLyA7vIhl/uvU8UdSUoIqZ+3l5YOzZ2P5KAFV9FkpBShAAQpQoPoIyA4vYoaRk5NY0yVdlaN3cXHFlSvZps88cquNIM98xJ1KQPZNzsSvXX886bQVUevPqnKurJQCFKCAWQWk+94jj7ZEsOYS/ty1F6cSFKxirmmKHuGBOLFwBQ7e7OZp1oPmzihwcwHZ4aVWrVr6ByrK6jK6vzfGvfIQXG8pn479332MZUfkXR7RdSQe8Hj+/Hl5BW62VZ9IbOkSj3G9p2JPhUGhW7IAACAASURBVNs0xJvfRuI5/ILhr87FMdNqY2kKUIACKgo4otXQGRjVuRbuyc6BDrZwdLZB0o4v8P5HG2CYBqFFy+4d4XJ0ITYevsWhdvkYa4cF4/DMrnhvnYqnxKopIAnIDi8BAQHyV9J9sD8mv9kCbro8XMnTwcbeCfY2Um3l/jsNf385FlH/yrsOJSvvxsTEyCugOLyYtnuWpgAFKFBtBELGYeXoQPwzZQg+2WZoNdc0HYTPP+6MjKieeGeVaIF5FGOWfQTtuo4YvqTaHDkPhAK3FJAdXgIDG0gzfpLkLUrnH4ZxI9vDZlckxi87hc6jvsSzAdJxxPyCN6ZtQP3e4/FWSx3+mP4JVsbKu0Ji0TpPTy+cPHlCXoHbhJcPp15Eh0Ed0MQpG8cO/Iqor9bhZHFTaPvB0/AM1mPkF1sNe3FrjohhfdH6fm8g8Sj+XDQTUXvV6T4z7eRZmgIUsCQBrwFzsPTJuBtamoM7haNRxias2NUIg6eH4fGGgbBPOISzsfswf+JyoNf7eM3zbyzOfAyDOjTG5bUvYuzhnhj3WiBOzv8YPxwLkcq1QnLUOtiHvY4OTTS4Er0by6LmYXuZVS3cmkdgWL9WELfOc3tWYVZ0AIa1StbXwVZtS3onmv9cZYeXBg0aSk98VvasoevDi9LT8PbW4sSJ40qLG8qJbqMXPZCQl4sT23ciLscdTTqHIuDi9xgyfKm+GbXPjE3oj4V4SvpvaHvis3n94HdmC9ZHpwLujdG5Yz1ciBqEEcuVeZh2AixNAQpQQKaAaHkZ2xgxUeMxaekRpN1Q7AF06h+KZ57vBJfDS7H10ElsXLEL/mOWYOIjdriUcxz//H4SR/dJXUo1RmPZxMaIHtcHU/a8hBlbXoDnpUwk/bMN0amG+2ijKxvwdsRsiN4nTavR+Hrc48jbtQE74nLh3qQjmnkVwdf60C267WWeFzezeAHLDC/9a2HXtH4Yv7l40Jrfa5j3dSguTu2Oj6TGlrLh5THxIW60FyPCZ+g/kOLlN3Auvg69iKkvTkRx24zFv5EIQAEKVEcBRzQNn4AxvZrArfAKks4fxIFNGxC1Zm+ZIHNjt5H+vvdoDCL7jMP6ksG5j10fXsJRY/VADJhbPLFB//eG2D3kFcw6psWrX36Hp5Mi0W/8luLJEYbf9XLfzvBSHd8qd9gxyQ4vRnUbXYdgjpYXs3Yb9c7FnC7v4qfS42yIoVGz0OyfoYiYdbxMePkDA+ctRNvTY9F32v5rZxU0BFGzm+Ef/Yf0DrviPFwKUMACBVzh1y4EYU90RPPmdeCedQDfvPM+Vum7eG4SXppc10JSQXjBgrLjZERrzDOI17fMPIUJa4bAYeFzGH3tRgut9MVvcUgsw4sFvgPNfcqyw4tRA3YrIbyYdcDu84n4sMdk7Cw9TkeEz/4JnS58gN5T/ioTXo5j1PeT4LelK4YsLDO1UPMyZq/thAv6D6m5Lwn3RwEKUKASBTSt8N63H6DZ0cl48aNtlRReeiJyY3dkfP6i1MJ97Vw04bOwttMFhpdKvLyWsmvZ4cWoqdKlejWgreuF1r1G4Uk/6Zdxf+DTH3Yg6UwCsowUNutU6f4OWPHyG/i6dMiK+JYwAi4/dJbGsZTvNuo69WcMwLfoMnrttSMOHY81b7ngh04jIW3OFwUoQIFqKSAmH3TIXYmx3/xV7vjEfW2Q3RJ0Eje8Sml5MbRmP3xoJMIjSzrcHRH26XIMqr2T4aVavlvurIOSHV4ULVIX+ha+7FYfVuVMinBqzf9hepk0LofMbIvUiQG7LzfElWPLMGrsYmmGkSueeG82xrS4gHm9pa4kqX+37JgXjRRUFr1V79pUQ7cn8N4X76DFha/QWwo0XKtJztXjNhSggBoC2le/wILuLvhrzkRM/eWkdL9yxQMvDMe7Ax9G8uKB0tRo8Q3O0G1Uf9dgDJ0ttgH0Y15M6jYScx2m46sILxxZ9A0WHkiET8hgvNGpFjyydzO8qPFmuMvqlB1eFD0ewKEB2j7V8LrF6tJwYssOHM81TtJsjwfQL1KXiO8PNESvJ2uisMgeNnmxWD9tOGbtNHQNlZtthDID3qQlniCtV3PlyE+Y+O58rjJp3CXk1hSgQJUL1EHnMaPxart6cBFrbYmXLgOnN8/BmMhtpYN2/fpMx6yXg+GkO6AfDxhvhvAC6d4Z2GMUxoQ1hrutdN+MWYvp/z6EaZ1utUholQOxwjtUQHZ4Eed31z2YUcajAq5dV2nAW5AvEH8McTfON7xDLz8PmwIUsAwBw/1Lo0u95aNRzGvhCI0mB9llmqf1A3bbnsaYvp+hzBQI81bLvVmEgFHhxcXFRVoozhOXL6dUKU7Nmh7SAnnJ+hV++aIABShAgeov0GR4FKY8Eov5k2dg9X/58GnSFSPH9UfAoZKBwtX/HHiE1VfAqPBS0vqi0+mkNH2lSs5Ko3GCjY0N4uLKLNtYJTWzEgpQgAIUUCwgPcgx/L3BeO6h2vouq8K8NFzYuwpTpv1Yupq54n2zoMULGB1eHBwc9d1HovVFpyuoVEAxPVq0uojgkpur4CmolXp03DkFKEABClCAAmoIGB1exEGKmUeuri5ITU2V96wjBWcmFqVzd3dHenoGUlKSFeyBRShAAQpQgAIUuBsFFIUXAaHVaiHWXklLSzN7gBHBxc3NDTk5OYiP5/OD7sY3Hs+JAhSgAAUooFRAcXgpCTAajUY/kNZcXUglK+lmS0PUGVyUXlaWowAFKEABCty9AiaFl5IuJA8PD2RlZZo8iFcMzq1Rw1nqJkphV9Hd+57jmVGAAhSgAAVMEjA5vIjaxSBeb28v/aygnJxsfXePMS/R/eToqJFab3RITEzi4Fxj8LgtBShAAQpQwMIEzBJeSszEOjBirIq9vQPy8nJRUJAv/ehQWFhYOi5GjGextraGra2N9GNXuq0YO8N1XCzs3cfTpQAFKEABCigQMGt4KalfPErA2dlFak1xgPi3tbUNrKwMTzgqKiqSwowO+fn5UgtNLjIzM/T/5osCFKAABShAAQrIEaiU8CKnYm5DAQpQgAIUoAAFlAgwvChRYxkKUIACFKAABVQTYHhRjZ4VU4ACFKAABSigRIDhRYkay1CAAhSgAAUooJoAw4tq9KyYAhSgAAUoQAElAgwvStRYhgIUoAAFKEAB1QQYXlSjZ8UUoAAFKEABCigRYHhRosYyFKAABShAAQqoJsDwoho9K6YABShAAQpQQIkAw4sSNZahAAUoQAEKUEA1AYYX1ehZMQUoQAEKUIACSgQYXpSosQwFKEABClCAAqoJMLyoRs+KKUABClCAAhRQIsDwokSNZShAAQpQgAIUUE2A4UU1elZMAQpQgAIUoIASAYYXJWosQwEKUIACFKCAagIML6rRs2IKUIACFKAABZQIMLwoUWMZClCAAhSgAAVUE2B4UY2eFVOAAhSgAAUooETAKji4aZGSgixDAQpQgAIUoAAF1BBgy4sa6qyTAhSgAAUoQAHFAgwviulYkAIUoAAFKEABNQQYXtRQZ50UoAAFKEABCigWYHhRTMeCFKAABShAAQqoIcDwooY666QABShAAQpQQLEAw4tiOhakAAUoQAEKUEANAYYXNdRZJwUoQAEKUIACigUYXhTTsSAFKEABClCAAmoIMLyooc46KUABClCAAhRQLMDwopiOBSlAAQpQgAIUUEOA4UUNddZJAQpQgAIUoIBiAYYXxXQsSAEKUIACFKCAGgIML2qos04KUIACFKAABRQLMLwopmNBClCAAhSgAAXUEGB4UUOddVKAAhSgAAUooFiA4UUxHQtSgAIUoAAFKKCGAMOLGuqskwIUoAAFKEABxQIML4rpWJACFKAABShAATUEGF7UUGedFKAABShAAQooFqiU8GJnZwdnZxc4OjpA/Nva2gZWVlb6gywqKkJhoQ75+fnIyclFZmaG/t98UYACFKAABShAATkCZg0vLi4ucHNzg729A/LyclFQkC/96KSwUiiFlqv647GyukcKM9awtbWRfuxKt01LS0NGRoacY+Y2FKAABShAAQpYsIBZwouDgyO8vb1gY2MjtaZkSz85RpE6OjpKrTQa6HQ6JCYmITfXuPJGVcaNKUABClCAAhS4owVMDi8eHp7w8PBAVlYmsrOvmISh0TihRg1npKSkSD/JJu2LhSlAAQpQgAIUuDsFTAovWq0WGo1G392j0xWYRcjGxhai+yk7Oxvx8fFm2Sd3QgEKUIACFKDA3SOgOLyI4CK6e8RYlZLxLOZiEeNixNgZ0f3EAGMuVe6HAhSgAAUocHcIKAovoqvI1dUFqampZg8uJawiwLi7uyM9PYNdSHfHe41nQQEKUIACFDCLgNHhRQzO9fPzw+XLKWbrKrrZmYgupJo1PRAXF8dBvGa53NwJBShAAQpQ4M4XMDq8iOAiZgWZOjhXLp0YxCtmMYkAwxcFKEABClCAAhQwKryIgbSenp76VpeqfInWl+TkZK4DU5XorIsCFKAABShQTQWMCi+i1UUsPGfsOi6mnrsYGCwWtGPri6mSLE8BClCAAhS48wVkhxexzH+dOv5ISkpQ5ay9vHxw9mwsHyWgij4rpQAFKEABClQfAdnhRcwwcnISa7qkq3L0Li6uuHIl2+SZR5qm3RHe4CQW/ngQ2aqcyW0qdauNIC0Qf+wc0m62qdjGMx9xpxKq5zlUR1ceEwUsWUC6ZzzyaEsEay7hz117cSpBwSrmmqboER6IEwtX4GC1vHla8gW2vHOXHV5q1aqlf6CirC6j+3tj3CsPwfWWnunY/93HWHZEHrroOhIPeDx//ry8AjfZqssnP2FY8GHMfP59rDNpT5VUuE8ktvQHFjw1AktuVoXYpks8xvWeij2VdBjcLQUocDcIOKLV0BkY1bkW7snOgQ62cHS2QdKOL/D+RxtgmAahRcvuHeFydCE2Hr7FOXf5GGuHBePwzK54r1rePO+G68VzkCsgO7wEBATIX0n3wf6Y/GYLuOnycCVPBxt7J9jbSIdU7r/T8PeXYxH1r7xDLVl5NyYmRl6BO3Urhpc79crxuClQ/QRCxmHl6ED8M2UIPtlmaDXXNB2Ezz/ujIyonnhnlWiBeRRjln0E7bqOGH7Tb0zV79R4RJYtIDu8BAY2kGb8JMlblM4/DONGtofNrkiMX3YKnUd9iWcDJOiYX/DGtA2o33s83mqpwx/TP8HKWHkXQCxa5+nphZMnT8grcJOtgnq9j9cCT2L+xOU4FtQT417zxF/zzuKBId3Rxj0b0b99hWkrgC5DX0LHZj4oOLIN386Mwt6SPhxNIJ59PRyhwfXgjUQc2bcaUXO3F3+DEZW6onnEMPRr3Uj6+znsWTUH0QGD0Sr5G0z84bjhqNyaI2JYX7S+3xtIPIo/F81E1N7i7rgKwotb814Y1LMDmtUGzu1ZhVmJofiWLS8mvQ9YmAKWIOA1YA6WPhl3QyttcKdwNMrYhBW7GmHw9DA83jAQ9gmHcDZ2n/7eCHGf9PwbizMfw6AOjXF57YsYe1jcLwNxcv7H+OFYiFSuFZKj1sE+7HV0aKLBlejdWBY1D9vLrGrh1jwCw/q1grjV6e9d0QEY1irZcP+1hAvAc6w0AdnhpUGDhtITn5U9a+j68KL0bLy9tThxojgAKNzJY2OWYGKTQ4YP82OjsWxiYxSeuYx/d+1Dgk9zdOvgg/QLWUiJ3oboVHc06RyKwIvfY8DwpYhHMIZGfYrOTkexafUOxCIQT/UOgcufE9B32l/SEUlNtGO+wrjHc7Fr407E5UjlOzWFV5EvrKM/QO8p0jbanvhsXj/4ndmC9dGpcPRriY6Pu+BA5Cv4aLP0Lei68KJpNRpfj3scebs2YEdcLtybdEQzryL4Whefg0IHFqMABSxAQLS8jG2MmKjxmLT0SAXj6B5Ap/6heOb5TnA5vBRbD53ExhW74C/uk4/Y4VLOcfzz+0kc3Sd1KdUw3C+jx/XBlD0vYcaWF+B5KRNJ/1y7Vza6sgFvR8yG6H3ivcsC3l8qniLDy8TmODHtRYzfLK6CI8Jn/4Tu2V+iy+i1hsvSczo29srA590mYLPUquLX7lHUPbO59NuFduBcLG57GmP6fob92lfw5YKnkfR5P2l/xQPi9L/rCfdthvASPGIBPmu4EwMHzS9trdH/LvB/6P/md4gvF160ePXL7/B0UiT6jd9SPDi3DgbOm4vurts55kXFDw6rpsCdIeCIpuETMKZXE7gVXkHS+YM4sGkDotbsLRNkbuw20n/JezQGkX3GYX3J4NziL3vXwks4aqweiAFzzxoo9H9viN1DXsGsYxXduwy/6+XOe9ed8d6p3kcpO7wY1W103Tmbo+XFXN1GFbW8GD6MhoPuM2MTusQXt5KUfiC1WFc6gNYRPvWbo2XruvCvE4yA+oEIstltCBKh47FmqAMWdnkXP5UaaKWwsRAhsWKfZ/X/fjLrJ2w4XGa4fr0Q9Ak+g2kiIJULL09hwpohcFj4HEZf2yH0gSkkluGlen+2eHQUqEYC4otXCMKe6IjmzevAPesAvnnnfazSd/HcJLyUtFCXnEUF4QULyo6TEa0xzyBefz/lvasaXfy78lBkhxejBuxWQngx14Bdk8KLphVGzRuLJ2umIvb4JVw6fxiHbJvjzWbnDEGiXCtNCYKhNafTBRFedBj1/SQ8mif1Ld8wDzoWv46cgz/KhZeeiNzYHRmfl7QMGfapCZ+FtZ0uMLzclR9JnhQFKllAuo+99+0HaHZ0Ml78aFslhRfeuyr5Klr87mWHF6OmSpey1oC2rhda9xqFJ/2kX8b9gU9/2IGkMwnIMpLeXFOlTQovXSdj3QBrRPV4B6uKG07KtYIEDUHU7IdxaER/RJZMOdS8gE9/fB21/zS05vSMXI9eGZHoJnUDVfgqF14e1oed+/8eiohZ18b6hE5YiVEN9jK8GPke4uYUsDSB9oOnoUPuSoz9RozJu/bqOvVnDLJbgk4jpMG5ldLy0lAaHzgLDx8aifDSm6Ejwj5djkG1d/LeZWlvxEo4X9nhRdEidaFv4ctu9WFV7sCLcGrN/2G6foyJ/Je5FqkzKbyIZtMP/fG/IW9h7klpTIvf05gwaQhaWpf04WqlcDIPEV7/YdH8xTiQ4I2QoYPQ6T4PZO82hBeN1LW06K1616YuSrOXwidNQ/eiZQiXbiQp1w3YDR76HT57Mh3L3h6LhVKdbk+8i1mj28A3jf3G8t893JIClimgffULLOjugr/mTMTUX05K4+Zc8cALw/HuwIeRvHigNDVaTMIwdBvV3zUYQ2eLbaThK2UnNpTQGdVtJOYmTMdXEV44sugbLDyQCJ+QwXijUy14ZBd3s1vmJeFZm0lAdnhR9HgAhwZo+1TD6xarS8OJLTtwPNe4MzDX4wFMCi+og7BPJmNACzcU5kjr19hexu9/ZkjTpst04UhhpMeo0Qhr4iYtB3UFMWsj8W+zqehUOo6m7AC6PBRJC+AUJh1A1Jji/ucbpkqXqTOvCDa6Y1i86R70b8tF6ox7B3FrCliiQB10HjMar7arBxex1pZ46TJwevMcjIncVjpo16/PdMx6ORhOugOYI43ZizdDeBETIAJ7jMKYsMZwtwWuxKzF9H8fwrROvHdZ4jvR3OcsO7yIivlgxmL+Wy3hr3GERlrJ8tpwXMOA3banx0rTqfeXuX7SALogX9ilnpW3VLecxwaY+93B/VGAAneJgOF+o9GlVuFjRaR7oUa6F5aZm1BuduZdIsvTUEfAqPDi4uIiLRTnicuXU6r0aGvW9JAWyEvWr/BbvV9NMHzhJDwS+w0mR67Bf/k+aNJ1JMZF1MWhSd3x0dbqffQ8OgpQgALmEmgyPApTHonF/MkzsPq/fPg06YqR4/oj4FDJQGFz1cT9WKKAUeGlpPVFp9NJafpKlXhpNE6wsbFBXFyZZRurpGZllWiavoz3hjyHh/xcIHUIIS/1IvaunIppPxr6kvmiAAUoYBEC0oMcw98bjOceqq3vsirMS8OFvaswZdqPOMmboUW8BSrzJI0OLw4OjvruI9H6otMVVOaxSaHFFqLVRQSX3FwFT0Gt1KPjzilAAQpQgAIUUEPA6PAiDlLMPHJ1dUFqaqq8Zx0pODOxKJ27uzvS0zOQkpKsYA8sQgEKUIACFKDA3SigKLwICK1WC7H2SlpamtkDjAgubm5uyMnJQXy8sucp3Y0Xi+dEAQpQgAIUoACgOLyUBBiNRqMfSGuuLqSSlXSzpSHqDC58i1KAAhSgAAUocL2ASeGlpAvJw8MDWVmZJg/iFYNza9RwlrqJUthVxPcqBShAAQpQgAIVCpgcXsRexSBeb28v/aygnJxsfXePMS/R/eToqJFab3RITEzi4Fxj8LgtBShAAQpQwMIEzBJeSszEOjBirIq9vQPy8nJRUJAv/ehQWFhYOi5GjGextraGra2N9GNXuq0YO1P913GxsHcHT5cCFKAABShQDQXMGl5Kzk88SsDZ2UVqTXGA+Le1tQ2srAxPOCoqKpLCjA75+flSC00uMjMz9P/miwIUoAAFKEABCsgRqJTwIqdibkMBClCAAhSgAAWUCDC8KFFjGQpQgAIUoAAFVBNgeFGNnhVTgAIUoAAFKKBEgOFFiRrLUIACFKAABSigmgDDi2r0rJgCFKAABShAASUCDC9K1FiGAhSgAAUoQAHVBBheVKNnxRSgAAUoQAEKKBFgeFGixjIUoAAFKEABCqgmwPCiGj0rpgAFKEABClBAiQDDixI1lqEABShAAQpQQDUBhhfV6FkxBShAAQpQgAJKBBhelKixDAUoQAEKUIACqgkwvKhGz4opQAEKUIACFFAiwPCiRI1lKEABClCAAhRQTYDhRTV6VkwBClCAAhSggBIBhhclaixDAQpQgAIUoIBqAgwvqtGzYgpQgAIUoAAFlAgwvChRYxkKUIACFKAABVQTYHhRjZ4VU4ACFKAABSigRMAqOLhpkZKCLEMBClCAAhSgAAXUEGDLixrqrJMCFKAABShAAcUCDC+K6ViQAhSgAAUoQAE1BBhe1FBnnRSgAAUoQAEKKBZgeFFMx4IUoAAFKEABCqghwPCihjrrpAAFKEABClBAsQDDi2I6FqQABShAAQpQQA0Bhhc11FknBShAAQpQgAKKBRheFNOxIAUoQAEKUIACaggwvKihzjopQAEKUIACFFAswPCimI4FKUABClCAAhRQQ4DhRQ111kkBClCAAhSggGIBhhfFdCxIAQpQgAIUoIAaAgwvaqizTgpQgAIUoAAFFAswvCimY0EKUIACFKAABdQQYHhRQ511UoACFKAABSigWIDhRTEdC1KAAhSgAAUooIYAw4sa6qyTAhSgAAUoQAHFAgwviulYkAIUoAAFKEABNQQYXtRQZ50UoAAFKEABCigWqJTwYmdnB2dnFzg6OkD829raBlZWVvqDLCoqQmGhDvn5+cjJyUVmZob+33xRgAIUoAAFKEABOQJmDS8uLi5wc3ODvb0D8vJyUVCQL/3opLBSKIWWq/rjsbK6Rwoz1rC1tZF+7Eq3TUtLQ0ZGhpxj5jYUoICKAjY2NvDw8JC+nGikz7Bt6RcTFQ+p0qsWX7oKCgqkL1zZSElJgU6nq/Q6WQEFKHBzAbOEFwcHR3h7e0Hc1MSHOycnxyhzR0dH/Y1Q3BASE5OQm2tceaMq48YUoIAiAWdnZym0eOpbUy39JVqLU1KSpZbjTEun4PlTQBUBk8OLuJmJb2FZWZnIzr5i0kloNE6oUcNZ/81G3Bj4ogAFqoeAn18dODg4VI+DqUZHkZubi7i4s9XoiHgoFLAMAZPCi1arhUaj0Xf36HQFZhGzsbGF6H7Kzs5GfHy8WfbJnVCAAsoERGuLVutrEV1DyoQM4/ji4y+xFUYpIMtRQIGA4vAigovo7hFjVUrGsyiov8IiYlyMGDsjup8YYMylyv1QwDgB8Rn09vYxrpAFb52YmKC/H/JFAQpUvoCi8CK6ilxdXZCammr24FJyyiLAuLu7Iz09g11Ilf8+YA0UKCcgWlx8fe+lipECly5dZAuMkWbcnAJKBIwOL2Jwrp+fHy5fFiPuzdNVdLMDF11INWt6SH3KcRzEq+TqsgwFFAoEBjZgV5ECO9GFdPLkCQUlWYQCFDBGwOjwIoKLmBVk6uBcuQcpBvGKWUwiwPBFAQpUvgAH55pmzEG8pvmxNAXkCBgVXsRAWk9PT32rS1W+ROtLcnIy14GpSnTWZZEC7C4yz2Vn95F5HLkXCtxMwKjwIlpdxMJzxq7jYiq/GBgsFrRj64upkixPgVsL+PvX5TouZniTiHVgYmPPmGFP3AUFKFCRgOzwIhamqlPHH0lJCapIenn54OzZWD5KQBV9VmoJAqJ7NiCgniWcapWcY0zMaa7EWyXSrMQSBWSHFzHDyMlJrOmSrtjJoXZbhPXugGY1C3Hh39/ww5KduCRzby4urrhyRSzNbdridZqm3RHe4CQW/ngQ2TLrrtLN3GojSAvEHzuH6yddanzqw88+Ccfibn4N3PyCoJVUb7VNlZ4PK7tjBHx8fKRZhG5GHq8GXrXcYV+mlC4rCfFpVfu8Mvu6LRFy70Vs3RmLPCPP4Oab28FN6wXbzAtIUrD+Znp6GhIS1PmyV3pOJt1PXOEX5CtuRojjDHCzvau4I/MIyA4vtWrV0j9QUWmXkUPTXngnvC20RUmITbFD7Vqu0B39Ee/O2oZcGeciuo7EAx7Pnz8vY+ubb9Llk58wLPgwZj7/PtaZtKdKKtwnElv6AwueGoEl11Xx2JglmKj9FU8NX3rTyvvM2IT+WHjLbSrpyLnbO1xAWZdRGwyYEILa5c5deg7Q5WPYsHQF9idVDcojfcfgWb84/DJpKfaZrcoGCBvZC+77PsI3243fabXoOjLpfvISZmwJl25GHTH8+puR8RwsQQGzCsgOLwEBASaspNsI/T4egmb5O7Hk8yXYt9gqlAAAD3xJREFUlwXU7/MRRrZKw5o3P8dmGadUsvJuTEyMjK3v4E1MutkADC938LVX+dCVTY82hBf8UeZ/8E718Uy/HmhWsANffLPjhhZElU/TiOpNCy/VYtq0SfcThhcj3izctIoFZIcXcWNLTk4yflE6h5qo7esKe2sd4k+dg5RbpJcDmr76AV5/OFl2eBGL1nl6epm8hkJQr/fxWuBJzJ+4HMeCemLca574a95ZPDCkO9q4ZyP6t68wbQXQZehL6NjMBwVHtuHbmVHYW9JsqgnEs6+HIzS4HryRiCP7ViNq7nZcm8jtiuYRw9CvdSPp7+ewZ9UcRAcMRqvkbzDxh+OGy+vWHBHD+qL1/d5A4lH8uWgmovYWdwXJvtmEYPD0VkhevR++3cLwmGs0Pn1tNoLY8lLFH6G7p7oGDRoqOJkKwovYS+v++LAD8NuHC/Cn+G8p0HTo0g5BtV2B9HM4tvVX/HaqTMetvS8at2+NVkH+cMiNRfTGv1DQIgTORxdi/SGgcedwPIwDiFr/b/Ex3oc2PTuU/v2+Nt0RKnUbbV6+Exfua4Weoc44vi0XDTs9iLpZ+zBl8W6pnAb1OzyDkKDacEU6zh3bjnW/nUJpj9ANx/Av3F/oobjlRRzoiRPFn3kFsmYpYtL9JAUvs+XFLJeBOzG/gOzwIm5siYnGPWtIdBWN6tcG9zpaSUdehJwTa/FJ5GbYdX4b7zwbAN2hRRg3d4+sbiNx6t7eWpNvBvqulyaHMK73VOx5bDSWTWyMwjOX8e+ufUjwaY5uHXyQfiELKdHbEJ3qjiadQxF48XsMkLpq4hGMoVGforPTUWxavQOxCMRTvUPg8ucE9J32l3SEjmg15iuMezwXuzbuRFyOVL5TU3gV+cI6+gP0niJto+2Jz+b1g9+ZLVgfnQpHv5bo+LgLDkS+go82S0/Tln2zEd+KXkCt1HwkHNiOvaf/xcYVu/Akw4v5PyUWskdzhhf7dhF4t00+Nny8BH+5tUTEGyHwSjiEfbFZsPNqiGYNNYj5+QssPyjGxnih3YBXEVIzHgf2nUWWnSfuD74XtjauyNxtaNFpN+ADtMdWjJdacgyv8q0iDcJGoI9/LJZMX4MTDbphZJ96sEnNw4WYw7h4/jT+OJCJ1hED0d4rAQeL62jUrAE0Meswa3m0NE7m9seg5G1w54SXiu4n/hjD8KLksrNMFQhUWnhxaNof7w9sgZqXD2Hl0k1I82uHlj7nsPVyMwzoHADE/IJPp22QPWC38sJLc5yY9iLG6/uuHBE++yd0z/4SXUavNfD3nI6NvTLwebcJUveWNICt3aOoe2Yzthc3tWgHzsXitqcxpu9n2K99BV8ueBpJn/eT9icFEfHS/64n3LcZwkvwiAX4rOFODBw0v7S1Rv+7wP+h/5vfId6o8BKOGqsHYsDca0+1ZbdRFXxq7tIqzBJenDxRy78RQkKfQO2UTZi+6G9onxuCiPuOYc7cLSgZAlNH/O7eI5gx73ekPdgdo8Pc8c+cr7G5eAP7pj0xvFtDpBR3RxkfXgIR//MMLNlfPHC4zrMYFuGLo2XqgP53Wvw3Yz5+q337Y1By2e+s8HL9/YTdRkquOctUjYDs8GJMt9G14PI3vv74EJp/9Coe1F1A7BVn1BUDdRUEF3N1G1XU8hI9rg+m7DGAi//5d4kvbiURv9C3zmixrnQArSN86jdHy9Z14V8nGAH1AxFks9vQkhM6HmuGOmBhl3fxU+n102LgvIUIiRX7PKv/95NZP2HD4TJN5vVC0Cf4DKaJgGRkeLl+MB3DS9V8cO7GWkwJL9cP2L1ydgdWLNmGM3nuCH1jCBrn/o0DZ8vMA/INRrvaiVgzZTliQwdiRNB5fD1rPS6UwjZB7zHPw0lxy4s/YpdEYlXxSv1uoo7Gudhz4FyZ2Ug+eLCdHxLXfIoN3rc/BiXX/E4LL+XvJwwvSq45y1SNgOzwIn/A7oOImPwGmheK4LIAB6WpRL6t++BlqfvE2yEHif9swmIjpkiXMJhrwK5J4UXTCqPmjcWTNVMRe/wSLp0/jEO2zfFms3OG8FKulabkyA2tOZ0uiPCiw6jvJ+HRvEM4e8PUw1j8OnIO/rhFeAmdsBKjXFcXzySq+MbC8FI1H5y7sRazDNi1b4F+IzvC7dBCzFonmicD0G1EXzQoOIvEG6YbJ2B/1EZkdxuGl7VHECm1zFz7WASh+6gecP1babdR+fBSX9TRoACxNx4EEvYvxIl6tz8GY695dR+we/v7CcOLsdec21edgOzwIn+q9NMYNfdZ3LP+LUz9xTAJusYjPfBSYBxWLdsDpQ8WMNdUaZPCS9fJWDfAGlE93sGq4oYTfbdRSKwhvAQNQdTsh3FoRH9EHi6+iJoX8OmPr6P2n4bWnJ6R69ErIxLdxm+p+Co//Da+n/IoTkzqjo+2lt0kGCMWTkeLoyWtQgwvVfcxsYyaTJkqXXa2kZfUyvF/LQqw9YsobJfSSOtXxqF1zs+Ysiy6YkgxuPeJAsP4mJIt3J7CGyMeR0Fxt1HT3u+gm9PuMmNeyoebG8e8lA8v+gHErXPwk9TSc7Cio5BxDMa+C6rFVGmT7icML8Zec25fdQKyw4v8ReoewcBpryA4bTu+mvkrctpEYNCzQbA5aRisqzS8mGuROpPCi+hC+tAf/xvyFuaelMa0+D2NCZOGoKX1dkN4kZaH6xk5DxFe/2HR/MU4kOCNkKGD0Ok+D2TvNoQOjdS1tOitevhnyhB8sk2aYSTNXgqfNA3di5YhfMRyyaeO1LU0Fy/UjMaiCVOw9D9pG7f78cKIMRj4qA7r334Fs/TBiOGl6j4mllGTskXqKphtZC91+Qx/Hn5xazFDBBYxfqWrFjEr52OF6C6VZvW0fzkcLa/uwMzvdiKzuLXG4+RqfL3iP1zR/70f2tayx/mthpYXtw6vYfhjVtj7w/f49ZIHHnuuG0IbuuFi8d9vG170x/QctDHFdcAOvu37IKJlEXbMXIAd+YYWo1sdg7HvgmqxSJ1J9xOGF2OvObevOgHZ4cWYxwP4th6E/3upMTzEJCMxy+jUOkybbtzg3OsJzPV4AJPCi3QjCPtkMga0cENhjg42tpfx+58Z0rTpC8XhRTpqKYz0GDUaYU3cYCtNwoxZG4l/m01Fp9JxNI5oGj4BY3o1gVthHorsbVCYJE0BHfM+VpXMt9Y0RfhH76BXEw/YFEPoMk5j8+x3ESkCj/7F8FJ1HxPLqEnZ4wEqnirtJs02GhyiwcGoOVh31g512/dCWGt/1Liqw1Vba1yV3s+/L1qK3SUDdBt1xoCuD8PbthAF91ghK1qa8hzQFq4lC8TZB6HLgOfxiLc9rFCI1IPl/37b8CJdQvu6T+ClsFbwryEtonfVBjZX03Hq96X4vvgg7G93DEa+DarN4wEU308YXoy85Ny8CgVkhxdxTEY9mLFGAB5vVR84sw//nLgsezp0Rede7R7MeIslt6FxhCY7p8yjBwwDdtueHitNp95f5vQMS2/bpZ7FqYTimUnXn7zGB/X93IFbbVOFbxZWdfcLKOs6kutieJSA9U0fH2BYjt8hVzxewN+k1W1vdUROXvfB3ToLSfHpFTxKoOwxKH/EQbXoMuL9RO4bk9vdgQJGhRcXFxdpoThPXL6stPNHmVDNmh7SAnnJ+hV+q/erCYYvnIRHYr/B5Mg1+C/fB026jsS4iLo4dMMYlup9Jjw6yxRwdnaGr++91eDkTVvdVu0TuHTpIjIzM9U+DNZPgbtWwKjwUtL6otPpkJ2t4EllChg1GieI5uy4uGtr2CrYTZUV0TR9Ge8NeQ4P+blIXT6FyEu9iL0rp2Lajyer54Mgq0yGFd0pAn5+deDg4KDy4Qagy5thcD84DYt3qXwoRlafm5sr3a+urb1kZHFuTgEKyBAwOrw4ODjqu49E64tOVyCjCuWbiOnRotVFBJfc3Jt0rSjfPUtSgAI3EVA2bZqc1WJ6NC8DBSxAwOjwIkzEzCNXVxekpqYa/6wjmahiUTp3d3ekp2cgJSVZZiluRgEKmEOg+nQfmeNsqm4f7C6qOmvWZNkCisKLINNqtRADadPS0sweYERwcXNzQ05ODuLjjXuekmVfTp49BcwnID6D3t4+5tvhXb6nxMQE/f2QLwpQoPIFFIeXkgCj0Wj0A2nN1YVUspJudnY2g0vlX3/WQIFbCogWGK3WF1ZW+nUP+KpAQHQVxcdf4gBdvjsoUIUCJoUXcZyiC8nDwwNZWZkmD+IVg3Nr1HCWuolS2FVUhW8CVkWB2wlUj0G8tzvKqv87B+dWvTlrpIAQMDm8iJ2IQbze3l76WUE5Odn67h5jXqL7ydFRI7Xe6JCYmMTBucbgcVsKVJGAaIURX1bEgpWW/hLruIixeJwObenvBJ6/WgJmCS8lBy/WgRH95Pb2DsjLy0VBQb70o0NhYWHpuBgxnsXa2hq2tjbSj13ptqKvuPqv46LWZWK9FKg+AuJLimhtFV84bG1tLaJLSXQNFRQU6L+ciZZh8UWLLwpQQD0Bs4aXktMQ38ycnV2km5uD/luatbVN6Q1O3AQKC3UQ31xycnKlby4Z+n/zRQEKUIACFKAABeQIVEp4kVMxt6EABShAAQpQgAJKBBhelKixDAUoQAEKUIACqgkwvKhGz4opQAEKUIACFFAiwPCiRI1lKEABClCAAhRQTYDhRTV6VkwBClCAAhSggBIBhhclaixDAQpQgAIUoIBqAgwvqtGzYgpQgAIUoAAFlAgwvChRYxkKUIACFKAABVQTYHhRjZ4VU4ACFKAABSigRIDhRYkay1CAAhSgAAUooJoAw4tq9KyYAhSgAAUoQAElAgwvStRYhgIUoAAFKEAB1QQYXlSjZ8UUoAAFKEABCigRYHhRosYyFKAABShAAQqoJsDwoho9K6YABShAAQpQQImA1X331SmysrpHSVmWoQAFKEABClCAAlUuYBUc3LQoPT0dRUVVXjcrpAAFKEABClCAAkYLWPn43Fvk4uIsFbRGTk6O0TtgAQpQgAIUoAAFKFCVAlYeHl76Nhd7ewc4OWnw/+3asQqDMBAG4JhgfP+HFTqE0mSwFVoHl9CDb3BRIZfPDD/n1VrTvj9Sa613Y579SU7LMrMkaxEgQIAAAQIErgXe4eV4pZTSA8zWw8yW1nVNOZd+mYlxiAgQIECAAIH/EPgKL/PKOto5hm3mmVuJAAECBAjEF7gdXsYvpM9w7wggwkf8Y2AHBAgQIEAgjsApvIwQ8mu45er+eZNCTJxPrlICBAgQIBBb4HbnJfZ2VU+AAAECBAhEF3gB63f1TPiJPnsAAAAASUVORK5CYII=;" vertex="1" parent="1">
          <mxGeometry x="155" y="140" width="110" height="137.95" as="geometry" />
        </mxCell>
        <mxCell id="O65TXnctTbFCrL6ZVX1L-16" value="" style="shape=image;verticalLabelPosition=bottom;labelBackgroundColor=default;verticalAlign=top;aspect=fixed;imageAspect=0;image=data:image/png,iVBORw0KGgoAAAANSUhEUgAAAjEAAADKCAYAAABUpREHAAAgAElEQVR4Xu3dCXgURcIG4C/knAm5yQFouDELUVSWRUFWVldEjgVEwAgYUK5FiIBcAnKDSFAwyCJ4YBCN3CC3/AgimN1lEUVUJIIYQQIJJBByMjF/Vc+Ra0hmmJ4ZJvnGJ8+DyXR31ds93d9UVVe7hYSEFhcXA25u4IsCFKAABShAAQq4jIBbcHBosbUBxt3dHV5ePvD29oKnpydq1XIXP7VcptIsKAUoQAEKUIACri/gJltiLK2Gt7cPfH21IsB4IScnHzqdDsXFf4jFa7Elx1JEvo8CFKAABShAAVUELAoxHh6e8Pf3Ext0R15eniob5kooQAEKUIACFKCALQJVhhiNxheBgYG4evWqaHWxZVNclgIUoAAFKEABCqgnUGmI8fPzF2NevJGbmyO6izjmRT12rokCFKAABShAAVsFbhpiZICR3Uh5eQUc72KrMpenAAUoQAEKUEB1AbMhRnYhaTRa0QKTxwCjOjlXSAEKUIACFKCAGgIVQoxsfQkNDUNmZia7kNQQ5jooQAEKUIACFLCLQIUQExwcjPz8Qg7itQs3V0oBClCAAhSggFoCZUKMfh4YP95GrZYu10MBClCAAhSggN0EyoQY2QqTl1dot41xxRSgAAUoQAEKUEAtAVOIkY8SCA0NFfPBXFdr3VwPBShAAQpQgAIUsJuAKcTIO5LkoF75KAG+KEABClCAAhSgwO0uYAoxgYFBKCi4cbuXl+WjAAUoQAEKUIACioApxMjbqrOzr/O2ah4YFKAABShAAQq4hIApxISH1xXjYbI5uZ1L7DYWkgIUoAAFKEABU4ipW7c+srKuUoQCFKAABShAAQq4hABDjEvsJhaSAhSgAAUoQIHyAgwxPCYoQAEKUIACFHBJAYYYl9xtLDQFKEABClCAAgwxPAYoQAEKUIACFHBJAYYYl9xtLDQFKEABClCAAqqGmK6TV6Bnk9PYMnQhdkhbTSP0GT8ene7IxMHF0/DhSfG7ewZj4egHEFTOPjP5LUx8/zvx20j0mzUFfw/7Fdumv4pP0w1v1PwVca/1x92F/8Pb49/BUe47ClCAAhSwUaALJr/TA03MrsV4LrfinNx1It7pWbI23dU0nDq+G+tWJ+O8cRtVXgNsrBIXr1ECqoaYXrM+Qt/mKVgXMxObcQd6zZol/h84tW4GZmw+p4e9fySWTWiP2hm/4HR6vgn72rdJWLL1tPL/mjajsGjcg/A8ugIvLjqIPPG7qOcX4ZW/B+FU0suY9emlGrWTWFkKUIAC9hFoh0HTHxFfHcXL/w78qb4fss//iHPX5C9+w77ZiThszTm510wk9W1mWodnUAM0jtCi4LvVeGH+HuVcbsk1wD515Vqro4CdQswCnHvhNYx5KBiXDyVg0rIj+oO31AGMQ4vwwrJjNzH1weNTlmFQy0z835zxeO9yT8xa1AdNL+zAxMkflyT66rhHWCcKUIACzhAwBJBT6/qLL53lC2DhObnCOsLQf8FidLvzJyT1n41PLb4GOAOA23RFAbuEmF3rgI4ijePUerwyY0vZ0GFoiak8xAjK+r0xd/6TuPPsJqzNfgwDW9/AofjRWPa1KzKzzBSgAAVuc4FKQ4yF52Qz63h8yioMuvtXQwt9SUtMldeA25yLxbs9BOwQYv7AH3/UQq1aOTj2ThwWfl7SZVS6JSa4XP3NpX99F1I4INaXc6yka+n2oGMpKEABClQjgapCjKhqledkwzp+2TkD7ycDdaJ745k+9yDkwh5MH78ayoABwxdZS64B1UiXVbGTgB1CDJB36hv8due9aI7v8MELC7DH1JdUcgC7H12FRVvOmqqVd+lnnFf6YUu9xGDe8W8OR2tvMc5mvBhnYxzkaycMrpYCFKBAjRWwIMSgqnOyYR0lhn+g8PJxrH01HjuNI3sNIcaia0CN3RmsuKUCdggxp7HpuenY/pdxeHNEa3iU71KytDvJUANlsHCdw4h/4V9gT5Klu5XvowAFKGClgCUhRqyy0nOyJeuw8hpgZS349homYIcQY7w7yQdt4uIx7kGt2buTvH8+gM++yzJx5575Atv/V/GuI4aYGnZEsroUoIBzBCwJICqGGEuvAc7B4FZdRcCOIUYQaNrghdfi8FDAL9g0ZTrWy+bEm/SHXrnJ3UoMMa5yKLGcFKCASws4OMSUHxNzs2uAS5uy8HYXUDXE2L203AAFKEABClCAAhQwCDDE8FCgAAUoQAEKUMAlBRhiXHK3sdAUoAAFKEABCjDE8BigAAUoQAEKUMAlBRhiXHK3sdAUoAAFKEABCjDE8BigAAUoQAEKUMAlBRhiXHK3sdAUoAAFKEABCjDE8BigAAUoQAEKUMAlBRhiXHK3sdAUoAAFKEABCjDE8BigAAUoQAEKUMAlBRhiXHK3sdAUoAAFKEABCjDE8BigAAUoQAEKUMAlBRhiXHK3sdAUoAAFKEABCjDE8BigAAUoQAEKUMAlBRhiXHK3sdAUoAAFKEABCjDE8BigAAUoQAEKUMAlBRhiXHK3sdAUoAAFKEABCjDE8BigAAUoQAEKUMAlBRhiXHK3sdAUoAAFKEABCjDE8BigAAUoQAEKUMAlBcqEGJesAQtNAQpQgAIUoECNFGBLTI3c7aw0BShAAQpQwPUFGGJcfx+yBhSgAAUoQIEaKcAQUyN3OytNAQpQgAIUcH0BhhjX34esAQUoQAEKUKBGCjDE1MjdzkpTgAIUoAAFXF+AIcb19yFrQAEKUIACFKiRAgwxNXK3s9IUoAAFKEAB1xdgiHH9fcgaUIACFKAABWqkAENMjdztrDQFKEABClDA9QUYYlx/H7IGFKAABShAgRopwBBTI3c7K00BClCAAhRwfQGGGNffh6wBBShAAQpQoEYKMMTUyN3OSlOAAhSgAAVcX4AhxvX3IWtAAQpQgAIUqJECDDE1crez0hSgAAUoQAHXF2CIcf19yBpQgAIUoAAFaqQAQ0yN3O2sNAUoQAEKUMD1BRhiXH8fsgYUoAAFKECBGinAEFMjdzsrTQEKUIACFHB9AaeFGC8vL/j5+UOj8YH8t7u7B9zc3BTR4uJiFBXpUFhYiLy8fGRnX1P+zRcFKEABClCAAhQwCjg8xPj7+yMwMBDe3j4oKMjHjRuF4kcnQkuRCC9/KOVyc6slQo07PD09xI+X6b1ZWVm4du0a9x4FKEABClCAAhSAw0KMj48GYWGh8PDwEK0rueInzyp+jUYjWm200Ol0uHQpHfn51i1v1cb4ZgpQgAIUoAAFbnsBh4SYkJA6CAkJwfXr2cjNzbEJRav1Re3afrh8+bL4ybBpXVyYAhSgAAUoQAHXFbB7iImIiIBWq1W6gXS6G6pIeXh4QnZL5ebmIi0tTZV1ciUUoAAFKEABCriWgF1DjAwwshtIjmUxjndRi0eOm5Fja2S3FIOMWqpcDwUoQAEKUMB1BOwWYmQXUkCAPzIzM1UPMEZeGWSCgoJw9eo1di25zjHHklKAAhSgAAVUEbBLiJGDeCMjI3HlymXVupBuVlvZtRQcHILU1FQO9lXlkOBKKEABClCAAq4hYJcQIwOMvIvI1kG8lhLKwb7yricZZPiiAAUoQAEKUKBmCKgeYuSA2zp16iitMI58ydaYjIwMziPjSHRuiwIUoAAFKOBEAdVDjGyFkRPYWTsPjK0GcgCxnBiPrTG2SnJ5ClCAAhSggGsIqBpi5OMDGjRoiPT0i06pfWhoOH799SwfUeAUfW6UAhSgAAUo4FgBVUOMvCPJ11fOCXPVhlrcjQFTuqNo5xtI+ibfqvX4+wcgJyeXdypZpcY3U4ACNVog8E5ERfiWItAhM/VnXMy1XEUb3hSRftlI/fkirFisZAPae9E3thlOJa7HN7e0AsvLCgQgMqoukHYSqVnml4t8eBAe9d2PVTt/tWbFt/Re7b19ENs8BYnrvrmJXdXlvaUNV5OFVA0xd9xxh/LgRtu6kuqiy4QJ6N4oF/9dORerrAgysktJPkjy3Llz1WT3sBoUoAAF7CzQfzH2DmpRdiNFBTj/1XJMn70Lltwu8cDkjzCn1XG8EvMa/m1BcSPaPYXO/j/ig93f69/dbS62vhiNE2/2xNTtFqzAprc8gyV7Y4EPHseYj8yt6C6MfG8x/oFtGPP8cpy0aVtVL9xt3ha8GH0Cb/aYBln1CjaoqrxVb6M6v0PVENO4ceNbmpk3pGMsYu8PVpw1wfUQ5OsFrY8n3IqvIHn5NKz+zrJdYJzJ98yZM5YtwHdRgAIUqOkCSogR1/THxsJ4TQ9sMwoLZnRCftIwcaGvelZ0a0OM8v6IHXhszMdO0L+9Q0FFm9u7vE7YgWU2qWqIadasubhDKN3qye1KhxildLUCUL9JGLT5Z7Bt4SLsvGAZk5z8rk6dUKSknLJsgZu8K+rpaRjaLAXvzFlrSuGPjIpH+4x3MeeTn5SltM0eQewzfdCuVSAKz/+Ig+/FI/Eb40MpNWjWfTgGd70PUb65OPn1DqxasR0pSjPp3zDq9fbI2HQUdXv1xgMB36Lf0KU2lZcLU4ACFLhlATMhRq6r3+KdGIxEdB671nDO64bhg7vi/igtck4ew45VK7AtRX/OqxBiAttg8It90bZpI/jmnMT3n29AgqG7RJ5Lez94F5p7X8JxMYbxyDtz8Qn64ZWhzZAi/21o+tA2u/n2lHN0ncN480wrxPVuizvxG47t+di0jcrP0YZQsGYSjjUcjr/Lc/iZ/2BjwhLsNDQ7yTJ2xU689NZ+VNzWJfxwaA3eXHUE5nqjQruPw+Q/nUb8wq3Qxz95zu8C7ZevY+EW/W8iek7AhBa/YNn8DfAqdb2pZ87mZNXlLb/vlfI3OosdLy3D58of78LTrwxBm8CS3+l9H0N0k/rwyhT76OBWvP1xqTop+3AAHmoh/34cX61PQuK+FH2XV5TcX38GjmzB0bp9ENNBgyPzhiPh6C0fhbe8oKohpnnzu8QTpqtO7ZWX1tCdVC8TBxPjrR4XExYWgVOn9EHjVl/mvlX0X7IH3dKmI2bBf0SC6YHXkoaj0ZnPkLTla2geHoB+rXOwbrT4JiM+BA+M+wAzHi5E8u7DSM0LQnTnx9DyykYMH/m+aJqVB+STuCOzEBe//gJHTn+HD9Z/datF5XIUoAAFbBMwG2I06L9kI2IKVqDbpK3ipDYWq2c8jBvJu/Blaj6Coh9Hp5ZXsGH4KLwnz3mlu5OU8+NIRGUcwu7t3yEtog1692iJ9FUjMHZtmjgfxuLxrt1Fd9IP+Gj/cZzavQFfNZyEpDn34NtX+mOB7I8qtz1NZHt0bueDQzOfRbz4u357RfglOwXHvhIFkH/vEIaTy2IwaYsIVpWeo/WhoFHO7zjzxQF8m+mDyA5PoIM22dQdJs/3g0SAky1Fxm1dcEvHsd3HkamJRIfOD8I7eR6GLThccRzLA6IuMyOw/UlxPZBX/E4zsHlCO2i+T8STYn250Ns+dXUxes3YW8buujmbtKrLW/4AUMrf8odSrWttMTlpNh6tY/hd5FC8vfIpNCm+JsYxncWN0BZoEuKGc9smYnDCCeEptrk0Fi29C5B+9jyK6kUiQgOkbp6E5/8l/i7rOOcR+IjZ8jW1vcVEsxk4vOA5Zd84+nUbhBgf8YRrDzEY97qh7nJgb2fkblyKTT9ZN7BXrsAhIUbZgfWxu0ccEpVYGoF724Xjwjff4iKexMJ1MchLeBYzPjO0zGj1v7v+eh/M3q8/IGtvGoYhy+0/aMzRBxS3RwEKuJhAuRATGBmFVg8NxNBnW+L82zIUAL0XrkVM3lI8Ky66+nG3Gv3vrr+Bp2YfKBdiwtGqQ0u4ffm5aZBup1kbMM5/valVp0KXiXJONYYYQ4AqfBd9J24yba/TrNUYF7oLg8SXwYYyxLQ9g8X9X8FOpUDlQ1cl5+hcM+fgCHFR/7AjzhpCVIUQ0/Ea1g/7J1YaWmq0IpisHheKXYNEiKvwvb0jpm+YiODNvUVXXJ5i82LEJaBpPtZ2exlbIELe9oHIT3hKXCMqtmLdrDupzDWjXHmtDjGGcVAZ+4xfzNtjRFwb5J86jG2bjqDDa5/ihfuzcWDmEMw7LEPhfZiwfAE6hXyNZbIOhhBTJ+NLzPvnXBy4yQBpR3wSVA0x1ncn1cVD/3wBz9x9BVtGvgGxP216qdWdZFlLzEjck/cjvhBJPnlvMo4YR+XL1P1iPRwVrSslw4uD0bpHZ3juisWIlY9UMajMJgIuTAEKUMA6AbMDe7NwIulVTE2Ud8w8hlmb41Dv6AYcLnXPREhr0ZriuQcDR7yjDxVlBvaKO2r+3BbtohuhYfOmaNK0JRr+vsY0BqbyECO3Nxb+n3QRLTelqtLzVWwfArwrLqJpZgYSl1mnoTXI7Dna7EBZGWy6Iu1mISb6GCYPWISS3hJZxtHwSfyHEvLKv2Roi/P5ULRinUTcqnkISXoLRcNGwV20fswQ/22O80GiEmgsDzFlByKXLa/VIeaB8Vgz8zGEQ7a0HMfxb/+H5B378UWqvLPY0GoTcBmnfzyPHMPKfSJEF2BYNvZJI+hbYtwPzEbfeYetO95UfreqIca6gb2GAHOPPy4cfB9r/q2/LTsv/RekGRtlrKysWgN7qwwxslyiv7DX4CfwSPSf0KBeMDzT92LuiEU43P117B4YhtM/paF8O1LWETmmpjVDjJX7lW+nAAXsKFCuJUYrwkLSiHDsG/8cZM+CGB2Dxbv7I+z0T0ircFL7nzJ2MLB0qBBdEYsTBiCq6Hf8fDYN53/+Dpcje6KvZpuFIUZurycy5sSIVoBS9W7/MtbNDMNWMQD5dFUhprJztKElprJQUKElpuEBJayVNLroL/QR229yh5MMXLH5SHj5CmIW1cNWEVhyRbCJuTwVK7TTMS14o6mVqfz1xrKBvTaGGOUSNhgvPt8RrerVgZ/GQ/xGhwufzceIeB3iZNeT3yWcqnAdu6ofwxSoDzEwtuTY8fCsatWqhhirbrH++xgs7d0ckq7863LyUkxb/WNVZa/wd7VusY4Ythwf/u1sqdsFNYhdugWdzxua3sSWtVqNeDaUsbvoCcz9aAzq74/D4MPdsWZBExwcKJoezQ4P4khzq3csF6AABewnUGFMTAMMe3s5/pG/BkPEGI40tMaENfPR5KBsSTY/5rH0hTgr7n0sbX0cY2OXQMlA4iVbJiYEbLIwxNwlWi8ScN8xcT5NKBnfqJyX/3paaRHxtCDE3PQcnWDui2QVLTFtTyG+16yS3gKlO6eDCFNijI7Zwayyy6gv8o9eQ9uAL/VjYWSw6ZyFQ94PI+L/9F1N8mW/EHMBO8cOwmK5E7SifpvEGBd3w5gYZW4gb9N8QNpmg/Ha4qcR5XEC73ZeiXDh371uCj4p1V0muxkjcAEnZWuNoTup2oUYqya784lE99Fj0KWxDic3r8KnKSUR/1ZbY1Sb7O5vr2DDlCicTJiJ+fuu4d7YaZjYoznyDuhDTIj40K/pC3wyfgoSxeh8/QHQB0VJ8sAMU04AXfOTMH7Kh8odSYEdX8Zbk1rg+OyBWJjMEGO/szHXTAEKWC1gZmCvMuZjQjS+j9eP7YsUAWJl13wkGc554qSGqW9NQIvjc9F/YXKZC/Fxsb5Nva4jYYgYryLGSmjvHYpFs55Cs1/0A2VNF+6myRgZ95b+rs0yY2LEuNJy29M2G4j5i2IQsE8/8NRca3npFozKz9G9zLSGVxFiHg3CxQMLMWreAWRpmyF2fjxiAvZh/OClpqBW1l0/RmdgFHB203P68CeDxEbRQuV2ButLhQOzIaa0jQXdX+X3+d+mr8eUDv4oykzBgeTfUK/tX9C4dm14e+tDzNGRK7GkVwMUpGzGGwkHgPsHY8Tge1Hn911K+Mzo9zpWDIkWI3kPYe3q9Thfvw+e7fcQIiHGxMSIbrB7qmlLjNWPHTAGmUbnsFmFMTHqPXagAXrPexVD/hIiWoqKkHNiDfa4xeKvxruTYPx7AG7kFMHL1x1Z/30PE6du0k8MFfkEJk8bgo6NfKArcIO3ew5O71qCcQlyJDtDjNUnWS5AAQrYT8Ds3UkR4iK8EgMD9hou1A3QZfIUDOvYEN66Arh5uyPn9G68MW4pDosQUvbupPaIWzIOXcT5r1A0Nnj9cRIHTkTg0dql5oUxdDlF++rw9TIxriSt3N1J4hxr2l6xDh5uRWUm36sqxKDSc7S5c3AVIabVGexLa4GOUZ7QuXnDPesI3p04DRsrmQlQK8PcoADsHC265ZTbxiPEF9xE9MGGMl1TFepS3mZL1eWtcHBo22PCvybh0fqirEXX8cvOLfj1wQHoaLw7SfGZh8GtQ8X1SS5dhIL0E1i/cIZhqhAN2se9jnFPNIG/obtEd+00dr3xEhLkQN/q2hKjXL+tfgBkbTRuHozfT6VWGENizafWKQ+ALNckV768ylTcQQViduvfzM4nYE39+F4KUIACThfQhqNpZBAKK5my31hGmx9FIFekbM8P2VY+BsHkVMU52hLP0iHjuDyne6fru1Sqw8uwP5H5K36+aJznrHTF9I888Lrp352PoOqYGFkdf39/MeFcHVy5ctmhtQsODhET7WUoMwbzRQEKUIACFFBDwNrZiNXYJtdhuYDqIUZuWrbG6HQ6MfDVeHOW5QW6lXdqtb7w8PBAaqolT/m4lS1wGQpQgAIUqIkCreNWYOrdJzBPzKzuhAlpayK5VXW2S4jx8dEoQUa2xuh0N6wqkLVvlrdVy1YYGWDy8801h1m7Rr6fAhSgAAUoQAFXELBLiJEVl3cqBQT4IzMz0+pnKVkKJye3CwoKwlUx9fHlyxmWLsb3UYACFKAABShQDQTsFmKkTUREBOSA26ysLNWDjAwwgYGByMvLQ1qarc9rqgZ7klWgAAUoQAEK1DABu4YYY5DRarXKgFu1upaMM/Pm5uYywNSwA5bVpQAFKEABChgF7B5ijF1LISEhuH492+bBvnIQb+3afqL76DK7kHgcU4ACFKAABWqwgENCjPSVg33DwkKVu4jy8nKVbiBrXrJbSqPRKnc9XbqUzkG81uDxvRSgAAUoQIFqKOCwEGO0k/PIyLEs3t4+KCjIx40bheJHh6KiItO4GTnexd3dHZ6eHuLHy/ReObaG88BUw6OQVaIABShAAQrcgoDDQ4yxjPIRBX5+/qJ1xQfy3+7uHnBzc1P+XFxcLEKNDoWFhaLFJh/Z2deUf/NFAQpQgAIUoAAFjAJOCzHcBRSgAAUoQAEKUMAWAYYYW/S4LAUoQAEKUIACThNgiHEaPTdMAQpQgAIUoIAtAgwxtuhxWQpQgAIUoAAFnCbAEOM0em6YAhSgAAUoQAFbBBhibNHjshSgAAUoQAEKOE2AIcZp9NwwBShAAQpQgAK2CDDE2KLHZSlAAQpQgAIUcJoAQ4zT6LlhClCAAhSgAAVsEWCIsUWPy1KAAhSgAAUo4DQBhhin0XPDFKAABShAAQrYIsAQY4sel6UABShAAQpQwGkCDDFOo+eGKUABClCAAhSwRYAhxhY9LksBClCAAhSggNMEGGKcRs8NU4ACFKAABShgiwBDjC16XJYCFKAABShAAacJMMQ4jZ4bpgAFKEABClDAFgGGGFv0uCwFKEABClCAAk4TYIhxGj03TAEKUIACFKCALQJlQowtK+KyFKAABShAAQpQwJECbIlxpDa3RQEKUIACFKCAagIMMapRckUUoAAFKEABCjhSgCHGkdrcFgUoQAEKUIACqgkwxKhGyRVRgAIUoAAFKOBIAYYYR2pzWxSgAAUoQAEKqCbAEKMaJVdEAQpQgAIUoIAjBRhiHKnNbVGAAhSgAAUooJoAQ4xqlFwRBShAAQpQgAKOFGCIcaQ2t0UBClCAAhSggGoCDDGqUXJFFKAABShAAQo4UoAhxpHa3BYFKEABClCAAqoJMMSoRskVUYACFKAABSjgSAGGGEdqc1sUoAAFKEABCqgmwBCjGiVXRAEKUIACFKCAIwUYYhypzW1RgAIUoAAFKKCaAEOMapRcEQUoQAEKUIACjhRgiHGkNrdFAQpQgAIUoIBqAgwxqlFyRRSgAAUoQAEKOFKAIcaR2twWBShAAQpQgAKqCTgtxHh5ecHPzx8ajQ/kv93dPeDm5qZUrLi4GEVFOhQWFiIvLx/Z2deUf/NFAQpQgAIUoAAFjAIODzH+/v4IDAyEt7cPCgryceNGofjRidBSJMLLH0q53NxqiVDjDk9PD/HjZXpvVlYWrl27xr1HAQpQgAIUoAAF4LAQ4+OjQVhYKDw8PETrSq74ybOKX6PRiFYbLXQ6HS5dSkd+vnXLW7UxvpkCFKAABShAgdtewCEhJiSkDkJCQnD9ejZyc3NsQtFqfVG7th8uX74sfjJsWhcXpgAFKEABClDAdQXsHmIiIiKg1WqVbiCd7oYqUh4enpDdUrm5uUhLS1NlnVwJBShAAQpQgAKuJWDXECMDjOwGkmNZjONd1OKR42bk2BrZLcUgo5Yq10MBClCAAhRwHQG7hRjZhRQQ4I/MzEzVA4yRVwaZoKAgXL16jV1LrnPMsaQUoAAFKEABVQTsEmLkIN7IyEhcuXJZtS6km9VWdi0FB4cgNTWVg31VOSS4EgpQgAIUoIBrCNglxMgAI+8isnUQr6WEcrCvvOtJBhm+KEABClCAAhSoGQKqhxg54LZOnTpKK4wjX7I1JiMjg/PIOBKd26IABShAAQo4UUD1ECNbYeQEdtbOA2OrgRxALCfGY2uMrZJcngIUoAAFKOAaAqqGGPn4gAYNGiI9/aJTah8aGo5ffz3LRxQ4RZ8bpQAFKEABCjhWQNUQI+9I8vWVc8JctaEWd2PAlO4o2vkGkr7Jt2o9/v4ByMnJ5Z1KVqnxzRSgQI0WCLwTURG+pQh0yEz9GRdzLVfRhjdFpF82Un++CCsWK9mA9l70jW2GU4nr8c0trcDysgIBiIyqC6SdRGqW+eUiHx6ER333Y9XOX61Z8S29V3tvH+dpx9MAABLbSURBVMQ2T0Hium9uYld1eW9pw9VkIVVDzB133KE8uNG2rqS66DJhAro3ysV/V87FKiuCjOxSkg+SPHfu3G2/eyLaPYXO/j/ig93f3/ZlZQEpQIFqLNB/MfYOalG2gkUFOP/VckyfvQuW3C7xwOSPMKfVcbwS8xr+bQFVhfNft7nY+mI0TrzZE1O3W7ACm97yDJbsjQU+eBxjPjK3orsw8r3F+Ae2Yczzy3HSpm1VvXC3eVvwYvQJvNljGmTVK14bqipv1duwyzsi2qFP52bAqT1Y/5XzJp1VNcQ0btz4lmbmDekYi9j7gxVnTXA9BPl6QevjCbfiK0hePg2rv7NsFxhn8j1z5oxlCzjxXcqHPmIHHhvzsRNLwU1TgAI1XkAJMeKa/thYGK/pgW1GYcGMTshPGiYu9FVfoKwNMc49/92mocBwIFa0uU3L+8AkJM15BNg3HTEL/uO0j5GqIaZZs+biDqF0qye3Kx1iFIlaAajfJAza/DPYtnARdl6wzEdOflenTihSUk5ZtsBN3hX19DQMrXMYb55phbjebXEnLuGHQ2vw5qojKGl91KBZ9+EY3PU+RPnm4uTXO7BqxXakmJpCxd8fjcUzfR5Eq6AbOP/DF3gv/kOlqfSRUfHo/eBdaO59CcfFGJ4j78zFJ/aO+zaJcGEKUKDaCpgJMbKu/RbvxGAkovPYtUrVtc26Yfjgrrg/Souck8ewY9UKbEvRP4i3QogJbIPBL/ZF26aN4JtzEt9/vgEJhu4Ss+c/9MMrQ5shpdS5sLLtVTxH/4Zjez42bUNf3kcQ+0wftGsViMLzP+Lge/FI/EaW1xAK1kzCsYbD8Xf59zP/wcaEJdhpaHaSZeyKnXjprf2w7HpQcnSEdh+HyX86jfiFW6GPf3/DqNe7QPvl61i4Rf+biJ4TMKHFL1g2fwO85PWmWQrembMW9cxeG6oub/ljUyl/o7PY8eYZtIrrjQfuBH779xasKH+NMl7DlGvU/7Bh1dv4wtT0ZrjGdYpGk/qeyDz5Aw5ufhsfHxHDRR55Aa/3fgB3NQ8DLqXgp7QfseOlZfjcCR8SVUNM8+Z3iSdMV53aK6+noTupXiYOJsZbPS4mLCwCp079ZBOl/gNZhAtu6Ti2+zgyNZHo0PlBeCfPw7AFh5V+ywfGfYAZDxciefdhpOb5ILLDE2jnfQgzByxSmlO1PV9F0ojGOLMnCVu+9sHDzz6N1tnrMFq0vPh3jsXjXbuL7qQf8NH+4zi1ewOc2BpnkxUXpgAFXFzAbIjRoP+SjYgpWIFuk7aKE95YrJ7xMG4k78KXqfkIin4cnVpewYbho/CeuOiVCTHaHngtaSSiMg5h9/bvkBbRBr17tET6qhEYuzYN0ebOfw3lt/p78O0r/bFAnkDLbU8T2R6d2/ng0MxnES/+bjxH/5KdgmNfiQLIv3cIw8llMZi0RQQVpQzD0ejMZ0ja8jU0Dw9Av9Y5WDdatDal6kNBo5zfceaLA/g2U3/+7qBNNnWH9V+yB4NEgJMt5ZZcD8ocAbKFYmYEtj8ptiUvFp1mYPOEdtB8n4gnxfpyobd96upi9Jqxt4zddbPXhqrLW/4IVMrfMgMXL/rBX1sInYcGfhoP6FLWYvjI90UXoQbtJ6/AK4+GozgvDb+n+yC8fiC8C37AB4qRIB22HCv7NEbxtd/w89kbCG3RGCFu57Ft/HNIiJqLTQPugdbXGyjIQW7hD/j4yWnY4ISPwm0QYnzEE649xGDc64bqy4G9nZG7cSk2/WTdwF65AtVCTMdrWD/sn1hpSKVacSCuHheKXYPEh/aaOKg2PY3Cd/ph4kb9NxFoH8Os1WMRuus50Z+apj8w6+9Gj9Ef6gdrRdyLduEX8M23+oFvzm1OdcKRxk1SgAK3p0C5EBMYGYVWDw3E0Gdb4vzbMhQAvReuRUzeUjwrLrr6xmaN/nfX38BTsw+UCzHhaNWhJdy+/Nw0SLfTrA0Y57/e1KpT4fyndE0YQ4whQBW+i74TN5m212nWaowL3YVB4iLcUJ5f257B4v6vYKdSoPKhS66vPnb3iEOi/gSMe9uF48I334oBy/pQUHvTMAxZbhi4GzEUb3/YEWcNIapCiKnselDhe3tHTN8wEcGbe4uuuDzF5sWIS0DTfKzt9jK2QASs7QORn/AUZnxWsRXrZt1JlZXXfIgpwrmdU/HC4mPI1d6HscvmocsdOfhyfh/MvjAaq5Z2wx0ZBzDz+VdxWBhFxibgXwPuAo6tUNx7GYLQPoOJtv1wxP0lH6cOb8em/4p54NidJNnr4qF/voBn7r6CLSPfgNifNr3U6k5SDqLoY5gsWlWOmkokQsrm0fBJ/Acm5YpkPc4fn3R+CfqGVv2r52ufYgjeU765KC0xL9yDvB8P4ov9ydj71RH8fNEQeBhibNrPXJgCFFBRwOzA3iycSHoVUxPlHTPy3BeHekc34HCpeyZCWovWZM89GDjiHX2oKDOwV9xR8+e2aBfdCA2bN0WTpi3R8Pc1pjGAlYcYub2x8P+ki2i5KX2CfRXbhwDviiCQZmYgcZl1GlqD7sn7EV+I1pbkvck4YrpzytwYE/m7rki7WYip7HogQl75lwxtcT4fimvBScStmoeQpLdQNGwU3FeK4CL+2xzng0Ql0FgeYsoORC5bXvMh5gzWDxRfxA0hKyrufSztXh/ntsVh8OURymDujDLjWfph8e7nEJ35udIihQmrMbNTuGhpScfZ49/h2yPJ2LH/YMkdXdUxxFg3sNcQYO7xx4WD72PNv/W3Zeel/4I0Y6OMlZ9TtQb2Kh+GhgeUD2dJyG6LyUmzEbFdjGjXvY7dvTMwp69IsKXK2H5qEmaGbjN9UAPb9MTgLn9DdIuGqBfsgfTP5mNEvKE7igN7rdy7fDsFKGAXgXItMfqu8HDsk90GJ+QW5cWtP8JO/4S08o3jWf9TxnIElg4Vkc9gccIARBX9Lroh0nD+5+9wObIn+mpKzo2Vhxi5vZ7ImBODeWVOsC9j3cwwbBUDkE9XFWJkscW4nF6Dn8Aj0X9Cg3rB8Ezfi7kjFolWh1sIMZVdD8zd4SQMt8fmI+HlK4hZVA9bRWDJFcEm5vJUrNBOx7TgjaZWpvLjiSwb2GtJiBFdQ6UGa2tFS8tW0dKiBJffnjYTYmR4HI92+ArxvWaJRoUAtBn8Ip5/5B7Uq+MH0RsF6C7gs7n/RPxh8YW8OoYYq26x/vsYLO3dHNKl/Oty8lJMW/2j1Z9XtW6xVg6itqcMO9JQDKW5sYP48Ig+2RzZFHcfjo0WH3LTgNwIDHs7EX89PQUD4mX7jQZabZ54fpR+eW2XOfhobH3sNyzD7iSrdy8XoAAF7CFQYUxMA3EuW45/5K/BEDGGIw2tMWHNfDQ5GIsRxq/15cpR+kKcJb/xtz6OsbFLoGQg8ZItExMCNlnYEnOXaL1IwH3HRItBQsn4xggxRuPDv55WWsg9LQgxWq1GnH+N3f1PYO5HY1B/v1xnazO3WFfRElPZ9aCkub6Uiuwy6ov8o9fQNuBL/VgYGWw6Z+GQ98OI+D99V5N82S/EZOM/iwdi2k65HX3334j7PHDiXdHClakfp+Np6DpSLlPRY5C4+AnUO7cdowcvRZroVozwyjTM/SMG+Q5+DYufuQseJ97XdwtWxxBj1WR3PpHoPnoMujTW4eTmVfg0pSTi32prjFqT3SkH1aNBuHhgIUbNO4AsbTPEzo9HTMA+jBc79wT0H/Ku+UkYP+VDcUeS2MGx87EoJsDw7SUE/d9cjb7Fn5T8XR4A/YqQZBjspWyjaTJGxr1V6o4me5yhuE4KUIAClQiYGdirjAGcEI3v458V4zby9IM8u+YjafwUJMo7kgI7YupbE9Di+Fz0X5hc5kJ8XKxvU6/rSBgixquI2zm19w7FollPodkv+oGypgt36fNfmTExhkGlpbanbTYQ8xfFIGDfRBFCTlS8G8oYBgzTVoSIMqzpC3xiKK+22WC8trgPipJkeOhlfYip9HpgzlY/RmdgFHB203P68KcVQWmjaKFyE908cmyloZnfbIgpc22ouuWofAn0A3uLUJRzDl/tOYz0UDnwuQG0uV9jWYzoxsptK4LpDHQKL0Tql1uw95Q3WnXrgT+L/z/xrhyAHaDMldMrshApm95Awn7g/ufE3bj31cHvO19C7GIRT1uPx5oFjyH86g/YuX039n6wxxRaHfl5U3Vgr9WPHTAGmUbnsFmFMTFqPXZAf1Cdwb60FugY5Qmdmzfcs47g3YnTsNF4+1nkE5g8bQg6NvJBsc4DbkXn8dW/ZmG2cYbHyCcxb+Hz+EuADjlFnvB1z8J/330ZUzcaBpIZmlyjfXX4epkYZ2OmX9WRBwK3RQEK1FABs3cnRYiL8EoMDNhr+uLWZfIUDOvYEN66Arh5uyPn9G68MW6pMii07N1J7RG3ZBy6iHNjocg7Xn+cxIETEXi0dql5scqf/9LK3Z0kviiatlesg4dbUZnJ98zNS1O2dbsBes97FUP+EoAbOUXw8nVH1n/fw8Spm8SdOVWHgop3J1VxPTBz6GhlmBsUgJ2mFnt9a30fcQ9P6aEKFepS4dpQdXnNh5gfsOmDP/D4wGhx/YEINGexM34MEmRXkHzJa9SCQWgdKq5v8v9113B61xKMS9APeajwdzEBYvqJ9Vg4XT9VCMQ+6r9oEQa08hc9KuKupTI9E477LKkaYpR6W/0AyNpo3DwYv59KhfX3IpVAqfkAyNIH1XE5nbZ3Ok6mmn+UQlXTbcuR/iVNco7bsdwSBShAAdUFtOFoGhmEwkqm7Ddus6pzo0VlU7bnh2wrH4NgWrfySAVvqx+jULps1lwPLKqTA96kb4kxjImRhvWA32/ySAhlPwUViKcw/FZqHrSSQur/jpsbivWHe13ExZs8wsHe1VU9xPj7+4sJ5+rgyhVxC5YDX8HBIWKivQxlxmBbX+ZSvq3r5PIUoAAFKOB6Aq54PSgTYlyP3KoSqx5ijK0xOp1ODKrKsaowt/pmrdYXHh4eSE215CkfVW+lddwKTL37BOYNXVrqFuuql+M7KEABClCgegm44vXgKTET8DNRJ502AZ0jjwC7hBgfH43SrSRbY3S6G3atj7ytWrbCyACTn18yD4tdN8qVU4ACFKAABSjgdAG7hBhZK3mnUkCAPzIzM61+lpKlKnJyu6CgIFy9ek3M+Jth6WJ8HwUoQAEKUIAC1UDAbiFG2kREREAOuM3KylI9yMgAExgYiLy8PKSl2fq8pmqwJ1kFClCAAhSgQA0TsGuIMQYZrVarDLhVq2vJODNvrphJjgGmhh2xrC4FKEABClDAIGD3EGPsWgoJCcH169k2D/aVg3hr1/YT3UeX2YXEw5gCFKAABShQgwUcEmKkrxzsGxYWqtxFlJeXq3QDWfOS3VIajVa05uhw6VI6B/Fag8f3UoACFKAABaqhgMNCjNFOziMjx7J4e/ugoCAfN24Uih8dioqKTONm5HgXd3d3eHp6iB8v03vl2Bo15oGphvuRVaIABShAAQrUOAGHhxijsHxEgZ+fv2hd8YH8t7u7mLrfzU35c3FxsQg1OhQWFooWm3xkZ19T/s0XBShAAQpQgAIUMAo4LcRwF1CAAhSgAAUoQAFbBBhibNHjshSgAAUoQAEKOE2AIcZp9NwwBShAAQpQgAK2CDDE2KLHZSlAAQpQgAIUcJqAKcSEh9cV0/dni8G1TisLN0wBClCAAhSgAAUsFjCFmNDQMHEX0HURYmpZvDDfSAEKUIACFKAABZwlYAoxgYFBYt4W+z5x2lmV5HYpQAEKUIACFKh+AqYQo9H4itl0PZUZcfmiAAUoQAEKUIACt7uAKcTIGXJDQ0PFuJjrt3uZWT4KUIACFKAABSgAU4iRFsHBwWKGXM6My+OCAhSgAAUoQIHbX6BMiJHPM/L19bP64Yy3fzVZQgpQgAIUoAAFqptAmRBjbI3Jzy8Uzy+qblVlfShAAQpQgAIUqE4CFUKMHNwrb7fOzMzk7dbVaU+zLhSgAAUoQIFqJlAhxMj6yTuVNBotcnPzOPldNdvhrA4FKEABClCgugiYDTGycn5+/sot13l5BQwy1WVvsx4UoAAFKECBaiRw0xBjDDKent6iRSaHXUvVaKezKhSgAAUoQIHqIFBpiDF2LQUGBor5Y65ysG912OOsAwUoQAEKUKCaCFQZYmQ9ZbeSv7+f+Jc7b7+uJjue1aAABShAAQq4uoBFIcZYSf08Mlp4eXkhJydfeURBcfEf4s+1OG7G1Y8Elp8CFKAABSjgYgJWhRhj3eQjCry8vOHt7Q1PT0/UquUufvj0axfb9ywuBShAAQpQwKUFbinEOK7GboZNceY9x5lzSxSgAAUoQAHXEDCFGDlDr5sxM9hYdrmekhl/5UoZQmwk5eIUoAAFKEABCpQTsLIlRoYRc0nnZr8vvTWGGR59FKAABShAAQqoJ/D/QTyY2BuV5c8AAAAASUVORK5CYII=;" vertex="1" parent="1">
          <mxGeometry x="204.46999999999994" y="-90" width="127.68" height="45.97" as="geometry" />
        </mxCell>
      </root>
    </mxGraphModel>
  </diagram>
</mxfile>
